# Apple ModelIO OBJ File: Pohon_3
mtllib Pohon_3.mtl
g Pohon_3
v 9.91014 2.14825 52.1186
v 12.6117 -1.02557 50.1252
v 9.78148 -1.13079 51.8378
v 15.1358 2.84873 51.9478
v 15.5018 -1.47046 51.6757
v 15.2564 2.69053 54.987
v 15.5616 -2.02057 54.9389
v 12.7038 2.26119 56.592
v 12.7313 -2.12579 56.6515
v 12.4627 2.57759 50.5137
v 14.9852 6.88395 52.0207
v 9.84128 -1.6809 55.1009
v 10.0307 1.99004 55.1578
v 12.4151 -8.09605 48.1593
v 17.3382 -8.09605 56.1039
v 7.99648 -8.09605 56.3952
v 8.74055 -6.60366 51.6586
v 7.82829 -8.09605 51.0017
v 9.36814 -3.5321 55.4323
v 8.86852 -6.43429 55.9484
v 9.22938 -3.55832 51.4743
v 12.7515 -8.09605 58.9463
v 12.6415 -6.09554 57.9726
v 12.8397 -3.93863 57.2949
v 16.2864 -5.92617 55.7071
v 16.1726 -4.37137 55.1993
v 16.1585 -6.09554 51.4173
v 17.1701 -8.09605 50.7104
v 15.8749 -4.44408 51.5273
v 12.3855 -6.43429 49.3931
v 12.4033 -4.03756 49.6648
v 10.2112 7.59088 55.0293
v 12.8684 12.7189 56.1013
v 10.3391 12.5021 54.7443
v 12.7029 7.29083 56.3661
v 10.1065 7.53747 52.1882
v 12.4935 7.184 50.6839
v 15.0899 6.93737 54.8618
v 10.2272 12.6712 51.8729
v 10.3802 18.5309 54.658
v 10.3436 18.5451 51.8681
v 15.2858 13.1048 54.5869
v 12.6445 13.0571 50.3586
v 15.1739 13.2739 51.7156
v 12.7932 18.2018 56.0198
v 10.4392 21.9825 54.9604
v 15.1328 17.9011 51.8019
v 15.1694 17.8869 54.5918
v 12.7198 18.2302 50.44
v 10.2807 25.706 52.6135
v 10.356 21.9624 52.4761
v 14.6288 22.4703 52.3289
v 14.712 22.4904 54.8131
v 12.4508 22.2062 51.1604
v 12.6172 22.2465 56.1289
v 12.2422 27.7415 56.1297
v 9.45316 30.3835 55.0784
v 10.1865 27.7676 55.0267
v 12.5344 25.1667 56.2868
v 12.3961 25.4922 51.2843
v 15.0018 25.1239 52.9197
v 10.3499 25.5433 55.1148
v 15.0366 25.0871 55.4266
v 9.60345 33.2294 54.2366
v 10.7063 35.8879 53.2716
v 10.9938 33.1269 52.4732
v 14.1618 27.9176 55.8172
v 16.8185 28.2097 54.5509
v 16.4866 29.4576 54.9665
v 12.0923 27.8898 51.4157
v 10.4228 30.3658 52.6246
v 12.4173 30.6474 51.8397
v 10.1115 27.8417 52.6698
v 12.3303 30.6828 57.0752
v 14.025 27.9267 51.8005
v 14.0651 30.9467 52.7238
v 10.756 36.0752 55.0515
v 12.2873 40.7551 55.3413
v 10.8808 40.9033 54.5867
v 13.0571 33.4348 56.0895
v 13.8555 36.1111 54.9612
v 12.3306 36.1868 55.8963
v 13.9355 33.4352 52.9525
v 12.2312 35.8122 52.3365
v 13.8058 35.9238 53.1813
v 9.8922 33.6467 55.3031
v 9.75144 33.8013 57.6642
v 9.28962 34.8454 56.812
v 13.9952 33.5377 54.7887
v 12.3243 33.2298 52.0881
v 13.6348 40.5636 54.4946
v 12.793 44.9859 54.86
v 12.1694 40.6683 52.1387
v 10.8219 40.8598 52.9854
v 13.5759 40.5202 52.8933
v 11.6914 45.1019 54.269
v 12.7445 50.0748 54.245
v 12.0044 50.0197 53.8356
v 12.7007 44.9179 52.3518
v 13.8022 44.8019 52.9428
v 13.8483 44.8359 54.1969
v 11.6453 45.0679 53.0149
v 11.8737 53.8676 53.4007
v 11.9829 50.0719 52.9898
v 13.4632 50.1822 53.8086
v 12.7016 50.1792 52.5535
v 13.4418 50.2344 52.9628
v 12.7539 53.8168 53.8772
v 12.7398 53.8171 53.3763
v 12.3279 53.842 54.1398
v 11.8878 53.8674 53.9016
v 12.2997 53.8425 53.138
v 17.8251 29.8124 54.4078
v 17.5476 30.6814 54.708
v 16.4185 29.5427 52.3526
v 14.1348 30.9644 54.6162
v 15.4647 30.7316 53.3818
v 17.6536 30.6227 52.2989
v 17.8479 32.6639 53.0264
v 18.5174 33.1944 52.4881
v 16.931 31.2792 53.8769
v 16.83 31.1545 52.9194
v 16.557 28.3367 52.449
v 18.6876 33.2543 53.8371
v 17.8892 32.6149 53.8052
v 17.995 29.9466 52.5903
v 19.9202 32.6197 53.8266
v 20.4615 34.7791 53.1184
v 20.5912 34.8876 53.8496
v 19.7871 32.6499 52.866
v 15.6072 30.7075 54.3418
v 20.7565 38.5209 54.0801
v 19.559 35.1783 53.8479
v 19.4055 34.9518 52.8314
v 21.6318 38.6286 53.2823
v 22.2242 43.024 53.847
v 22.7542 43.1353 53.5711
v 20.5925 38.8493 53.1283
v 21.7716 38.3491 53.939
v 22.6676 42.8833 54.1893
v 23.0805 43.0164 53.7921
v 10.3227 31.2777 55.5695
v 11.8131 31.9447 57.2314
v 11.8129 36.0782 56.0356
v 10.9256 36.0157 55.5638
v 12.6135 33.7642 56.6188
v 8.98544 35.0893 59.2818
v 8.02135 37.1621 59.8993
v 8.76023 35.6763 58.3275
v 11.828 34.9685 58.1394
v 11.2217 35.9555 57.2297
v 10.8001 33.9815 58.1722
v 10.2662 35.8895 56.7314
v 10.8146 35.7563 59.3583
v 9.85315 35.2052 59.6398
v 10.4651 36.3074 58.3734
v 9.68879 36.2634 57.9922
v 9.67702 37.3041 59.9515
v 9.2092 38.7266 61.749
v 9.85208 36.6737 60.8109
v 8.98185 37.476 59.6137
v 8.87124 36.4027 61.0501
v 8.07818 36.532 60.7308
v 7.60791 38.8374 61.8538
v 7.19704 42.7166 62.227
v 7.52055 39.0209 60.9325
v 8.3386 38.7458 62.1133
v 9.01336 38.9163 60.8126
v 8.37178 39.0205 60.5148
v 7.66274 42.4956 62.9071
v 7.70143 45.4857 63.0224
v 7.40339 45.4434 63.1474
v 7.69642 42.723 61.9889
v 7.23943 42.5695 62.7558
v 8.06733 42.6413 62.1615
v 8.17281 42.4885 62.6994
v 7.40218 45.5212 62.5927
v 7.11172 45.4742 62.7363
v 7.6258 45.528 62.697
v 7.15015 45.4273 63.0564
vn -0.518 0.0932 -0.8503
vn 0.482 0.0957 -0.8709
vn 0.9979 0.0647 -0.0074
vn 0.5173 0.0149 0.8557
vn 0.4699 0.0335 -0.8821
vn -0.4717 0.009 0.8817
vn -0.9983 0.0511 0.0269
vn -0 -1 -0
vn -0.8581 0.5128 0.0268
vn -0.9846 0.1735 0.0225
vn -0.967 0.2529 0.0322
vn -0.4254 0.4364 0.7929
vn -0.4759 0.2328 0.8481
vn -0.4283 0.2794 0.8593
vn 0.4872 0.38 0.7863
vn 0.5083 0.2153 0.8338
vn 0.5392 0.2299 0.8102
vn 0.8881 0.4589 -0.0277
vn 0.9975 0.0625 -0.0322
vn 0.9667 0.242 -0.0832
vn 0.3941 0.5524 -0.7346
vn 0.4587 0.1372 -0.8779
vn 0.4796 0.1037 -0.8713
vn -0.4473 0.528 -0.7219
vn -0.5287 0.0335 -0.8481
vn -0.4696 0.1651 -0.8673
vn -0.476 0.0633 0.8772
vn -0.4692 0.0354 0.8824
vn -0.5291 0.0349 -0.8478
vn 0.9986 0.038 -0.0376
vn -0.9987 0.0359 0.0361
vn 0.5273 0.0382 0.8488
vn -0.9997 0.0198 0.0132
vn 0.9988 -0.0333 -0.0362
vn -0.5267 -0.0335 -0.8494
vn -0.9988 0.026 0.0405
vn 0.5356 0.0248 0.8441
vn 0.4668 -0.0559 -0.8826
vn -0.4973 -0.0673 0.8649
vn 0.5285 0.0199 0.8487
vn 0.4713 0.0206 -0.8817
vn -0.4898 0.0158 0.8717
vn 0.999 0.0243 -0.0375
vn -0.513 0.021 -0.8582
vn -0.9992 -0.0213 0.0336
vn 0.9944 0.1004 -0.0341
vn -0.4994 0.1216 -0.8578
vn -0.9999 0.0013 0.0132
vn 0.5319 0.0003 0.8468
vn 0.5015 0.1535 -0.8514
vn -0.469 -0.1487 0.8706
vn 0.5342 -0.0305 0.8448
vn 0.5395 0.11 -0.8348
vn -0.4789 -0.05 0.8765
vn 0.9926 -0.1204 -0.0155
vn -0.5337 0.023 -0.8454
vn -0.7787 0.0981 -0.6197
vn 0.4393 -0.1766 0.8808
vn -0.3823 0.1843 -0.9055
vn -0.9918 0.1229 0.0354
vn 0.1803 -0.3059 0.9348
vn 0.4193 0.2603 -0.8697
vn -0.4626 0.0968 0.8813
vn 0.5197 0.1956 0.8317
vn 0.4644 0.105 -0.8794
vn -0.9061 -0.4223 -0.0264
vn 0.9978 0.0564 -0.0338
vn -0.2829 0.0817 -0.9557
vn 0.535 0.0321 0.8442
vn 0.9984 0.0461 -0.0327
vn -0.5238 -0.0413 -0.8508
vn -0.999 0.0253 0.0361
vn 0.5398 0.1066 0.835
vn 0.4743 -0.0314 -0.8798
vn -0.4873 0.1074 0.8666
vn 0.4715 -0.0147 -0.8817
vn -0.4545 0.1541 0.8773
vn 0.998 -0.0523 -0.0353
vn -0.518 0.1073 -0.8486
vn -0.981 0.1917 0.0309
vn -0.9992 -0.0313 0.0234
vn 0.9969 0.069 -0.0386
vn -0.5284 0.0326 -0.8484
vn -0.9973 0.0674 0.0295
vn 0.5041 0.1084 0.8568
vn 0.4753 0.0348 -0.8791
vn 0.0583 0.9983 -0.0012
vn 0.5265 0.0819 0.8462
vn 0.4642 0.1908 -0.8649
vn -0.4772 -0.0295 0.8783
vn 0.981 0.192 -0.0275
vn -0.5259 0.0775 -0.847
vn 0.4183 -0.1743 0.8914
vn 0.866 -0.4996 -0.0194
vn 0.0234 0.292 -0.9561
vn 0.1588 0.9872 -0.0151
vn -0.7287 0.2904 -0.6202
vn -0.322 0.9426 -0.0888
vn -0.3789 0.3916 -0.8385
vn 0.8334 -0.5356 -0.1361
vn -0.6249 0.7764 0.082
vn 0.8041 -0.5936 0.0313
vn 0.1421 0.2603 0.955
vn -0.8295 0.5583 0.0148
vn -0.5478 0.4314 0.7168
vn 0.9515 -0.2802 -0.1272
vn 0.1638 -0.0599 -0.9847
vn 0.4085 -0.1795 -0.8949
vn 0.2797 -0.2704 -0.9212
vn -0.1091 0.7668 0.6325
vn 0.5083 -0.1607 -0.8461
vn 0.1533 0.0775 0.9851
vn -0.9964 -0.0797 0.0292
vn -0.5335 -0.0213 -0.8456
vn 0.2454 0.566 0.787
vn -0.4728 0.0001 0.8812
vn -0.0192 -0.0624 0.9979
vn 0.2667 0.0297 -0.9633
vn -0.0028 -0.0043 1
vn -0.8958 0.4344 0.0938
vn -0.4834 0.1754 -0.8576
vn 0.1461 -0.0023 -0.9893
vn 0.9406 -0.3177 -0.1198
vn -0.9552 0.2847 0.0808
vn 0.0742 0.9198 0.3853
vn 0.9136 -0.2659 -0.3077
vn -0.5899 0.0925 0.8021
vn 0.1241 -0.0791 0.9891
vn -0.6265 -0.3434 0.6997
vn -0.1562 0.9739 0.1648
vn -0.9317 0.3436 0.1178
vn 0.7328 -0.0955 0.6737
vn -0.9104 -0.412 -0.0386
vn -0.4339 -0.6316 0.6425
vn 0.9135 0.3626 0.1847
vn -0.0984 0.9937 0.0534
vn 0.6483 -0.029 0.7608
vn -0.8916 -0.448 -0.0658
vn 0.1885 0.3008 0.9349
vn -0.6558 0.2458 0.7138
vn 0.9978 0.0565 -0.0356
vn -0.7023 0.6315 -0.3284
vn 0.4597 0.105 -0.8818
vn 0.8063 -0.0011 0.5916
vn -0.7754 0.1264 -0.6187
vn -0.1402 -0.8058 0.5753
vn 0.4907 -0.4869 0.7226
vn 0.0656 0.9651 -0.2535
vn 0.706 0.6946 0.1381
vn -0.6607 0.5813 -0.4749
vn 0.9565 0.291 0.0186
vn -0.5626 0.5254 -0.6382
vn 0.8244 0.5232 0.2159
vn -0.3442 -0.7643 0.5454
vn 0.3412 -0.5859 0.735
vn 0.177 0.8696 -0.4609
vn -0.9911 -0.1119 0.0717
vn 0.3602 -0.3163 0.8776
vn 0.4701 0.5585 -0.6834
vn -0.9732 -0.2105 -0.093
vn -0.371 0.3543 -0.8584
vn -0.3473 -0.467 0.8132
vn 0.3912 -0.0405 0.9194
vn -0.4244 0.267 -0.8652
vn -0.3645 -0.2526 0.8963
vn 0.9517 0.2886 -0.1046
vn 0.3725 -0.1275 0.9192
vn 0.4384 0.4024 -0.8037
vn -0.0909 0.9862 0.1385
vn 0.4517 0.2291 -0.8623
vn -0.9924 -0.0513 0.1116
vn -0.4272 0.1476 -0.892
vn -0.3301 -0.1089 0.9376
vn 0.9752 0.1688 -0.1433
vn -0.5392 0.0682 -0.8394
vn 0.4607 0.114 -0.8802
vn 0.9956 0.0866 -0.035
vn 0.529 0.0256 0.8482
vn 0.4753 0.0293 -0.8793
vn -0.4736 0.0108 0.8807
vn -0.9985 0.0356 0.0415
vn -0.8846 0.4663 0.008
vn -0.9865 0.1604 0.0335
vn -0.9754 0.2138 0.0539
vn -0.4652 0.3666 0.8057
vn -0.4218 0.3069 0.8532
vn -0.4242 0.2635 0.8664
vn 0.4684 0.4073 0.784
vn 0.5356 0.2973 0.7904
vn 0.4821 0.3185 0.8162
vn 0.9021 0.4293 -0.0439
vn 0.9812 0.174 -0.083
vn 0.9922 0.1244 0.0028
vn 0.3829 0.4738 -0.793
vn 0.4793 0.0953 -0.8725
vn 0.4823 0.0997 -0.8703
vn -0.4507 0.5758 -0.6821
vn -0.481 0.1023 -0.8707
vn -0.5091 0.2396 -0.8267
vn -0.4666 0.0573 0.8826
vn -0.4755 0.0394 0.8788
vn -0.5357 0.0304 -0.8439
vn 0.9986 0.038 -0.0375
vn -0.9986 0.0331 0.0413
vn 0.5374 0.0459 0.842
vn -0.9992 0.0074 0.0394
vn 0.9987 -0.0314 -0.0408
vn -0.5369 -0.0391 -0.8427
vn -0.9989 0.0281 0.0363
vn 0.5284 0.021 0.8488
vn 0.4759 -0.0608 -0.8774
vn -0.4681 -0.0442 0.8825
vn 0.5162 0.0117 0.8564
vn 0.4922 0.0065 -0.8705
vn -0.4732 0.0066 0.8809
vn 0.9999 0.0091 -0.0131
vn -0.532 0.0098 -0.8467
vn -0.9993 -0.0262 0.0259
vn 0.9937 0.111 -0.0125
vn -0.5383 0.1495 -0.8294
vn -0.9993 0.0142 0.0334
vn 0.5161 0.0101 0.8565
vn 0.4464 0.1887 -0.8747
vn -0.5357 -0.2439 0.8084
vn 0.3071 -0.255 0.9169
vn 0.4685 0.0411 -0.8825
vn -0.4661 -0.0609 0.8826
vn 0.9907 -0.1321 -0.0321
vn -0.5305 0.0204 -0.8475
vn -0.9254 0.3788 -0.014
vn 0.4295 0.0081 0.903
vn -0.5351 0.0509 -0.8432
vn -0.9021 -0.2459 -0.3547
vn 0.7693 0.2402 0.592
vn 0.1913 0.1271 -0.9733
vn -0.4759 0.1016 0.8736
vn 0.8109 0.0048 0.5851
vn 0.4603 0.1014 -0.882
vn -0.9819 -0.1837 -0.0465
vn 0.9978 0.0553 -0.0355
vn -0.5063 0.1905 -0.8411
vn 0.9981 0.0475 -0.038
vn -0.5354 -0.0361 -0.8439
vn -0.9993 0.0282 0.0249
vn 0.5234 0.1144 0.8443
vn 0.4701 -0.03 -0.8821
vn -0.4619 0.1021 0.881
vn -0.9991 -0.0308 0.0281
vn 0.9976 0.0663 -0.0212
vn -0.5221 0.0309 -0.8523
vn -0.9972 0.0665 0.0349
vn 0.5395 0.0996 0.8361
vn 0.4818 0.0335 -0.8756
vn 0.0582 0.9983 -0.0012
vn 0.5081 0.083 0.8573
vn 0.4759 0.1893 -0.8589
vn -0.4821 -0.0289 0.8756
vn 0.981 0.1937 -0.0129
vn -0.5199 0.0771 -0.8507
vn 0.4198 -0.1844 0.8887
vn 0.8836 -0.4478 -0.137
vn 0.3687 0.7596 -0.5358
vn 0.1718 0.9851 -0.0007
vn -0.4158 0.3402 -0.8434
vn -0.3719 0.9249 0.0785
vn -0.4019 0.3934 -0.8269
vn 0.7448 -0.667 0.0204
vn -0.6004 0.7987 0.0403
vn 0.8323 -0.5383 -0.1322
vn 0.4545 -0.1577 0.8767
vn -0.808 0.5838 0.0796
vn -0.3888 0.4453 0.8066
vn 0.9486 -0.2838 -0.1403
vn 0.2155 -0.2928 -0.9316
vn 0.2764 -0.0221 -0.9608
vn 0.2551 -0.0479 -0.9657
vn -0.1698 0.3424 0.9241
vn 0.1932 0.0781 -0.978
vn 0.3241 -0.0303 0.9455
vn -0.9971 -0.0723 0.0228
vn -0.5345 -0.0201 -0.8449
vn 0.0964 0.3658 0.9257
vn -0.4727 0.0001 0.8812
vn 0.126 -0.0685 0.9897
vn 0.2989 0.0352 -0.9536
vn 0.0029 -0.011 0.9999
vn -0.9101 0.4119 0.0457
vn 0.1673 0.1034 -0.9805
vn 0.2613 -0.0061 -0.9652
vn 0.914 -0.2648 -0.3073
vn -0.9137 0.309 0.264
vn 0.0023 0.9259 0.3778
vn 0.5386 -0.0804 -0.8387
vn -0.8812 0.379 0.2826
vn 0.7114 -0.1781 0.6799
vn -0.5744 0.1134 0.8107
vn -0.1589 0.973 0.1676
vn -0.8778 0.3465 0.3308
vn 0.5762 0.1364 0.8058
vn -0.9089 -0.36 -0.2107
vn -0.2989 -0.5186 0.801
vn 0.5999 0.7095 0.3699
vn -0.0963 0.9939 0.053
vn 0.5196 -0.5185 0.6791
vn -0.8915 -0.4482 -0.0653
vn 0.8131 0.2515 0.525
vn -0.9415 -0.1364 0.3083
vn -0.3692 0.0254 -0.929
vn 0.9978 0.0554 -0.0373
vn -0.7171 0.3773 -0.5861
vn 0.4559 0.1015 -0.8842
vn -0.9285 -0.0594 -0.3665
vn -0.1333 -0.8018 0.5825
vn 0.4906 -0.4869 0.7226
vn 0.07 0.9647 -0.254
vn 0.6993 0.6669 0.2574
vn -0.5806 0.6112 -0.5379
vn 0.8995 0.4248 -0.1021
vn -0.3994 0.5651 -0.7219
vn 0.8121 0.5824 0.0377
vn -0.1347 -0.7996 0.5852
vn 0.5057 -0.5376 0.6747
vn 0.407 0.8077 -0.4266
vn -0.9927 -0.1099 0.049
vn 0.3061 -0.3147 0.8985
vn 0.4194 0.5753 -0.7022
vn -0.9738 -0.2221 0.0481
vn -0.4116 0.3555 -0.8391
vn -0.3956 -0.4525 0.7992
vn 0.3763 -0.0406 0.9256
vn -0.4175 0.2676 -0.8684
vn -0.3517 -0.2541 0.9009
vn 0.9466 0.2908 -0.1391
vn 0.3805 -0.1266 0.9161
vn 0.4576 0.3997 -0.7943
vn -0.1191 0.9802 0.158
vn -0.0785 0.9861 0.1464
vn -0.0945 0.9858 0.1384
vn 0.4053 0.2334 -0.8839
vn -0.9969 -0.0384 0.0692
vn -0.4575 0.1478 -0.8769
vn -0.3512 -0.1067 0.9302
vn 0.9624 0.1843 -0.1997
vt 0.34402 0.176676
vt 0.281812 0.140432
vt 0.332767 0.125021
vt 0.178675 0.138461
vt 0.118214 0.187483
vt 0.129802 0.118765
vt 0.070576 0.179848
vt 0.07828 0.103625
vt 0.023246 0.171083
vt 0.024568 0.102626
vt 0.166222 0.192053
vt 0.110619 0.251604
vt 0.439863 0.171706
vt 0.385497 0.10958
vt 0.439015 0.102741
vt 0.391669 0.169063
vt 0.615163 0.78427
vt 0.564939 0.871261
vt 0.514715 0.78427
vt 0.38032 0.000162
vt 0.315341 0.037836
vt 0.306314 0.009714
vt 0.384402 0.07779
vt 0.383659 0.03
vt 0.322572 0.08646
vt 0.460259 0.003584
vt 0.451066 0.036904
vt 0.447356 0.072984
vt 0.076567 0.038209
vt 0.000162 0.005206
vt 0.080227 0.000162
vt 0.018747 0.073069
vt 0.008251 0.038725
vt 0.081024 0.064096
vt 0.14573 0.045237
vt 0.155363 0.008931
vt 0.139828 0.07173
vt 0.212541 0.062053
vt 0.230791 0.034581
vt 0.198076 0.096225
vt 0.251108 0.062443
vt 0.231115 0.036299
vt 0.265521 0.097195
vt 0.397967 0.259021
vt 0.44529 0.340473
vt 0.399687 0.337945
vt 0.442443 0.252619
vt 0.298116 0.19195
vt 0.353133 0.262014
vt 0.308011 0.261295
vt 0.065374 0.248188
vt 0.020286 0.250691
vt 0.354427 0.343071
vt 0.401336 0.43452
vt 0.357191 0.435457
vt 0.061195 0.346746
vt 0.309594 0.351833
vt 0.016472 0.338021
vt 0.15519 0.260718
vt 0.106043 0.352614
vt 0.445086 0.428374
vt 0.405491 0.489817
vt 0.013398 0.427674
vt 0.151656 0.352136
vt 0.100932 0.424483
vt 0.057022 0.422892
vt 0.313092 0.432735
vt 0.368654 0.549302
vt 0.365888 0.489627
vt 0.093032 0.496932
vt 0.051789 0.49656
vt 0.326519 0.494856
vt 0.011805 0.492416
vt 0.143709 0.433953
vt 0.444933 0.578739
vt 0.406305 0.626571
vt 0.408011 0.583283
vt 0.005369 0.539505
vt 0.130861 0.548563
vt 0.083485 0.538748
vt 0.447112 0.538349
vt 0.408289 0.546884
vt 0.045996 0.538826
vt 0.329019 0.545979
vt 0.391847 0.670507
vt 0.364334 0.711547
vt 0.356928 0.665654
vt 0.896012 0.026245
vt 0.911232 0.103761
vt 0.872207 0.101555
vt 0.333285 0.583381
vt 0.365801 0.622474
vt 0.331979 0.627178
vt 0.370141 0.582891
vt 0.036355 0.584022
vt 0.006742 0.631528
vt 0.005192 0.582608
vt 0.100294 0.585195
vt 0.116563 0.631447
vt 0.086081 0.632749
vt 0.391034 0.723395
vt 0.37954 0.803327
vt 0.35661 0.793287
vt 0.028361 0.673874
vt 0.051761 0.715473
vt 0.023681 0.718959
vt 0.082707 0.67241
vt 0.108208 0.711766
vt 0.07995 0.712416
vt 0.665908 0.926802
vt 0.65138 0.864716
vt 0.688958 0.875238
vt 0.053761 0.674439
vt 0.336391 0.703999
vt 0.334842 0.666606
vt 0.058677 0.786643
vt 0.045958 0.858525
vt 0.033531 0.791095
vt 0.310443 0.774336
vt 0.333524 0.784095
vt 0.084276 0.785625
vt 0.328187 0.855042
vt 0.308596 0.932528
vt 0.296424 0.92689
vt 0.104868 0.854723
vt 0.085061 0.853268
vt 0.346641 0.862798
vt 0.065336 0.854485
vt 0.309481 0.847632
vt 0.290843 0.840491
vt 0.269831 0.982527
vt 0.283449 0.92337
vt 0.075399 0.938804
vt 0.270146 0.921323
vt 0.061952 0.939708
vt 0.088822 0.938645
vt 0.55437 0.678071
vt 0.55437 0.663904
vt 0.578908 0.663904
vt 0.080722 0.997346
vt 0.073178 0.999838
vt 0.102218 0.938459
vt 0.088674 0.996503
vt 0.28496 0.986996
vt 0.277305 0.985081
vt 0.262404 0.979805
vt 0.876746 0.138512
vt 0.850607 0.142534
vt 0.631268 0.024809
vt 0.650469 0.129393
vt 0.573884 0.061608
vt 0.783294 0.053103
vt 0.736691 0.107585
vt 0.713147 0.027226
vt 0.819306 0.053757
vt 0.792792 0.095174
vt 0.751215 0.152391
vt 0.797146 0.19241
vt 0.788029 0.219239
vt 0.81553 0.140483
vt 0.783963 0.139647
vt 0.700935 0.098281
vt 0.680213 0.168777
vt 0.825001 0.219188
vt 0.817995 0.190073
vt 0.728177 0.151191
vt 0.729036 0.245165
vt 0.863406 0.222971
vt 0.770992 0.28997
vt 0.752642 0.300173
vt 0.752786 0.233888
vt 0.825724 0.094711
vt 0.857501 0.281164
vt 0.847315 0.378447
vt 0.828416 0.281185
vt 0.79952 0.276669
vt 0.794169 0.398684
vt 0.849541 0.509665
vt 0.836686 0.520529
vt 0.821523 0.388318
vt 0.774181 0.398525
vt 0.565915 0.687229
vt 0.55437 0.702361
vt 0.55437 0.685731
vt 0.825725 0.523684
vt 0.865559 0.508291
vt 0.875802 0.379823
vt 0.421288 0.640742
vt 0.460259 0.626426
vt 0.458187 0.648018
vt 0.413474 0.731811
vt 0.400127 0.723128
vt 0.406452 0.681636
vt 0.000162 0.652082
vt 0.01747 0.679399
vt 0.673511 0.814066
vt 0.710845 0.764868
vt 0.70198 0.827722
vt 0.864223 0.941335
vt 0.870065 0.865598
vt 0.928105 0.937077
vt 0.751601 0.922369
vt 0.798851 0.880921
vt 0.810919 0.935824
vt 0.729871 0.919035
vt 0.758861 0.884691
vt 0.838874 0.87675
vt 0.014993 0.718846
vt 0.055584 0.63303
vt 0.727477 0.883161
vt 0.11184 0.671593
vt 0.847241 0.814182
vt 0.792013 0.832976
vt 0.821893 0.820681
vt 0.75835 0.842176
vt 0.732579 0.840491
vt 0.762003 0.77986
vt 0.78286 0.714876
vt 0.79298 0.77808
vt 0.739469 0.774725
vt 0.819437 0.766959
vt 0.841751 0.758466
vt 0.689718 0.697057
vt 0.728933 0.597135
vt 0.714482 0.705343
vt 0.805338 0.701416
vt 0.757151 0.720617
vt 0.681818 0.761306
vt 0.738123 0.716763
vt 0.825118 0.693033
vt 0.78489 0.599265
vt 0.763856 0.520989
vt 0.772767 0.51978
vt 0.743621 0.601654
vt 0.796458 0.594329
vt 0.754825 0.604425
vt 0.770635 0.604764
vt 0.55437 0.71432
vt 0.556611 0.705342
vt 0.56981 0.710791
vt 0.754728 0.521241
vt 0.730388 0.518534
vt 0.739161 0.520088
vt 0.748044 0.521025
vt 0.780156 0.518765
vt 0.564939 0.755273
vt 0.615163 0.842264
vt 0.514715 0.842264
vt 0.444955 0.492482
vt 0.133157 0.496768
vt 0.977496 0.024809
vt 0.131004 0.588487
vt 0.415298 0.739732
vt 0.600678 0.941335
vt 0.109763 0.787453
vt 0.566639 0.65682
vt 0.578908 0.678071
vt 0.566639 0.685154
vt 0.09653 0.997729
vt 0.570638 0.70375
vt 0.880468 0.514681
vt 0.713807 0.595057
vt 0.565762 0.704328
vt 0.568136 0.719856
vt 0.558617 0.719856
usemtl 
f 1/1/1 2/2/1 3/3/1
f 2/4/2 4/5/2 5/6/2
f 5/6/3 6/7/3 7/8/3
f 7/8/4 8/9/4 9/10/4
f 10/11/5 11/12/5 4/5/5
f 8/13/6 12/14/6 9/15/6
f 13/16/7 3/3/7 12/14/7
f 14/17/8 15/18/8 16/19/8
f 16/20/9 17/21/9 18/22/9
f 19/23/10 17/21/10 20/24/10
f 12/14/11 21/25/11 19/23/11
f 22/26/12 20/24/12 16/20/12
f 23/27/13 19/23/13 20/24/13
f 9/15/14 19/23/14 24/28/14
f 25/29/15 22/30/15 15/31/15
f 25/29/16 24/32/16 23/33/16
f 7/8/17 24/32/17 26/34/17
f 27/35/18 15/31/18 28/36/18
f 27/35/19 26/34/19 25/29/19
f 29/37/20 7/8/20 26/34/20
f 30/38/21 28/36/21 14/39/21
f 30/38/22 29/37/22 27/35/22
f 31/40/23 5/6/23 29/37/23
f 18/22/24 30/41/24 14/42/24
f 21/25/25 30/41/25 17/21/25
f 21/25/26 2/2/26 31/43/26
f 32/44/27 33/45/27 34/46/27
f 13/16/28 35/47/28 32/44/28
f 10/48/29 36/49/29 37/50/29
f 4/5/30 38/51/30 6/7/30
f 1/1/31 32/44/31 36/49/31
f 6/7/32 35/52/32 8/9/32
f 39/53/33 40/54/33 41/55/33
f 11/12/34 42/56/34 38/51/34
f 37/50/35 39/53/35 43/57/35
f 36/49/36 34/46/36 39/53/36
f 38/51/37 33/58/37 35/52/37
f 37/59/38 44/60/38 11/12/38
f 45/61/39 46/62/39 40/54/39
f 42/56/40 45/63/40 33/58/40
f 43/64/41 47/65/41 44/60/41
f 34/46/42 45/61/42 40/54/42
f 44/60/43 48/66/43 42/56/43
f 43/57/44 41/55/44 49/67/44
f 46/62/45 50/68/45 51/69/45
f 48/66/46 52/70/46 53/71/46
f 41/55/47 54/72/47 49/67/47
f 40/54/48 51/69/48 41/55/48
f 45/63/49 53/71/49 55/73/49
f 49/74/50 52/70/50 47/65/50
f 56/75/51 57/76/51 58/77/51
f 53/71/52 59/78/52 55/73/52
f 52/70/53 60/79/53 61/80/53
f 46/62/54 59/81/54 62/82/54
f 53/71/55 61/80/55 63/83/55
f 51/69/56 60/84/56 54/72/56
f 64/85/57 65/86/57 66/87/57
f 67/88/58 68/89/58 69/90/58
f 70/91/59 71/92/59 72/93/59
f 58/77/60 71/92/60 73/94/60
f 67/95/61 74/96/61 56/97/61
f 75/98/62 72/99/62 76/100/62
f 77/101/63 78/102/63 79/103/63
f 80/104/64 81/105/64 82/106/64
f 83/107/65 84/108/65 85/109/65
f 86/110/66 87/111/66 88/112/66
f 89/113/67 85/109/67 81/105/67
f 66/87/68 84/114/68 90/115/68
f 91/116/69 92/117/69 78/118/69
f 85/109/70 91/116/70 81/105/70
f 65/86/71 93/119/71 84/114/71
f 65/86/72 79/103/72 94/120/72
f 82/106/73 91/116/73 78/118/73
f 84/108/74 95/121/74 85/109/74
f 96/122/75 97/123/75 98/124/75
f 95/121/76 99/125/76 100/126/76
f 79/103/77 92/127/77 96/122/77
f 95/121/78 101/128/78 91/116/78
f 93/119/79 102/129/79 99/130/79
f 94/120/80 96/122/80 102/129/80
f 98/124/81 103/131/81 104/132/81
f 100/126/82 105/133/82 101/128/82
f 102/129/83 106/134/83 99/130/83
f 102/129/84 98/124/84 104/132/84
f 92/117/85 105/133/85 97/135/85
f 99/125/86 107/136/86 100/126/86
f 108/137/87 109/138/87 103/139/87
f 97/135/88 108/140/88 110/141/88
f 106/142/89 109/143/89 107/136/89
f 98/124/90 110/144/90 111/145/90
f 105/133/91 109/143/91 108/140/91
f 104/132/92 112/146/92 106/134/92
f 69/90/93 113/147/93 114/148/93
f 61/149/94 68/150/94 63/151/94
f 76/152/95 115/153/95 75/154/95
f 116/155/96 117/156/96 76/152/96
f 118/157/97 119/158/97 120/159/97
f 117/156/98 121/160/98 122/161/98
f 115/153/99 122/161/99 118/157/99
f 123/162/100 113/163/100 68/150/100
f 124/164/101 119/158/101 125/165/101
f 126/166/102 127/167/102 113/163/102
f 114/148/103 127/168/103 124/164/103
f 121/160/104 119/158/104 122/161/104
f 114/148/105 125/165/105 121/160/105
f 127/167/106 128/169/106 129/170/106
f 115/153/107 126/166/107 123/162/107
f 118/157/108 130/171/108 126/166/108
f 75/154/109 123/162/109 61/149/109
f 131/172/110 114/148/110 121/160/110
f 60/79/111 75/98/111 61/80/111
f 59/78/112 67/95/112 56/97/112
f 50/68/113 58/77/113 73/94/113
f 50/68/114 70/91/114 60/84/114
f 116/155/115 69/90/115 131/172/115
f 62/82/116 56/75/116 58/77/116
f 129/173/117 132/174/117 133/175/117
f 130/171/118 134/176/118 128/169/118
f 124/164/119 129/173/119 133/175/119
f 124/164/120 134/176/120 120/159/120
f 135/177/121 136/178/121 137/179/121
f 128/169/122 138/180/122 135/177/122
f 128/169/123 139/181/123 129/170/123
f 133/175/124 138/180/124 134/176/124
f 137/182/125 140/183/125 141/184/125
f 135/177/126 141/185/126 139/181/126
f 138/180/127 140/186/127 136/178/127
f 139/187/128 140/186/128 132/174/128
f 142/188/129 74/189/129 143/190/129
f 144/191/130 77/101/130 145/192/130
f 86/193/131 77/101/131 64/85/131
f 143/194/132 80/104/132 146/195/132
f 147/196/133 148/197/133 149/198/133
f 143/199/134 87/200/134 142/201/134
f 144/202/135 150/203/135 146/204/135
f 145/205/136 151/206/136 144/202/136
f 146/204/137 152/207/137 143/199/137
f 87/111/138 149/198/138 88/112/138
f 146/195/139 82/106/139 144/208/139
f 142/188/140 64/85/140 57/76/140
f 72/93/68 66/87/68 90/115/68
f 116/209/141 83/107/141 89/113/141
f 145/205/142 88/112/142 153/210/142
f 76/100/143 90/211/143 83/107/143
f 116/209/144 80/104/144 74/96/144
f 71/92/145 64/85/145 66/87/145
f 152/207/146 147/212/146 87/200/146
f 152/207/147 154/213/147 155/214/147
f 153/210/148 156/215/148 151/206/148
f 150/203/149 156/215/149 154/213/149
f 88/112/150 157/216/150 153/210/150
f 158/217/151 159/218/151 160/219/151
f 149/198/152 161/220/152 157/216/152
f 154/213/153 158/217/153 160/219/153
f 147/212/154 162/221/154 163/222/154
f 155/214/155 160/219/155 162/221/155
f 157/216/156 158/217/156 156/215/156
f 164/223/157 165/224/157 166/225/157
f 162/221/158 159/218/158 167/226/158
f 161/220/159 168/227/159 158/217/159
f 163/228/160 166/225/160 148/197/160
f 148/197/161 169/229/161 161/220/161
f 163/222/162 167/226/162 164/230/162
f 170/231/163 171/232/163 172/233/163
f 166/225/164 173/234/164 169/229/164
f 164/230/165 170/231/165 174/235/165
f 159/218/166 175/236/166 176/237/166
f 167/226/167 176/237/167 170/231/167
f 169/229/168 175/236/168 168/227/168
f 177/238/169 178/239/169 172/240/169
f 173/234/170 179/241/170 175/236/170
f 165/224/171 180/242/171 178/243/171
f 165/224/172 177/244/172 173/234/172
f 174/235/173 172/233/173 180/245/173
f 175/236/174 171/232/174 176/237/174
f 1/1/175 10/48/175 2/2/175
f 2/4/176 10/11/176 4/5/176
f 5/6/177 4/5/177 6/7/177
f 7/8/178 6/7/178 8/9/178
f 10/11/179 37/59/179 11/12/179
f 8/13/180 13/16/180 12/14/180
f 13/16/181 1/1/181 3/3/181
f 16/19/8 18/246/8 14/17/8
f 14/17/8 28/247/8 15/18/8
f 15/18/8 22/248/8 16/19/8
f 16/20/182 20/24/182 17/21/182
f 19/23/183 21/25/183 17/21/183
f 12/14/184 3/3/184 21/25/184
f 22/26/185 23/27/185 20/24/185
f 23/27/186 24/28/186 19/23/186
f 9/15/187 12/14/187 19/23/187
f 25/29/188 23/33/188 22/30/188
f 25/29/189 26/34/189 24/32/189
f 7/8/190 9/10/190 24/32/190
f 27/35/191 25/29/191 15/31/191
f 27/35/192 29/37/192 26/34/192
f 29/37/193 5/6/193 7/8/193
f 30/38/194 27/35/194 28/36/194
f 30/38/195 31/40/195 29/37/195
f 31/40/196 2/4/196 5/6/196
f 18/22/197 17/21/197 30/41/197
f 21/25/198 31/43/198 30/41/198
f 21/25/199 3/3/199 2/2/199
f 32/44/200 35/47/200 33/45/200
f 13/16/201 8/13/201 35/47/201
f 10/48/202 1/1/202 36/49/202
f 4/5/203 11/12/203 38/51/203
f 1/1/204 13/16/204 32/44/204
f 6/7/205 38/51/205 35/52/205
f 39/53/206 34/46/206 40/54/206
f 11/12/207 44/60/207 42/56/207
f 37/50/208 36/49/208 39/53/208
f 36/49/209 32/44/209 34/46/209
f 38/51/210 42/56/210 33/58/210
f 37/59/211 43/64/211 44/60/211
f 45/61/212 55/249/212 46/62/212
f 42/56/213 48/66/213 45/63/213
f 43/64/214 49/74/214 47/65/214
f 34/46/215 33/45/215 45/61/215
f 44/60/216 47/65/216 48/66/216
f 43/57/217 39/53/217 41/55/217
f 46/62/218 62/82/218 50/68/218
f 48/66/219 47/65/219 52/70/219
f 41/55/220 51/69/220 54/72/220
f 40/54/221 46/62/221 51/69/221
f 45/63/222 48/66/222 53/71/222
f 49/74/223 54/250/223 52/70/223
f 56/75/224 74/189/224 57/76/224
f 53/71/225 63/83/225 59/78/225
f 52/70/226 54/250/226 60/79/226
f 46/62/227 55/249/227 59/81/227
f 53/71/228 52/70/228 61/80/228
f 51/69/229 50/68/229 60/84/229
f 64/85/230 77/101/230 65/86/230
f 67/88/231 63/251/231 68/89/231
f 70/91/232 73/94/232 71/92/232
f 58/77/233 57/76/233 71/92/233
f 67/95/234 116/209/234 74/96/234
f 75/98/235 70/252/235 72/99/235
f 77/101/236 82/253/236 78/102/236
f 80/104/237 89/113/237 81/105/237
f 83/107/238 90/211/238 84/108/238
f 86/110/239 142/254/239 87/111/239
f 89/113/240 83/107/240 85/109/240
f 66/87/241 65/86/241 84/114/241
f 91/116/69 101/128/69 92/117/69
f 85/109/242 95/121/242 91/116/242
f 65/86/243 94/120/243 93/119/243
f 65/86/244 77/101/244 79/103/244
f 82/106/245 81/105/245 91/116/245
f 84/108/246 93/255/246 95/121/246
f 96/122/247 92/127/247 97/123/247
f 95/121/76 93/255/76 99/125/76
f 79/103/77 78/102/77 92/127/77
f 95/121/78 100/126/78 101/128/78
f 93/119/79 94/120/79 102/129/79
f 94/120/80 79/103/80 96/122/80
f 98/124/248 111/145/248 103/131/248
f 100/126/249 107/136/249 105/133/249
f 102/129/250 104/132/250 106/134/250
f 102/129/251 96/122/251 98/124/251
f 92/117/252 101/128/252 105/133/252
f 99/125/253 106/142/253 107/136/253
f 109/138/87 112/256/87 103/139/87
f 103/139/254 111/257/254 110/258/254
f 110/258/254 108/137/254 103/139/254
f 97/135/255 105/133/255 108/140/255
f 106/142/256 112/259/256 109/143/256
f 98/124/257 97/123/257 110/144/257
f 105/133/258 107/136/258 109/143/258
f 104/132/259 103/131/259 112/146/259
f 69/90/260 68/89/260 113/147/260
f 61/149/261 123/162/261 68/150/261
f 76/152/262 117/156/262 115/153/262
f 116/155/263 131/172/263 117/156/263
f 118/157/264 122/161/264 119/158/264
f 117/156/265 131/172/265 121/160/265
f 115/153/266 117/156/266 122/161/266
f 123/162/267 126/166/267 113/163/267
f 124/164/268 120/159/268 119/158/268
f 126/166/269 130/171/269 127/167/269
f 114/148/270 113/147/270 127/168/270
f 121/160/271 125/165/271 119/158/271
f 114/148/272 124/164/272 125/165/272
f 127/167/273 130/171/273 128/169/273
f 115/153/274 118/157/274 126/166/274
f 118/157/275 120/159/275 130/171/275
f 75/154/276 115/153/276 123/162/276
f 131/172/277 69/90/277 114/148/277
f 60/79/278 70/252/278 75/98/278
f 59/78/279 63/83/279 67/95/279
f 50/68/280 62/82/280 58/77/280
f 50/68/281 73/94/281 70/91/281
f 116/155/282 67/88/282 69/90/282
f 62/82/283 59/81/283 56/75/283
f 129/173/284 139/187/284 132/174/284
f 130/171/285 120/159/285 134/176/285
f 124/164/286 127/168/286 129/173/286
f 124/164/287 133/175/287 134/176/287
f 135/177/288 138/180/288 136/178/288
f 128/169/289 134/176/289 138/180/289
f 128/169/290 135/177/290 139/181/290
f 133/175/291 132/174/291 138/180/291
f 137/182/292 136/260/292 140/183/292
f 135/177/293 137/179/293 141/185/293
f 138/180/294 132/174/294 140/186/294
f 139/187/295 141/261/295 140/186/295
f 142/188/296 57/76/296 74/189/296
f 144/191/297 82/253/297 77/101/297
f 86/193/298 145/192/298 77/101/298
f 143/194/299 74/96/299 80/104/299
f 147/196/300 163/228/300 148/197/300
f 143/199/301 152/207/301 87/200/301
f 144/202/302 151/206/302 150/203/302
f 145/205/303 153/210/303 151/206/303
f 146/204/304 150/203/304 152/207/304
f 87/111/305 147/196/305 149/198/305
f 146/195/306 80/104/306 82/106/306
f 142/188/307 86/193/307 64/85/307
f 72/93/308 71/92/308 66/87/308
f 116/209/309 76/100/309 83/107/309
f 145/205/310 86/110/310 88/112/310
f 76/100/311 72/99/311 90/211/311
f 116/209/237 89/113/237 80/104/237
f 71/92/312 57/76/312 64/85/312
f 152/207/313 155/214/313 147/212/313
f 152/207/314 150/203/314 154/213/314
f 153/210/315 157/216/315 156/215/315
f 150/203/316 151/206/316 156/215/316
f 88/112/317 149/198/317 157/216/317
f 158/217/318 168/227/318 159/218/318
f 149/198/319 148/197/319 161/220/319
f 154/213/320 156/215/320 158/217/320
f 147/212/321 155/214/321 162/221/321
f 155/214/322 154/213/322 160/219/322
f 157/216/323 161/220/323 158/217/323
f 164/223/324 174/262/324 165/224/324
f 162/221/325 160/219/325 159/218/325
f 161/220/326 169/229/326 168/227/326
f 163/228/327 164/223/327 166/225/327
f 148/197/328 166/225/328 169/229/328
f 163/222/329 162/221/329 167/226/329
f 170/231/330 176/237/330 171/232/330
f 166/225/331 165/224/331 173/234/331
f 164/230/332 167/226/332 170/231/332
f 159/218/333 168/227/333 175/236/333
f 167/226/334 159/218/334 176/237/334
f 169/229/335 173/234/335 175/236/335
f 178/239/336 180/263/336 172/240/336
f 172/240/337 171/264/337 179/265/337
f 179/265/338 177/238/338 172/240/338
f 173/234/339 177/244/339 179/241/339
f 165/224/340 174/262/340 180/242/340
f 165/224/341 178/243/341 177/244/341
f 174/235/342 170/231/342 172/233/342
f 175/236/343 179/241/343 171/232/343
s off
