# Apple ModelIO OBJ File: Leaf_1
mtllib Leaf_1.mtl
g Leaf_1
v -33.9264 65.5632 32.5493
v -33.9264 66.4012 37.3019
v -30.8715 65.5632 33.6612
v -33.9264 63.1502 28.3699
v -28.185 63.1502 30.4596
v -26.1911 59.4533 28.0833
v -33.9264 59.4533 25.2679
v -25.1301 54.9185 26.8189
v -33.9264 54.9185 23.6173
v -22.0752 59.4533 35.2122
v -20.4497 54.9185 34.9256
v -29.246 65.5632 36.4766
v -25.1301 63.1502 35.7508
v -23.5046 59.4533 43.3189
v -22.0752 54.9185 44.1441
v -29.8105 65.5632 39.6782
v -26.1911 63.1502 41.7678
v -30.8715 63.1502 45.6952
v -29.8105 59.4533 48.6101
v -29.246 54.9185 50.1611
v -32.3009 65.5632 41.7678
v -38.0422 59.4533 48.6101
v -38.6068 54.9185 50.1611
v -35.5519 65.5632 41.7678
v -36.9813 63.1502 45.6952
v -38.0423 65.5632 39.6782
v -41.6617 63.1502 41.7678
v -44.3481 59.4533 43.3189
v -45.7776 54.9185 44.1441
v -42.7226 63.1502 35.7508
v -45.7776 59.4533 35.2122
v -47.403 54.9185 34.9256
v -38.6068 65.5632 36.4766
v -42.7226 54.9185 26.8189
v -36.9813 65.5632 33.6612
v -21.8793 52.4927 44.2572
v -33.9264 52.4927 23.3911
v -39.6677 63.1502 30.4596
v -29.1686 52.4927 50.3737
v -45.9734 52.4927 44.2572
v -41.6617 59.4533 28.0833
v -38.6841 52.4927 50.3737
v -20.227 52.4927 34.8863
v -42.868 52.4927 26.6456
v -24.9847 52.4927 26.6456
v -47.6258 52.4927 34.8863
vn 0.0631 0.9828 -0.1733
vn 0.179 0.852 -0.4919
vn 0.2686 0.6192 -0.7379
vn 0.3236 0.3236 -0.8891
vn 0.6801 0.6192 -0.3926
vn 0.8194 0.3236 -0.4731
vn 0.1597 0.9828 -0.0922
vn 0.4534 0.852 -0.2617
vn 0.9318 0.3236 0.1643
vn 0.1816 0.9828 0.032
vn 0.5155 0.852 0.0909
vn 0.7733 0.6192 0.1364
vn 0.3365 0.852 0.401
vn 0.5048 0.6192 0.6015
vn 0.6082 0.3236 0.7248
vn 0.1185 0.9828 0.1413
vn -0 0.6192 0.7853
vn -0 0.3236 0.9462
vn -0 0.9828 0.1844
vn -0 0.852 0.5235
vn -0.1185 0.9828 0.1413
vn -0.3365 0.852 0.401
vn -0.5048 0.6192 0.6015
vn -0.6082 0.3236 0.7248
vn -0.7733 0.6192 0.1364
vn -0.9318 0.3236 0.1643
vn -0.1816 0.9828 0.032
vn -0.5155 0.852 0.0909
vn -0.8194 0.3236 -0.4731
vn -0.1597 0.9828 -0.0922
vn 0.6403 0.0873 0.7631
vn 0.3407 0.0873 -0.9361
vn -0.4534 0.852 -0.2617
vn -0 0.0873 0.9962
vn -0.981 0.0873 0.173
vn -0.6801 0.6192 -0.3926
vn -0.6403 0.0873 0.7631
vn -0.179 0.852 -0.4919
vn -0 -1 -0
vn 0.981 0.0873 0.173
vn -0.2686 0.6192 -0.7379
vn 0.8627 0.0873 -0.4981
vn -0.3236 0.3236 -0.8891
vn -0.0631 0.9828 -0.1733
vn -0.3407 0.0873 -0.9361
vn -0.8627 0.0873 -0.4981
vt 0.666667 0.888889
vt 0.611111 1
vt 0.555556 0.888889
vt 0.666667 0.777778
vt 0.555556 0.777778
vt 0.555556 0.666667
vt 0.666667 0.666667
vt 0.555556 0.555556
vt 0.666667 0.555556
vt 0.444444 0.666667
vt 0.444444 0.555556
vt 0.5 1
vt 0.444444 0.888889
vt 0.444444 0.777778
vt 0.333333 0.666667
vt 0.333333 0.555556
vt 0.388889 1
vt 0.333333 0.888889
vt 0.333333 0.777778
vt 0.222222 0.777778
vt 0.222222 0.666667
vt 0.222222 0.555556
vt 0.277778 1
vt 0.222222 0.888889
vt 0.111111 0.666667
vt 0.111111 0.555556
vt 0.166667 1
vt 0.111111 0.888889
vt 0.111111 0.777778
vt 0.055556 1
vt 0 0.888889
vt 0 0.777778
vt 0 0.666667
vt 0 0.555556
vt 1 0.666667
vt 0.888889 0.777778
vt 0.888889 0.666667
vt 0.888889 0.555556
vt 1 0.555556
vt 1 0.888889
vt 0.944444 1
vt 0.888889 0.888889
vt 1 0.777778
vt 0.777778 0.555556
vt 0.833333 1
vt 0.777778 0.888889
vt 0.777778 0.777778
vt 0.777778 0.666667
vt 0.722222 1
usemtl 
f 1/1/1 2/2/1 3/3/1
f 4/4/2 3/3/2 5/5/2
f 4/4/3 6/6/3 7/7/3
f 7/7/4 8/8/4 9/9/4
f 5/5/5 10/10/5 6/6/5
f 6/6/6 11/11/6 8/8/6
f 3/3/7 2/12/7 12/13/7
f 3/3/8 13/14/8 5/5/8
f 11/11/9 14/15/9 15/16/9
f 12/13/10 2/17/10 16/18/10
f 12/13/11 17/19/11 13/14/11
f 13/14/12 14/15/12 10/10/12
f 16/18/13 18/20/13 17/19/13
f 17/19/14 19/21/14 14/15/14
f 14/15/15 20/22/15 15/16/15
f 16/18/16 2/23/16 21/24/16
f 18/20/17 22/25/17 19/21/17
f 19/21/18 23/26/18 20/22/18
f 21/24/19 2/27/19 24/28/19
f 18/20/20 24/28/20 25/29/20
f 24/28/21 2/30/21 26/31/21
f 24/28/22 27/32/22 25/29/22
f 22/25/23 27/32/23 28/33/23
f 23/26/24 28/33/24 29/34/24
f 28/35/25 30/36/25 31/37/25
f 28/35/26 32/38/26 29/39/26
f 26/40/27 2/41/27 33/42/27
f 27/43/28 33/42/28 30/36/28
f 31/37/29 34/44/29 32/38/29
f 33/42/30 2/45/30 35/46/30
f 20/22/31 36/16/31 15/16/31
f 8/8/32 37/9/32 9/9/32
f 33/42/33 38/47/33 30/36/33
f 23/26/34 39/22/34 20/22/34
f 32/38/35 40/39/35 29/39/35
f 31/37/36 38/47/36 41/48/36
f 23/26/37 40/34/37 42/26/37
f 35/46/38 4/4/38 38/47/38
f 43/11/39 40/34/39 44/44/39
f 15/16/40 43/11/40 11/11/40
f 41/48/41 4/4/41 7/7/41
f 11/11/42 45/8/42 8/8/42
f 41/48/43 9/9/43 34/44/43
f 35/46/44 2/49/44 1/1/44
f 9/9/45 44/44/45 34/44/45
f 34/44/46 46/38/46 32/38/46
f 4/4/2 1/1/2 3/3/2
f 4/4/3 5/5/3 6/6/3
f 7/7/4 6/6/4 8/8/4
f 5/5/5 13/14/5 10/10/5
f 6/6/6 10/10/6 11/11/6
f 3/3/8 12/13/8 13/14/8
f 11/11/9 10/10/9 14/15/9
f 12/13/11 16/18/11 17/19/11
f 13/14/12 17/19/12 14/15/12
f 16/18/13 21/24/13 18/20/13
f 17/19/14 18/20/14 19/21/14
f 14/15/15 19/21/15 20/22/15
f 18/20/17 25/29/17 22/25/17
f 19/21/18 22/25/18 23/26/18
f 18/20/20 21/24/20 24/28/20
f 24/28/22 26/31/22 27/32/22
f 22/25/23 25/29/23 27/32/23
f 23/26/24 22/25/24 28/33/24
f 28/35/25 27/43/25 30/36/25
f 28/35/26 31/37/26 32/38/26
f 27/43/28 26/40/28 33/42/28
f 31/37/29 41/48/29 34/44/29
f 20/22/31 39/22/31 36/16/31
f 8/8/32 45/8/32 37/9/32
f 33/42/33 35/46/33 38/47/33
f 23/26/34 42/26/34 39/22/34
f 32/38/35 46/38/35 40/39/35
f 31/37/36 30/36/36 38/47/36
f 23/26/37 29/34/37 40/34/37
f 35/46/38 1/1/38 4/4/38
f 37/9/39 45/8/39 43/11/39
f 43/11/39 36/16/39 39/22/39
f 39/22/39 42/26/39 40/34/39
f 40/34/39 46/38/39 44/44/39
f 44/44/39 37/9/39 43/11/39
f 43/11/39 39/22/39 40/34/39
f 15/16/40 36/16/40 43/11/40
f 41/48/41 38/47/41 4/4/41
f 11/11/42 43/11/42 45/8/42
f 41/48/43 7/7/43 9/9/43
f 9/9/45 37/9/45 44/44/45
f 34/44/46 44/44/46 46/38/46
s off
