# Apple ModelIO OBJ File: Pohon_1
mtllib Pohon_1.mtl
g Pohon_1
v -29.5138 2.14825 34.7284
v -26.48 -1.02557 36.1665
v -29.3272 -1.13079 34.4822
v -26.8928 2.84873 39.2525
v -26.48 -1.47046 39.4462
v -29.5138 2.69053 40.7955
v -29.3272 -2.02057 41.0416
v -32.1349 2.26119 39.305
v -32.1744 -2.12579 39.3573
v -26.8928 2.57759 36.2189
v -27.0282 6.88395 39.1542
v -32.1744 -1.6809 36.0776
v -32.1349 1.99004 36.2714
v -24.8407 -8.09605 35.0639
v -29.5138 -8.09605 43.158
v -34.187 -8.09605 35.0639
v -29.6614 -6.60366 33.4803
v -29.5138 -8.09605 32.3658
v -32.6901 -3.5321 35.8174
v -33.381 -6.43429 35.6211
v -29.2678 -3.55832 33.8239
v -34.187 -8.09605 40.46
v -33.381 -6.09554 39.9028
v -32.6901 -3.93863 39.757
v -29.6614 -5.92617 42.0436
v -29.2678 -4.37137 41.7032
v -25.9418 -6.09554 39.9028
v -24.8407 -8.09605 40.46
v -26.1728 -4.44408 39.7049
v -25.9418 -6.43429 35.6211
v -26.1728 -4.03756 35.7652
v -31.9363 7.59088 36.3697
v -31.6247 12.7189 39.2181
v -31.6247 12.5021 36.3477
v -31.9363 7.29083 39.1974
v -29.4823 7.53747 34.9343
v -27.0282 7.184 36.3265
v -29.4823 6.93737 40.5896
v -29.1474 12.6712 34.8916
v -31.5292 18.5309 36.3431
v -29.0881 18.5451 34.9919
v -29.1474 13.1048 40.6323
v -26.6701 13.0571 36.3058
v -26.6701 13.2739 39.1761
v -31.5885 18.2018 39.1132
v -31.7678 21.9825 36.5381
v -26.7656 17.9011 39.1807
v -29.2067 17.8869 40.532
v -26.7063 18.2302 36.4106
v -29.7747 25.706 35.2889
v -29.618 21.9624 35.2903
v -27.4683 22.4703 38.9858
v -29.618 22.4904 40.2336
v -27.4683 22.2062 36.5142
v -31.7678 22.2465 39.0097
v -31.9458 27.7415 38.6797
v -32.338 30.3835 35.725
v -31.9458 27.7676 36.3467
v -31.9461 25.1667 39.0114
v -27.6033 25.4922 36.5246
v -27.8125 25.1239 39.5938
v -31.9461 25.5433 36.5323
v -30.0052 25.0871 40.8096
v -31.5251 33.2294 35.4594
v -30.1534 35.8879 35.975
v -29.3139 33.1269 35.8509
v -30.7629 27.9176 40.2234
v -28.6933 27.6857 41.6389
v -29.1915 29.132 41.677
v -27.8627 27.8898 36.319
v -29.7173 30.3658 35.4193
v -28.0827 30.6474 36.8058
v -29.9042 27.8417 35.1664
v -32.7373 30.6828 39.2042
v -27.2881 27.9267 38.204
v -28.0827 30.9467 38.6758
v -31.6983 36.0752 36.8603
v -31.2297 40.7551 38.3466
v -31.2297 40.9033 36.7505
v -31.5251 33.4348 39.3788
v -30.1534 36.1111 39.5488
v -31.6983 36.1868 38.6472
v -28.3456 33.4352 38.6697
v -28.6085 35.8122 36.8767
v -28.6085 35.9238 38.6636
v -32.3284 33.6467 36.2181
v -34.4756 33.8013 37.2103
v -33.9429 34.8454 36.4004
v -29.9354 33.5377 39.5904
v -28.3456 33.2298 36.8413
v -29.8465 40.5636 39.1338
v -30.5666 44.9859 38.5647
v -28.4634 40.6683 36.7287
v -29.8465 40.8598 35.9416
v -28.4634 40.5202 38.3248
v -30.3907 47.4999 38.4893
v -30.0367 50.0197 37.3855
v -30.9043 47.5334 37.3335
v -28.4 44.9179 37.2976
v -28.4 44.8019 38.5476
v -30.5666 45.1019 37.3147
v -29.4833 44.8359 39.1812
v -29.4833 45.0679 36.6811
v -29.7152 53.8676 37.0647
v -29.3016 50.0719 36.9667
v -28.391 47.4864 38.4845
v -29.3232 50.1822 38.6583
v -29.3939 47.4763 39.0648
v -28.8115 47.5435 36.7532
v -28.5773 50.1792 37.3938
v -28.3851 47.5199 37.3286
v -30.2098 48.6712 35.4976
v -30.749 49.9766 34.7902
v -30.0411 49.04 35.6649
v -30.0475 50.0748 38.2313
v -28.5881 50.2344 38.2395
v -29.719 53.8168 38.0656
v -29.2843 53.8171 37.8164
v -30.1518 53.842 37.8144
v -30.15 53.8674 37.314
v -29.2824 53.8425 37.316
v -27.9168 29.3369 42.7588
v -28.2984 30.3507 42.7448
v -26.6048 29.2178 40.259
v -29.7173 30.9644 39.6319
v -28.0419 30.6899 39.9916
v -25.8372 30.2526 41.5889
v -26.3196 32.515 42.4083
v -25.3979 33.0107 42.8575
v -27.7421 31.1003 41.7723
v -26.845 30.968 41.1584
v -26.7158 27.8493 40.3005
v -26.6558 33.0636 43.7361
v -27.0811 32.4601 42.8488
v -26.0009 29.45 41.9977
v -26.0548 32.1801 44.878
v -24.6783 33.913 45.309
v -25.2385 34.2731 45.8316
v -25.16 32.2257 44.2494
v -28.9308 30.6498 40.6299
v -24.5718 37.6424 46.4901
v -25.5201 34.9071 44.8407
v -24.7686 34.3219 44.1316
v -23.2585 37.4769 46.9819
v -22.5985 42.5293 48.4722
v -22.01 42.51 48.8894
v -23.5923 37.9322 45.839
v -23.9317 37.2098 47.4522
v -22.7552 42.3176 49.1054
v -22.0962 42.3322 49.3365
v -32.3596 31.2777 36.7234
v -33.1195 31.9447 38.8223
v -32.0658 36.0782 38.2569
v -32.0696 36.0157 37.252
v -32.2013 33.7642 39.238
v -35.5286 35.6763 36.6504
v -37.818 35.8725 37.1224
v -37.6975 36.9082 36.5453
v -33.9125 34.9685 39.2648
v -33.3976 35.9555 38.3004
v -34.4274 33.9815 38.3745
v -33.4103 35.8895 37.2229
v -36.2631 35.0893 37.3
v -35.4657 35.7563 38.948
v -36.1683 35.2052 38.2339
v -34.7631 36.3074 38.1745
v -34.7942 36.2634 37.3101
v -37.07 37.6757 38.1619
v -39.0139 38.0466 38.7992
v -37.1559 36.671 38.8696
v -37.2718 37.7489 37.2847
v -37.5885 35.8878 38.0815
v -39.4701 37.9839 36.6831
v -42.6423 39.0571 37.6604
v -42.6617 39.5121 37.2975
v -39.5635 37.3288 38.2145
v -38.7423 38.7832 38.0111
v -39.7801 37.2063 37.3594
v -38.9155 38.7449 37.2152
v -42.5174 39.1573 38.1149
v -45.5383 40.0876 38.2796
v -45.5917 39.797 38.1021
v -42.5001 40.0008 37.5758
v -42.3478 39.6231 38.421
v -42.384 40.0504 37.9986
v -45.5261 40.274 37.7568
v -45.5781 39.971 37.5973
v -45.5124 40.3224 38.013
v -45.6059 39.7173 37.8287
v -30.4827 47.7672 36.378
v -30.0498 49.391 36.9006
v -29.6568 49.5761 36.5005
v -30.3795 48.8641 36.6502
v -29.6051 48.8295 36.1259
v -29.8174 47.727 36.1091
v -30.7381 48.6649 35.7135
v -30.387 49.4126 36.3772
v -30.6561 48.9938 36.0796
v -30.0895 49.5295 36.0339
v -31.364 49.8021 35.1692
v -31.9666 51.3199 34.6475
v -32.1245 51.2002 34.3709
v -30.7974 50.3249 35.2945
v -31.0949 50.1059 35.5835
v -30.9177 49.6791 34.5152
v -31.4459 49.6052 34.7181
v -31.7637 51.3494 34.1769
v -32.4615 52.2023 33.8406
v -32.3963 52.2908 33.9698
v -32.1726 51.1464 34.0873
v -31.8627 51.2151 33.9809
v -31.7921 51.4828 34.5108
v -32.634 52.1924 34.0976
v -33.3777 53.6658 33.8466
v -33.4534 53.6389 33.7045
v -32.415 52.3787 34.1898
v -32.53 52.2713 34.2799
v -32.6657 52.157 33.9107
v -33.2939 53.7565 33.7997
v -33.4765 53.6436 33.566
v -33.3278 53.687 33.5235
v -33.2803 53.7292 33.6294
vn 0.5044 0.0932 -0.8584
vn 0.9953 0.0957 0.013
vn 0.4783 0.0647 0.8758
vn -0.5095 0.0149 0.8603
vn 0.9994 0.0335 -0.003
vn -1 0.009 0.0012
vn -0.4957 0.0511 -0.867
vn -0 -1 -0
vn -0.4293 0.5128 -0.7435
vn -0.4853 0.1735 -0.8569
vn -0.4855 0.2529 -0.8368
vn -0.8998 0.4364 -0
vn -0.9724 0.2328 -0.0184
vn -0.9597 0.2794 0.0288
vn -0.4625 0.38 0.8011
vn -0.4945 0.2153 0.8421
vn -0.459 0.2299 0.8582
vn 0.4443 0.4589 0.7695
vn 0.5 0.0625 0.8638
vn 0.5303 0.242 0.8125
vn 0.8336 0.5524 -0
vn 0.9905 0.1372 -0.0109
vn 0.9946 0.1037 0.0107
vn 0.4246 0.528 -0.7355
vn 0.4974 0.0335 -0.8669
vn 0.5423 0.1651 -0.8238
vn -0.998 0.0633 -0.0048
vn -0.9994 0.0354 0.0038
vn 0.4969 0.0349 -0.8671
vn 0.5052 0.038 0.8621
vn -0.504 0.0359 -0.863
vn -0.4987 0.0382 0.8659
vn -0.4843 0.0198 -0.8747
vn 0.5041 -0.0333 0.863
vn 0.4994 -0.0335 -0.8657
vn -0.5079 0.026 -0.861
vn -0.4906 0.0248 0.871
vn 0.9984 -0.0559 -0.0059
vn -0.9973 -0.0673 -0.0293
vn -0.498 0.0199 0.8669
vn 0.9998 0.0206 -0.0016
vn -0.9997 0.0158 -0.0195
vn 0.5053 0.0243 0.8626
vn 0.5137 0.021 -0.8577
vn -0.502 -0.0213 -0.8646
vn 0.5002 0.1004 0.8601
vn 0.5198 0.1216 -0.8456
vn -0.4843 0.0013 -0.8749
vn -0.4948 0.0003 0.869
vn 0.9874 0.1535 0.0394
vn -0.9889 -0.1487 -0.0017
vn -0.4919 -0.0305 0.8701
vn 0.9906 0.11 0.0807
vn -0.9987 -0.05 -0.0076
vn 0.483 -0.1204 0.8673
vn 0.4926 0.023 -0.8699
vn 0.1779 0.0981 -0.9791
vn -0.5675 -0.2164 0.7944
vn 0.6171 0.1843 -0.765
vn -0.5001 0.1229 -0.8572
vn -0.7386 -0.3059 0.6008
vn 0.9646 0.2603 -0.0417
vn -0.9953 0.0968 0.009
vn -0.4872 0.1956 0.8511
vn 0.9944 0.105 -0.0066
vn -0.4051 -0.4223 -0.8109
vn 0.5015 0.0564 0.8633
vn 0.7084 0.0817 -0.7011
vn -0.491 0.0321 0.8706
vn 0.5008 0.0461 0.8643
vn 0.5021 -0.0413 -0.8638
vn -0.5041 0.0253 -0.8633
vn -0.4806 0.1066 0.8704
vn 0.9995 -0.0314 0.002
vn -0.8699 0.2953 0.3951
vn 0.9999 -0.0147 -0.0014
vn -0.9879 0.1541 0.0143
vn 0.5029 -0.0523 0.8627
vn 0.5029 0.1073 -0.8576
vn -0.491 0.1917 -0.8498
vn -0.493 -0.0313 -0.8694
vn 0.4966 0.1163 0.8602
vn 0.8028 0.0725 -0.5918
vn 0.7521 -0.0457 -0.6575
vn -0.4915 0.1515 0.8576
vn 0.9974 0.0722 0.0072
vn 0.0286 0.9983 0.0508
vn -0.4967 0.0819 0.864
vn 0.9816 0.1908 0.0001
vn -0.9996 -0.0295 -0.0053
vn 0.488 0.192 0.8514
vn 0.4978 0.0775 -0.8638
vn -0.6106 -0.2193 0.761
vn 0.4351 -0.4656 0.7706
vn 0.8372 0.2925 -0.4621
vn 0.1197 0.9751 0.1866
vn 0.2354 0.3749 -0.8967
vn -0.0089 0.9747 -0.2232
vn 0.5953 0.4304 -0.6785
vn 0.4679 -0.6361 0.6135
vn -0.3094 0.8487 -0.4289
vn 0.3023 -0.689 0.6587
vn -0.7658 0.2467 0.5939
vn -0.3571 0.6574 -0.6636
vn -0.8591 0.5009 -0.1052
vn 0.3935 -0.5038 0.769
vn 0.9446 -0.0862 -0.3166
vn 0.9693 -0.2348 -0.0726
vn 0.917 -0.3012 -0.2614
vn -0.5626 0.7785 0.2783
vn 0.9858 -0.1607 0.0479
vn -0.7956 0.0775 0.6008
vn -0.4968 -0.0797 -0.8642
vn 0.4929 -0.0213 -0.8698
vn -0.5779 0.5283 0.622
vn -1 0.0001 -0
vn -0.9328 0.118 0.3406
vn 0.9718 -0.1893 -0.1403
vn -0.8133 0.1671 0.5573
vn -0.3687 0.7327 -0.572
vn 0.5741 0.1618 -0.8026
vn 0.9157 -0.2016 -0.3477
vn 0.6097 -0.5733 0.5473
vn -0.363 0.4924 -0.7911
vn -0.1407 0.9291 0.3421
vn 0.6241 -0.4568 0.6339
vn -0.9484 0.2849 -0.1394
vn -0.8303 0.0109 0.5572
vn -0.9127 -0.3434 -0.2213
vn -0.2191 0.9739 -0.0598
vn -0.5443 0.3436 -0.7653
vn -0.2472 -0.0955 0.9642
vn -0.217 -0.4558 -0.8632
vn -0.7713 -0.6316 -0.0785
vn 0.2691 0.3626 0.8923
vn -0.0936 0.9937 -0.0615
vn -0.364 -0.029 0.931
vn -0.3635 -0.448 -0.8168
vn -0.7347 0.3008 0.6081
vn -0.939 0.2458 -0.2405
vn 0.5031 0.0565 0.8624
vn -0.0427 0.6315 -0.7742
vn 0.9944 0.105 -0.0118
vn -0.1401 -0.0011 0.9901
vn 0.1786 0.1264 -0.9758
vn -0.5732 -0.8058 0.1485
vn -0.4048 -0.4869 0.774
vn 0.2544 0.9651 -0.0621
vn 0.2121 0.6946 0.6875
vn 0.1062 0.5813 -0.8067
vn 0.3541 0.5181 0.7786
vn 0.3134 0.5089 -0.8017
vn 0.304 0.6235 0.7203
vn -0.4576 -0.8805 0.1235
vn -0.3502 -0.5612 0.75
vn 0.5094 0.8583 -0.062
vn -0.4125 -0.5787 -0.7035
vn -0.3563 -0.5576 0.7497
vn 0.5549 0.8299 -0.0585
vn -0.3746 -0.5189 -0.7684
vn 0.2814 0.4036 -0.8706
vn -0.5237 -0.8146 0.2493
vn -0.1084 -0.5037 0.857
vn 0.0975 0.5216 -0.8476
vn -0.492 -0.8119 0.3142
vn 0.2358 0.6681 0.7057
vn -0.3032 -0.4439 0.8433
vn 0.3268 0.9379 -0.1163
vn -0.9875 0.1553 0.0268
vn 0.0851 0.9866 -0.1391
vn -0.1784 -0.6522 -0.7367
vn -0.0071 0.4966 -0.868
vn -0.1931 -0.9392 0.2839
vn 0.0712 0.7042 0.7064
vn -0.4918 -0.2749 -0.8262
vn -0.631 0.7211 -0.2862
vn -0.9158 0.1757 -0.3611
vn 0.7874 0.2018 -0.5825
vn 0.5204 -0.1166 -0.8459
vn -0.3598 0.5745 -0.7352
vn 1 -0.0034 -0.0003
vn -0.498 0.0608 0.8651
vn -0.9339 -0.0009 0.3577
vn 0.8035 0.0025 -0.5953
vn 0.5052 0.0209 0.8627
vn -0.9076 -0.1291 0.3995
vn 0.7225 -0.0169 -0.6911
vn -0.3293 -0.6059 -0.7242
vn -0.8572 0.2201 0.4656
vn 0.6617 0.3723 -0.6508
vn -0.2458 0.949 0.1976
vn -0.8309 -0.1452 0.5372
vn 0.8289 0.4943 -0.2619
vn 0.2512 0.8288 0.4999
vn -0.2388 -0.7586 -0.6063
vn -0.8147 -0.0643 0.5764
vn -0.8878 -0.3404 0.3098
vn 0.7179 0.3499 -0.6019
vn -0.914 -0.3411 0.2195
vn -0.2625 -0.4571 -0.8498
vn 0.7551 0.297 -0.5845
vn 0.8002 0.5773 -0.1627
vn 0.1871 0.6806 0.7084
vn -0.808 -0.3239 0.4922
vn 0.8358 0.5306 -0.141
vn 0.2322 0.4671 0.8532
vn -0.7897 -0.2514 0.5596
vn -0.8905 -0.3951 0.2257
vn -0.254 -0.2855 -0.9241
vn -0.6595 0.7202 0.2152
vn -0.8828 -0.4509 0.1317
vn -0.239 -0.3342 -0.9117
vn 0.7864 0.3654 -0.4981
vn 0.8452 0.5341 -0.0181
vn 0.2707 0.4319 0.8603
vn -0.3303 0.9184 -0.218
vn -0.4251 0.8994 0.1014
vn -0.9923 0.1228 0.0155
vn -0.9869 0.156 0.0415
vn -0.9879 0.1532 0.0239
vn 0.4847 0.0682 -0.872
vn 0.9934 0.114 -0.0102
vn 0.5015 0.0866 0.8608
vn -0.4973 0.0256 0.8672
vn 0.9996 0.0293 0.0031
vn -0.9999 0.0108 -0.001
vn -0.5086 0.0356 -0.8603
vn -0.4252 0.4663 -0.7757
vn -0.4959 0.1604 -0.8534
vn -0.5086 0.2138 -0.834
vn -0.9299 0.3666 -0.029
vn -0.9512 0.3069 0.0317
vn -0.964 0.2635 0.0357
vn -0.4694 0.4073 0.7834
vn -0.4433 0.2973 0.8456
vn -0.4913 0.3185 0.8107
vn 0.4651 0.4293 0.7742
vn 0.537 0.174 0.8254
vn 0.4666 0.1244 0.8757
vn 0.8798 0.4738 -0.0375
vn 0.9954 0.0953 0.0098
vn 0.9949 0.0997 0.0135
vn 0.388 0.5758 -0.7197
vn 0.5399 0.1023 -0.8355
vn 0.4877 0.2396 -0.8395
vn -0.9983 0.0573 0.0061
vn -0.9992 0.0394 -0.0035
vn 0.4903 0.0304 -0.871
vn 0.5051 0.038 0.8622
vn -0.5085 0.0331 -0.8604
vn -0.4879 0.0459 0.8717
vn -0.5071 0.0074 -0.8619
vn 0.5081 -0.0314 0.8607
vn 0.4888 -0.0391 -0.8715
vn -0.5042 0.0281 -0.8631
vn -0.4981 0.021 0.8668
vn 0.9981 -0.0608 0.0046
vn -0.999 -0.0442 0.0047
vn -0.5106 0.0117 0.8597
vn 0.9997 0.0065 0.0222
vn -1 0.0066 -0.0005
vn 0.4842 0.0091 0.8749
vn 0.4946 0.0098 -0.8691
vn -0.4953 -0.0262 -0.8683
vn 0.4808 0.111 0.8698
vn 0.4763 0.1495 -0.8665
vn -0.5018 0.0142 -0.8648
vn -0.5108 0.0101 0.8597
vn 0.9818 0.1887 -0.0202
vn -0.9656 -0.2439 -0.0899
vn -0.6628 -0.255 0.7041
vn 0.9991 0.0411 -0.0044
vn -0.9981 -0.0609 0.0065
vn 0.4967 -0.1321 0.8578
vn 0.496 0.0204 -0.8681
vn -0.4251 0.3788 -0.8221
vn -0.5628 0.0205 0.8263
vn 0.4901 0.0509 -0.8702
vn -0.1139 -0.2459 -0.9626
vn -0.158 0.2402 0.9578
vn 0.9481 0.1271 -0.2915
vn -0.9948 0.1016 -0.0063
vn -0.1322 0.0048 0.9912
vn 0.9948 0.1014 -0.0114
vn -0.4232 -0.1837 -0.8872
vn 0.5031 0.0553 0.8625
vn 0.5018 0.1905 -0.8438
vn 0.5054 0.0475 0.8616
vn 0.4905 -0.0361 -0.8707
vn -0.4944 0.0282 -0.8688
vn -0.4966 0.1144 0.8604
vn 0.9995 -0.03 -0.0028
vn -0.9913 0.13 -0.0212
vn -0.4971 -0.0308 -0.8671
vn 0.4858 0.1121 0.8668
vn 0.4824 0.1662 -0.86
vn 0.8306 0.0422 -0.5552
vn -0.5182 0.1403 0.8437
vn 0.9974 0.0719 0.0081
vn -0.5152 0.083 0.853
vn 0.9818 0.1893 0.0133
vn -0.9995 -0.0289 -0.0109
vn 0.4752 0.1937 0.8583
vn 0.5038 0.0771 -0.8604
vn -0.6081 -0.2295 0.76
vn 0.5348 -0.4072 0.7404
vn 0.7002 0.7045 0.1158
vn 0.1122 0.9697 0.2172
vn 0.5796 0.3839 -0.7188
vn -0.1812 0.9646 -0.1918
vn 0.5747 0.4351 -0.6932
vn 0.2803 -0.7545 0.5935
vn -0.2598 0.8675 -0.4242
vn 0.4638 -0.6386 0.614
vn -0.5799 -0.2074 0.7878
vn -0.4031 0.6804 -0.612
vn -0.8652 0.4954 0.0778
vn 0.4955 -0.559 0.6649
vn 0.9065 -0.3233 -0.2717
vn 0.9773 -0.0626 -0.2023
vn 0.9603 -0.0859 -0.2653
vn -0.8758 0.3669 0.3138
vn 0.9532 0.0781 -0.2921
vn -0.68 -0.0303 0.7326
vn -0.4915 -0.0723 -0.8678
vn 0.4919 -0.0201 -0.8704
vn -0.7684 0.3657 0.5252
vn -0.8207 0.0512 0.569
vn 0.9439 -0.1914 -0.2692
vn -0.9085 0.1833 0.3755
vn -0.2443 0.6047 -0.758
vn 0.955 -0.038 -0.2941
vn 0.9585 -0.2384 -0.1563
vn 0.3853 -0.5134 0.7668
vn -0.567 0.5605 -0.6036
vn -0.1645 0.947 0.276
vn 0.9602 -0.268 0.0786
vn -0.5674 0.5588 -0.6048
vn -0.3181 -0.2248 0.921
vn -0.9859 0.1134 -0.1229
vn -0.2229 0.973 -0.0608
vn -0.7065 0.3465 -0.6171
vn -0.4377 0.1364 0.8887
vn -0.2109 -0.5947 -0.7758
vn -0.8472 -0.5186 0.1153
vn -0.0424 0.7095 0.7035
vn -0.0923 0.9939 -0.0598
vn -0.3528 -0.5185 0.7789
vn -0.364 -0.4482 -0.8165
vn -0.0782 0.2515 0.9647
vn -0.7167 -0.1364 -0.6839
vn 0.6441 0.0254 -0.7645
vn 0.5046 0.0554 0.8616
vn 0.1774 0.3773 -0.9089
vn 0.9947 0.1015 -0.0162
vn -0.116 -0.0594 -0.9915
vn -0.5763 -0.8018 0.1579
vn 0.2569 0.9647 -0.0584
vn 0.1038 0.6669 0.7379
vn 0.1995 0.6112 -0.7659
vn 0.3486 0.6218 0.7013
vn 0.3342 0.5214 -0.7852
vn 0.3098 0.5296 0.7896
vn -0.4414 -0.8839 0.1544
vn -0.3363 -0.5561 0.76
vn 0.514 0.8565 -0.0468
vn -0.4053 -0.5026 -0.7637
vn -0.3435 -0.421 0.8395
vn 0.5169 0.8423 -0.1531
vn -0.3821 -0.4155 -0.8254
vn 0.2744 0.553 -0.7867
vn -0.5761 -0.8034 0.1506
vn -0.1128 -0.5167 0.8487
vn 0.0606 0.4787 -0.8759
vn -0.5159 -0.8199 0.2481
vn 0.2387 0.6928 0.6805
vn -0.3073 -0.4485 0.8393
vn 0.307 0.9318 -0.1936
vn 0.0771 0.9789 -0.1891
vn -0.1811 -0.618 -0.7651
vn -0.0171 0.4682 -0.8835
vn -0.1976 -0.9445 0.2625
vn 0.0679 0.7455 0.663
vn -0.3763 -0.2398 -0.8949
vn -0.4415 0.5537 -0.706
vn -0.8968 -0.1213 -0.4254
vn 0.4409 0.4267 -0.7897
vn 0.5256 -0.0883 -0.8461
vn -0.9406 0.3299 -0.08
vn 1 -0.0058 0.005
vn -0.4881 0.0549 0.8711
vn -0.8979 -0.2082 0.388
vn 0.4808 -0.1052 -0.8705
vn 0.5006 0.0187 0.8654
vn -0.9975 0.07 0.0065
vn 0.7306 -0.1305 -0.6703
vn -0.2901 -0.6213 -0.7279
vn -0.8084 0.2534 0.5313
vn 0.7426 0.4485 -0.4975
vn -0.2365 0.9638 0.1231
vn -0.7946 -0.1103 0.597
vn 0.8752 0.3434 -0.3407
vn 0.1168 0.73 0.6734
vn -0.1342 -0.7662 -0.6284
vn -0.7445 0.0041 0.6676
vn -0.8612 -0.267 0.4325
vn -0.8992 -0.3169 0.3016
vn -0.1991 -0.4502 -0.8705
vn 0.7163 0.2091 -0.6657
vn 0.8283 0.495 -0.2624
vn 0.0671 0.5982 0.7986
vn -0.7705 -0.2924 0.5664
vn -0.8723 -0.4317 0.2296
vn -0.1762 -0.3125 -0.9334
vn 0.7465 0.3098 -0.5889
vn 0.8582 0.4976 -0.1259
vn 0.1385 0.3506 0.9262
vn -0.5141 0.8396 -0.1757
vt 0.221071 0.218517
vt 0.171417 0.169874
vt 0.221231 0.168694
vt 0.154445 0.182666
vt 0.106234 0.250173
vt 0.106234 0.182666
vt 0.058023 0.250173
vt 0.058023 0.182666
vt 0.009811 0.250173
vt 0.009811 0.182666
vt 0.154445 0.250173
vt 0.106234 0.315191
vt 0.319782 0.218945
vt 0.257594 0.160639
vt 0.319995 0.152796
vt 0.257414 0.216868
vt 0.948384 0.909871
vt 0.738199 0.909871
vt 0.843292 0.727845
vt 0.257931 0.055744
vt 0.221504 0.083892
vt 0.221594 0.055627
vt 0.257689 0.130979
vt 0.257836 0.08525
vt 0.221353 0.130634
vt 0.320306 0.055945
vt 0.320198 0.08953
vt 0.320088 0.123748
vt 0.058023 0.121584
vt 0.009811 0.092314
vt 0.058023 0.092314
vt 0.009811 0.155694
vt 0.009811 0.121584
vt 0.059168 0.155694
vt 0.106234 0.121584
vt 0.106234 0.092314
vt 0.105089 0.155694
vt 0.154445 0.121584
vt 0.154446 0.092314
vt 0.154445 0.155694
vt 0.171684 0.086891
vt 0.171785 0.055467
vt 0.171566 0.12351
vt 0.257138 0.3026
vt 0.319275 0.376827
vt 0.256896 0.37787
vt 0.319538 0.294853
vt 0.17124 0.224938
vt 0.220809 0.300104
vt 0.171016 0.294918
vt 0.058023 0.315191
vt 0.009811 0.315191
vt 0.220559 0.377933
vt 0.2566 0.470091
vt 0.220274 0.466808
vt 0.058023 0.398564
vt 0.170729 0.384244
vt 0.009811 0.398564
vt 0.154445 0.315191
vt 0.106234 0.398564
vt 0.319009 0.459509
vt 0.25643 0.523093
vt 0.009811 0.471733
vt 0.154445 0.398564
vt 0.106234 0.471733
vt 0.058023 0.471733
vt 0.170476 0.462795
vt 0.219923 0.575998
vt 0.220105 0.519315
vt 0.106234 0.529001
vt 0.058023 0.529001
vt 0.170279 0.524275
vt 0.009811 0.529001
vt 0.154445 0.471733
vt 0.318546 0.603821
vt 0.255616 0.650219
vt 0.256145 0.611764
vt 0.009811 0.575507
vt 0.154445 0.575507
vt 0.107599 0.575507
vt 0.318672 0.564681
vt 0.256255 0.577624
vt 0.056202 0.575507
vt 0.170118 0.574202
vt 0.255476 0.693685
vt 0.219417 0.733306
vt 0.219558 0.68961
vt 0.472955 0.361936
vt 0.458209 0.314114
vt 0.48204 0.314114
vt 0.17 0.610944
vt 0.219695 0.646897
vt 0.169875 0.649943
vt 0.219819 0.608418
vt 0.056202 0.616522
vt 0.009811 0.646899
vt 0.009811 0.610176
vt 0.107599 0.618868
vt 0.154445 0.646899
vt 0.107599 0.662039
vt 0.255327 0.740152
vt 0.299562 0.808542
vt 0.255099 0.811125
vt 0.009811 0.689267
vt 0.056202 0.732374
vt 0.009811 0.722872
vt 0.107599 0.696246
vt 0.154445 0.722872
vt 0.107599 0.730452
vt 0.810578 0.07311
vt 0.85286 0.129613
vt 0.818648 0.129613
vt 0.056202 0.696924
vt 0.16961 0.732406
vt 0.169719 0.698497
vt 0.056202 0.793896
vt 0.009811 0.852241
vt 0.009811 0.794122
vt 0.169373 0.806195
vt 0.219175 0.808665
vt 0.107599 0.793484
vt 0.29923 0.912028
vt 0.253376 0.951556
vt 0.253502 0.912109
vt 0.154445 0.852241
vt 0.107599 0.852098
vt 0.299353 0.87371
vt 0.25362 0.875341
vt 0.056202 0.852749
vt 0.218967 0.87353
vt 0.169164 0.871291
vt 0.278388 0.978275
vt 0.218717 0.951445
vt 0.107599 0.888804
vt 0.056202 0.926613
vt 0.056202 0.889046
vt 0.218842 0.91235
vt 0.168907 0.951285
vt 0.169037 0.910796
vt 0.501685 0.543734
vt 0.485744 0.599551
vt 0.485744 0.543734
vt 0.009811 0.926613
vt 0.009811 0.889895
vt 0.154445 0.889895
vt 0.107599 0.926613
vt 0.57082 0.69933
vt 0.554446 0.689876
vt 0.57082 0.661515
vt 0.009811 0.979499
vt 0.077797 0.979499
vt 0.154446 0.926754
vt 0.154446 0.979499
vt 0.236899 0.978141
vt 0.190906 0.977994
vt 0.224502 0.978102
vt 0.459706 0.275496
vt 0.480049 0.275496
vt 0.420933 0.361936
vt 0.444669 0.361936
vt 0.52593 0.361936
vt 0.56041 0.314114
vt 0.551775 0.361936
vt 0.503806 0.361936
vt 0.528099 0.314114
vt 0.551775 0.275496
vt 0.52593 0.244542
vt 0.537062 0.217386
vt 0.505365 0.275496
vt 0.52593 0.275496
vt 0.420933 0.314114
vt 0.494548 0.217386
vt 0.503806 0.244542
vt 0.420933 0.275496
vt 0.451242 0.217386
vt 0.420933 0.168963
vt 0.451242 0.168963
vt 0.581802 0.275496
vt 0.581802 0.314114
vt 0.581802 0.217386
vt 0.581802 0.361936
vt 0.511044 0.314114
vt 0.494548 0.118705
vt 0.494548 0.168963
vt 0.537063 0.168963
vt 0.581802 0.168963
vt 0.581802 0.118705
vt 0.52593 0.031342
vt 0.551493 0.031342
vt 0.537062 0.118705
vt 0.420933 0.118705
vt 0.451242 0.118705
vt 0.633064 0.697135
vt 0.618426 0.706687
vt 0.619452 0.695846
vt 0.420933 0.031342
vt 0.444669 0.031342
vt 0.846565 0.07311
vt 0.876688 0.036177
vt 0.881173 0.07311
vt 0.757032 0.07311
vt 0.785605 0.039339
vt 0.77199 0.07311
vt 0.279089 0.698848
vt 0.688742 0.07311
vt 0.725376 0.039339
vt 0.719641 0.07311
vt 0.818648 0.178559
vt 0.85286 0.214894
vt 0.818649 0.214894
vt 0.722971 0.129613
vt 0.758338 0.129613
vt 0.688742 0.129613
vt 0.762381 0.039339
vt 0.276004 0.66531
vt 0.056202 0.661473
vt 0.784264 0.129613
vt 0.154445 0.689267
vt 0.881173 0.129613
vt 0.85286 0.178559
vt 0.722971 0.178559
vt 0.688742 0.178559
vt 0.758338 0.178559
vt 0.784264 0.178559
vt 0.758338 0.214894
vt 0.722971 0.271092
vt 0.722971 0.214894
vt 0.784264 0.214894
vt 0.881173 0.214894
vt 0.688742 0.214894
vt 0.818649 0.271092
vt 0.85286 0.350861
vt 0.818649 0.350861
vt 0.688742 0.271092
vt 0.758338 0.271092
vt 0.85286 0.271092
vt 0.784264 0.271092
vt 0.881173 0.271092
vt 0.688742 0.350861
vt 0.722971 0.422936
vt 0.688742 0.422936
vt 0.784264 0.350861
vt 0.881173 0.350861
vt 0.722971 0.350861
vt 0.758339 0.350861
vt 0.670158 0.754578
vt 0.663245 0.75486
vt 0.667255 0.745734
vt 0.758338 0.422936
vt 0.852861 0.422936
vt 0.818649 0.422936
vt 0.784264 0.422936
vt 0.881173 0.422936
vt 0.556122 0.858912
vt 0.476518 0.957847
vt 0.417283 0.839072
vt 0.587424 0.814241
vt 0.660121 0.848085
vt 0.614172 0.84282
vt 0.532004 0.824995
vt 0.578307 0.830798
vt 0.602968 0.866719
vt 0.603412 0.95709
vt 0.571878 0.892298
vt 0.599578 0.747383
vt 0.432941 0.502244
vt 0.407161 0.543734
vt 0.407161 0.502244
vt 0.480591 0.502244
vt 0.522421 0.502244
vt 0.506096 0.502244
vt 0.446362 0.543734
vt 0.425289 0.543734
vt 0.463403 0.543734
vt 0.461579 0.502244
vt 0.448163 0.502244
vt 0.425289 0.599551
vt 0.446362 0.665343
vt 0.425289 0.665343
vt 0.463403 0.599551
vt 0.446362 0.599551
vt 0.522421 0.543734
vt 0.501685 0.599551
vt 0.407161 0.599551
vt 0.485744 0.665343
vt 0.501685 0.706561
vt 0.485744 0.706561
vt 0.407161 0.665343
vt 0.522421 0.599551
vt 0.501685 0.665343
vt 0.463403 0.665343
vt 0.425289 0.706561
vt 0.446362 0.769136
vt 0.425289 0.769136
vt 0.463403 0.706561
vt 0.446362 0.706561
vt 0.407161 0.706561
vt 0.522421 0.665343
vt 0.717123 0.726954
vt 0.717598 0.72213
vt 0.720867 0.727323
vt 0.407161 0.769136
vt 0.522421 0.706561
vt 0.501685 0.769136
vt 0.485744 0.769136
vt 0.463403 0.769136
vt 0.724088 0.72764
vt 0.721663 0.722531
vt 0.724563 0.722816
vt 0.948384 0.78852
vt 0.843292 0.970546
vt 0.738199 0.78852
vt 0.554446 0.670969
vt 0.587195 0.670969
vt 0.587195 0.689877
vt 0.664279 0.745492
vt 0.670853 0.746026
vt 0.670452 0.750961
vt 0.318813 0.520571
vt 0.154445 0.529001
vt 0.318396 0.65042
vt 0.154445 0.602479
vt 0.299805 0.732824
vt 0.154445 0.794122
vt 0.299102 0.951703
vt 0.420933 0.217386
vt 0.632038 0.707976
vt 0.581802 0.031342
vt 0.686304 0.039339
vt 0.881173 0.178559
vt 0.522421 0.769136
usemtl 
f 1/1/1 2/2/1 3/3/1
f 2/4/2 4/5/2 5/6/2
f 5/6/3 6/7/3 7/8/3
f 7/8/4 8/9/4 9/10/4
f 10/11/5 11/12/5 4/5/5
f 8/13/6 12/14/6 9/15/6
f 13/16/7 3/3/7 12/14/7
f 14/17/8 15/18/8 16/19/8
f 16/20/9 17/21/9 18/22/9
f 19/23/10 17/21/10 20/24/10
f 12/14/11 21/25/11 19/23/11
f 22/26/12 20/24/12 16/20/12
f 23/27/13 19/23/13 20/24/13
f 9/15/14 19/23/14 24/28/14
f 25/29/15 22/30/15 15/31/15
f 25/29/16 24/32/16 23/33/16
f 7/8/17 24/32/17 26/34/17
f 27/35/18 15/31/18 28/36/18
f 27/35/19 26/34/19 25/29/19
f 29/37/20 7/8/20 26/34/20
f 30/38/21 28/36/21 14/39/21
f 30/38/22 29/37/22 27/35/22
f 31/40/23 5/6/23 29/37/23
f 18/22/24 30/41/24 14/42/24
f 21/25/25 30/41/25 17/21/25
f 21/25/26 2/2/26 31/43/26
f 32/44/27 33/45/27 34/46/27
f 13/16/28 35/47/28 32/44/28
f 10/48/29 36/49/29 37/50/29
f 4/5/30 38/51/30 6/7/30
f 1/1/31 32/44/31 36/49/31
f 6/7/32 35/52/32 8/9/32
f 39/53/33 40/54/33 41/55/33
f 11/12/34 42/56/34 38/51/34
f 37/50/35 39/53/35 43/57/35
f 36/49/36 34/46/36 39/53/36
f 38/51/37 33/58/37 35/52/37
f 37/59/38 44/60/38 11/12/38
f 45/61/39 46/62/39 40/54/39
f 42/56/40 45/63/40 33/58/40
f 43/64/41 47/65/41 44/60/41
f 34/46/42 45/61/42 40/54/42
f 44/60/43 48/66/43 42/56/43
f 43/57/44 41/55/44 49/67/44
f 46/62/45 50/68/45 51/69/45
f 48/66/46 52/70/46 53/71/46
f 41/55/47 54/72/47 49/67/47
f 40/54/48 51/69/48 41/55/48
f 45/63/49 53/71/49 55/73/49
f 49/74/50 52/70/50 47/65/50
f 56/75/51 57/76/51 58/77/51
f 53/71/52 59/78/52 55/73/52
f 52/70/53 60/79/53 61/80/53
f 46/62/54 59/81/54 62/82/54
f 53/71/55 61/80/55 63/83/55
f 51/69/56 60/84/56 54/72/56
f 64/85/57 65/86/57 66/87/57
f 67/88/58 68/89/58 69/90/58
f 70/91/59 71/92/59 72/93/59
f 58/77/60 71/92/60 73/94/60
f 67/95/61 74/96/61 56/97/61
f 75/98/62 72/99/62 76/100/62
f 77/101/63 78/102/63 79/103/63
f 80/104/64 81/105/64 82/106/64
f 83/107/65 84/108/65 85/109/65
f 86/110/66 87/111/66 88/112/66
f 89/113/67 85/109/67 81/105/67
f 66/87/68 84/114/68 90/115/68
f 91/116/69 92/117/69 78/118/69
f 85/109/70 91/116/70 81/105/70
f 65/86/71 93/119/71 84/114/71
f 65/86/72 79/103/72 94/120/72
f 82/106/73 91/116/73 78/118/73
f 84/108/74 95/121/74 85/109/74
f 96/122/75 97/123/75 98/124/75
f 95/121/76 99/125/76 100/126/76
f 79/103/77 92/127/77 101/128/77
f 95/121/78 102/129/78 91/116/78
f 93/119/79 103/130/79 99/131/79
f 94/120/80 101/128/80 103/130/80
f 97/123/81 104/132/81 105/133/81
f 106/134/82 107/135/82 108/136/82
f 109/137/83 110/138/83 111/139/83
f 112/140/84 113/141/84 114/142/84
f 108/136/85 115/143/85 96/144/85
f 111/145/86 116/146/86 106/134/86
f 117/147/87 118/148/87 104/149/87
f 115/143/88 117/150/88 119/151/88
f 110/152/89 118/153/89 116/146/89
f 97/123/90 119/154/90 120/155/90
f 107/135/91 118/153/91 117/150/91
f 105/133/92 121/156/92 110/138/92
f 69/90/93 122/157/93 123/158/93
f 61/159/94 68/89/94 63/160/94
f 76/161/95 124/162/95 75/163/95
f 125/164/96 126/165/96 76/161/96
f 127/166/97 128/167/97 129/168/97
f 126/165/98 130/169/98 131/170/98
f 124/162/99 131/170/99 127/166/99
f 132/171/100 122/157/100 68/89/100
f 133/172/101 128/167/101 134/173/101
f 135/174/102 136/175/102 122/157/102
f 123/158/103 136/175/103 133/172/103
f 130/169/104 128/167/104 131/170/104
f 123/158/105 134/173/105 130/169/105
f 136/175/106 137/176/106 138/177/106
f 124/162/107 135/178/107 132/179/107
f 127/166/108 139/180/108 135/178/108
f 75/163/109 132/179/109 61/181/109
f 140/182/110 123/158/110 130/169/110
f 60/79/111 75/98/111 61/80/111
f 59/78/112 67/95/112 56/97/112
f 50/68/113 58/77/113 73/94/113
f 50/68/114 70/91/114 60/84/114
f 125/164/115 69/90/115 140/182/115
f 62/82/116 56/75/116 58/77/116
f 138/177/117 141/183/117 142/184/117
f 139/180/118 143/185/118 137/186/118
f 136/175/119 142/184/119 133/172/119
f 133/172/120 143/185/120 129/168/120
f 144/187/121 145/188/121 146/189/121
f 137/186/122 147/190/122 144/187/122
f 138/177/123 144/191/123 148/192/123
f 142/184/124 147/190/124 143/185/124
f 146/193/125 149/194/125 150/195/125
f 144/191/126 150/196/126 148/192/126
f 147/190/127 149/197/127 145/188/127
f 148/192/128 149/197/128 141/183/128
f 151/198/129 74/199/129 152/200/129
f 153/201/130 77/202/130 154/203/130
f 86/204/131 77/101/131 64/85/131
f 152/205/132 80/206/132 155/207/132
f 156/208/133 157/209/133 158/210/133
f 152/200/134 87/111/134 151/198/134
f 153/201/135 159/211/135 155/207/135
f 154/203/136 160/212/136 153/201/136
f 155/207/137 161/213/137 152/205/137
f 87/111/138 156/208/138 88/112/138
f 155/207/139 82/214/139 153/201/139
f 151/215/140 64/85/140 57/76/140
f 72/93/68 66/87/68 90/115/68
f 125/216/141 83/107/141 89/113/141
f 154/203/142 88/112/142 162/217/142
f 76/100/143 90/218/143 83/107/143
f 125/216/144 80/104/144 74/96/144
f 71/92/145 64/85/145 66/87/145
f 161/219/146 163/220/146 87/111/146
f 161/213/147 164/221/147 165/222/147
f 162/217/148 166/223/148 160/212/148
f 159/211/149 166/223/149 164/221/149
f 88/112/150 167/224/150 162/217/150
f 168/225/151 169/226/151 170/227/151
f 156/208/152 171/228/152 167/224/152
f 166/223/153 170/227/153 164/221/153
f 163/220/154 172/229/154 157/209/154
f 165/222/155 170/227/155 172/230/155
f 167/224/156 168/225/156 166/223/156
f 173/231/157 174/232/157 175/233/157
f 170/227/158 176/234/158 172/230/158
f 171/228/159 177/235/159 168/225/159
f 158/210/160 178/236/160 173/231/160
f 171/228/161 173/231/161 179/237/161
f 157/209/162 176/238/162 178/236/162
f 180/239/163 181/240/163 182/241/163
f 173/231/164 183/242/164 179/237/164
f 178/236/165 180/243/165 174/232/165
f 177/235/166 184/244/166 169/226/166
f 176/234/167 184/244/167 180/239/167
f 179/237/168 185/245/168 177/235/168
f 186/246/169 187/247/169 182/248/169
f 183/242/170 188/249/170 185/245/170
f 175/233/171 189/250/171 187/251/171
f 175/233/172 186/252/172 183/242/172
f 174/232/173 182/253/173 189/250/173
f 185/245/174 181/240/174 184/244/174
f 190/254/175 103/255/175 101/256/175
f 191/257/176 105/258/176 192/259/176
f 190/254/177 98/260/177 193/261/177
f 194/262/178 105/258/178 109/263/178
f 195/264/179 109/263/179 103/255/179
f 193/261/180 97/265/180 191/257/180
f 99/125/181 106/134/181 100/126/181
f 92/117/182 108/136/182 96/144/182
f 193/266/183 196/267/183 190/268/183
f 99/131/184 109/137/184 111/139/184
f 100/126/185 108/136/185 102/129/185
f 101/128/186 96/122/186 98/124/186
f 194/269/187 112/140/187 114/142/187
f 190/270/188 112/140/188 195/271/188
f 193/266/189 197/272/189 198/273/189
f 194/269/190 199/274/190 192/275/190
f 192/275/191 197/272/191 191/276/191
f 200/277/192 201/278/192 202/279/192
f 199/274/193 113/141/193 203/280/193
f 199/274/194 204/281/194 197/272/194
f 196/282/195 205/283/195 112/140/195
f 198/273/196 204/281/196 200/277/196
f 196/267/197 200/277/197 206/284/197
f 207/285/198 208/286/198 209/287/198
f 206/284/199 202/279/199 210/288/199
f 206/289/200 211/290/200 205/283/200
f 113/141/201 211/290/201 207/285/201
f 203/280/202 207/285/202 212/291/202
f 203/280/203 201/278/203 204/281/203
f 213/292/204 214/293/204 215/294/204
f 212/291/205 209/287/205 216/295/205
f 212/291/206 217/296/206 201/278/206
f 202/279/207 217/296/207 213/292/207
f 210/288/208 213/292/208 218/297/208
f 210/298/209 208/286/209 211/290/209
f 214/299/210 219/300/210 215/301/210
f 218/297/211 215/294/211 220/302/211
f 218/303/212 221/304/212 208/286/212
f 209/287/213 221/304/213 222/305/213
f 216/295/214 222/305/214 219/306/214
f 216/295/215 214/293/215 217/296/215
f 220/307/216 222/308/216 221/309/216
f 215/301/217 222/308/217 220/307/217
f 16/19/8 18/310/8 14/17/8
f 14/17/8 28/311/8 15/18/8
f 15/18/8 22/312/8 16/19/8
f 118/148/87 121/313/87 104/149/87
f 104/149/87 120/314/87 119/315/87
f 119/315/87 117/147/87 104/149/87
f 187/247/218 189/316/218 182/248/218
f 182/248/219 181/317/219 188/318/219
f 188/318/220 186/246/220 182/248/220
f 1/1/221 10/48/221 2/2/221
f 2/4/222 10/11/222 4/5/222
f 5/6/223 4/5/223 6/7/223
f 7/8/224 6/7/224 8/9/224
f 10/11/225 37/59/225 11/12/225
f 8/13/226 13/16/226 12/14/226
f 13/16/227 1/1/227 3/3/227
f 16/20/228 20/24/228 17/21/228
f 19/23/229 21/25/229 17/21/229
f 12/14/230 3/3/230 21/25/230
f 22/26/231 23/27/231 20/24/231
f 23/27/232 24/28/232 19/23/232
f 9/15/233 12/14/233 19/23/233
f 25/29/234 23/33/234 22/30/234
f 25/29/235 26/34/235 24/32/235
f 7/8/236 9/10/236 24/32/236
f 27/35/237 25/29/237 15/31/237
f 27/35/238 29/37/238 26/34/238
f 29/37/239 5/6/239 7/8/239
f 30/38/240 27/35/240 28/36/240
f 30/38/241 31/40/241 29/37/241
f 31/40/242 2/4/242 5/6/242
f 18/22/243 17/21/243 30/41/243
f 21/25/244 31/43/244 30/41/244
f 21/25/245 3/3/245 2/2/245
f 32/44/246 35/47/246 33/45/246
f 13/16/247 8/13/247 35/47/247
f 10/48/248 1/1/248 36/49/248
f 4/5/249 11/12/249 38/51/249
f 1/1/250 13/16/250 32/44/250
f 6/7/251 38/51/251 35/52/251
f 39/53/252 34/46/252 40/54/252
f 11/12/253 44/60/253 42/56/253
f 37/50/254 36/49/254 39/53/254
f 36/49/255 32/44/255 34/46/255
f 38/51/256 42/56/256 33/58/256
f 37/59/257 43/64/257 44/60/257
f 45/61/258 55/319/258 46/62/258
f 42/56/259 48/66/259 45/63/259
f 43/64/260 49/74/260 47/65/260
f 34/46/261 33/45/261 45/61/261
f 44/60/262 47/65/262 48/66/262
f 43/57/263 39/53/263 41/55/263
f 46/62/264 62/82/264 50/68/264
f 48/66/265 47/65/265 52/70/265
f 41/55/266 51/69/266 54/72/266
f 40/54/267 46/62/267 51/69/267
f 45/63/268 48/66/268 53/71/268
f 49/74/269 54/320/269 52/70/269
f 56/75/270 74/321/270 57/76/270
f 53/71/271 63/83/271 59/78/271
f 52/70/272 54/320/272 60/79/272
f 46/62/273 55/319/273 59/81/273
f 53/71/274 52/70/274 61/80/274
f 51/69/275 50/68/275 60/84/275
f 64/85/276 77/101/276 65/86/276
f 67/88/277 63/160/277 68/89/277
f 70/91/278 73/94/278 71/92/278
f 58/77/279 57/76/279 71/92/279
f 67/95/280 125/216/280 74/96/280
f 75/98/281 70/322/281 72/99/281
f 77/101/282 82/323/282 78/102/282
f 80/104/283 89/113/283 81/105/283
f 83/107/284 90/218/284 84/108/284
f 86/110/285 151/198/285 87/111/285
f 89/113/286 83/107/286 85/109/286
f 66/87/287 65/86/287 84/114/287
f 91/116/69 102/129/69 92/117/69
f 85/109/288 95/121/288 91/116/288
f 65/86/289 94/120/289 93/119/289
f 65/86/290 77/101/290 79/103/290
f 82/106/291 81/105/291 91/116/291
f 84/108/292 93/324/292 95/121/292
f 96/122/293 115/325/293 97/123/293
f 95/121/76 93/324/76 99/125/76
f 79/103/77 78/102/77 92/127/77
f 95/121/78 100/126/78 102/129/78
f 93/119/79 94/120/79 103/130/79
f 94/120/80 79/103/80 101/128/80
f 97/123/294 120/155/294 104/132/294
f 106/134/295 116/146/295 107/135/295
f 109/137/296 105/133/296 110/138/296
f 112/140/297 205/283/297 113/141/297
f 108/136/298 107/135/298 115/143/298
f 111/145/299 110/152/299 116/146/299
f 115/143/300 107/135/300 117/150/300
f 110/152/301 121/151/301 118/153/301
f 97/123/302 115/325/302 119/154/302
f 107/135/303 116/146/303 118/153/303
f 105/133/304 104/132/304 121/156/304
f 69/90/305 68/89/305 122/157/305
f 61/159/306 132/171/306 68/89/306
f 76/161/307 126/165/307 124/162/307
f 125/164/308 140/182/308 126/165/308
f 127/166/309 131/170/309 128/167/309
f 126/165/310 140/182/310 130/169/310
f 124/162/311 126/165/311 131/170/311
f 132/171/312 135/174/312 122/157/312
f 133/172/313 129/168/313 128/167/313
f 135/174/314 139/326/314 136/175/314
f 123/158/315 122/157/315 136/175/315
f 130/169/316 134/173/316 128/167/316
f 123/158/317 133/172/317 134/173/317
f 136/175/318 139/326/318 137/176/318
f 124/162/319 127/166/319 135/178/319
f 127/166/320 129/168/320 139/180/320
f 75/163/321 124/162/321 132/179/321
f 140/182/322 69/90/322 123/158/322
f 60/79/323 70/322/323 75/98/323
f 59/78/324 63/83/324 67/95/324
f 50/68/325 62/82/325 58/77/325
f 50/68/326 73/94/326 70/91/326
f 125/164/327 67/88/327 69/90/327
f 62/82/116 59/81/116 56/75/116
f 138/177/328 148/192/328 141/183/328
f 139/180/329 129/168/329 143/185/329
f 136/175/330 138/177/330 142/184/330
f 133/172/331 142/184/331 143/185/331
f 144/187/332 147/190/332 145/188/332
f 137/186/333 143/185/333 147/190/333
f 138/177/334 137/176/334 144/191/334
f 142/184/335 141/183/335 147/190/335
f 146/193/336 145/327/336 149/194/336
f 144/187/337 146/189/337 150/328/337
f 147/190/338 141/183/338 149/197/338
f 148/192/339 150/196/339 149/197/339
f 151/215/340 57/76/340 74/321/340
f 153/201/341 82/214/341 77/202/341
f 86/110/342 154/203/342 77/202/342
f 152/205/343 74/329/343 80/206/343
f 156/208/344 163/220/344 157/209/344
f 152/200/345 161/219/345 87/111/345
f 153/201/346 160/212/346 159/211/346
f 154/203/347 162/217/347 160/212/347
f 155/207/348 159/211/348 161/213/348
f 87/111/349 163/220/349 156/208/349
f 155/207/350 80/206/350 82/214/350
f 151/215/351 86/204/351 64/85/351
f 72/93/352 71/92/352 66/87/352
f 125/216/353 76/100/353 83/107/353
f 154/203/354 86/110/354 88/112/354
f 76/100/355 72/99/355 90/218/355
f 125/216/283 89/113/283 80/104/283
f 71/92/356 57/76/356 64/85/356
f 161/219/357 165/330/357 163/220/357
f 161/213/147 159/211/147 164/221/147
f 162/217/358 167/224/358 166/223/358
f 159/211/359 160/212/359 166/223/359
f 88/112/360 156/208/360 167/224/360
f 168/225/361 177/235/361 169/226/361
f 156/208/362 158/210/362 171/228/362
f 166/223/363 168/225/363 170/227/363
f 163/220/364 165/330/364 172/229/364
f 165/222/365 164/221/365 170/227/365
f 167/224/366 171/228/366 168/225/366
f 173/231/367 178/236/367 174/232/367
f 170/227/368 169/226/368 176/234/368
f 171/228/369 179/237/369 177/235/369
f 158/210/370 157/209/370 178/236/370
f 171/228/371 158/210/371 173/231/371
f 157/209/372 172/229/372 176/238/372
f 180/239/373 184/244/373 181/240/373
f 173/231/374 175/233/374 183/242/374
f 178/236/375 176/238/375 180/243/375
f 177/235/376 185/245/376 184/244/376
f 176/234/377 169/226/377 184/244/377
f 179/237/378 183/242/378 185/245/378
f 183/242/379 186/252/379 188/249/379
f 175/233/380 174/232/380 189/250/380
f 175/233/381 187/251/381 186/252/381
f 174/232/382 180/243/382 182/253/382
f 185/245/383 188/249/383 181/240/383
f 190/254/384 195/264/384 103/255/384
f 191/257/385 97/265/385 105/258/385
f 190/254/386 101/256/386 98/260/386
f 194/262/387 192/259/387 105/258/387
f 195/264/388 194/262/388 109/263/388
f 193/261/389 98/260/389 97/265/389
f 99/125/390 111/145/390 106/134/390
f 92/117/391 102/129/391 108/136/391
f 193/266/392 198/273/392 196/267/392
f 99/131/393 103/130/393 109/137/393
f 100/126/394 106/134/394 108/136/394
f 101/128/395 92/127/395 96/122/395
f 194/269/396 195/271/396 112/140/396
f 190/270/397 196/282/397 112/140/397
f 193/266/398 191/276/398 197/272/398
f 194/269/399 114/142/399 199/274/399
f 192/275/400 199/274/400 197/272/400
f 200/277/401 204/281/401 201/278/401
f 199/274/402 114/142/402 113/141/402
f 199/274/403 203/280/403 204/281/403
f 196/282/404 206/289/404 205/283/404
f 198/273/405 197/272/405 204/281/405
f 196/267/406 198/273/406 200/277/406
f 207/285/198 211/290/198 208/286/198
f 206/284/407 200/277/407 202/279/407
f 206/289/408 210/298/408 211/290/408
f 113/141/409 205/283/409 211/290/409
f 203/280/410 113/141/410 207/285/410
f 203/280/411 212/291/411 201/278/411
f 213/292/412 217/296/412 214/293/412
f 212/291/205 207/285/205 209/287/205
f 212/291/206 216/295/206 217/296/206
f 202/279/207 201/278/207 217/296/207
f 210/288/208 202/279/208 213/292/208
f 210/298/209 218/303/209 208/286/209
f 218/297/413 213/292/413 215/294/413
f 218/303/414 220/331/414 221/304/414
f 209/287/415 208/286/415 221/304/415
f 216/295/416 209/287/416 222/305/416
f 216/295/417 219/306/417 214/293/417
f 215/301/418 219/300/418 222/308/418
s off
