# Apple ModelIO OBJ File: Pohon_2
mtllib Pohon_2.mtl
g Pohon_2
v -24.4348 4.28253 72.1106
v -27.6065 1.10871 71.0093
v -24.5937 1.00349 72.3755
v -27.5302 4.98301 67.8968
v -27.9616 0.663816 67.7489
v -25.0916 4.82481 66.0791
v -25.3038 0.113706 65.8546
v -22.3246 4.39547 67.2771
v -22.291 0.008487 67.2208
v -27.2018 4.71187 70.9125
v -27.385 9.01823 67.9799
v -21.936 0.453378 70.4812
v -21.9962 4.12432 70.2928
v -29.1168 -5.96177 72.2829
v -25.3474 -5.96177 63.7305
v -19.8254 -5.96177 71.2711
v -24.153 -4.46938 73.3354
v -24.179 -5.96177 74.4592
v -21.3951 -1.39782 70.6841
v -20.687 -4.3 70.8044
v -24.5814 -1.42404 73.0364
v -20.4096 -5.96177 65.9067
v -21.8216 -1.80435 66.7676
v -21.1505 -3.96126 66.5479
v -25.08 -3.79189 64.8224
v -25.4344 -2.23709 65.2034
v -28.546 -3.96126 67.3533
v -29.701 -5.96177 66.9185
v -28.2949 -2.3098 67.525
v -28.0825 -4.3 71.6098
v -27.8684 -1.90328 71.4415
v -22.2042 9.72516 70.2166
v -22.8224 14.8532 67.4188
v -22.5116 14.6364 70.2722
v -22.5104 9.42511 67.4056
v -24.4885 9.67174 71.9093
v -27.0788 9.31828 70.7909
v -25.1007 9.07165 66.2872
v -24.8167 14.8055 71.988
v -22.6061 20.6652 70.2871
v -24.8865 20.6794 71.8947
v -25.4382 15.2391 66.281
v -27.4326 15.1914 70.8502
v -27.7433 15.4081 67.9968
v -22.847 20.3361 67.5269
v -22.39 24.1168 70.0675
v -25.3684 20.0212 66.3743
v -27.6489 20.0354 67.9819
v -27.4079 20.3645 70.7421
v -24.2362 27.8403 71.5251
v -24.392 24.0966 71.5407
v -26.9292 24.6046 68.0996
v -24.9272 24.6247 66.6264
v -26.6616 24.3405 70.5567
v -22.6576 24.3808 67.6104
v -22.4449 29.8758 67.9192
v -21.7351 32.5178 70.8141
v -22.1924 29.9019 70.2384
v -22.4805 27.301 67.5894
v -26.5286 27.6265 70.5318
v -26.6528 27.2582 67.4579
v -22.2121 27.6776 70.0539
v -24.6047 27.2213 66.0118
v -22.5145 35.3636 71.1661
v -23.934 38.0222 70.802
v -24.7551 35.2611 71.0163
v -23.788 30.0519 66.5126
v -25.9986 29.82 65.3295
v -25.5075 31.2663 65.2377
v -26.2484 30.024 70.7081
v -24.3073 32.5001 71.4017
v -26.0824 32.7817 70.2002
v -24.0941 29.976 71.6328
v -21.7148 32.8171 67.312
v -27.0237 30.061 68.8963
v -26.2848 33.081 68.3413
v -22.494 38.2095 69.7547
v -23.1207 42.8894 68.3278
v -22.9479 43.0375 69.9145
v -22.9388 35.5691 67.2698
v -24.3208 38.2454 67.2492
v -22.6874 38.3211 67.9783
v -25.8249 35.3641 70.1366
v -25.8174 37.7773 70.1044
v -26.559 35.5272 70.0473
v -21.7981 35.781 70.3249
v -19.7709 35.9356 69.1061
v -20.2128 36.9797 69.9688
v -24.5421 35.672 67.2315
v -25.7608 38.058 68.2965
v -25.5674 37.9464 70.0729
v -24.581 42.6979 67.695
v -23.8035 47.1202 68.1828
v -25.6957 42.8026 70.2357
v -24.2354 42.9941 70.8685
v -25.8684 42.6545 68.649
v -23.851 49.6677 69.4265
v -24.2835 52.2091 68.5705
v -24.2027 52.154 69.4125
v -25.8202 47.0521 69.677
v -25.9555 46.9361 68.4343
v -23.6682 47.2362 69.4255
v -24.9472 46.9701 67.6872
v -24.6765 47.2022 70.1726
v -24.4875 56.0019 69.7661
v -24.8881 52.2062 69.9083
v -25.9576 49.6206 68.4981
v -25.0497 52.3164 68.2244
v -25.0235 49.6106 67.8126
v -25.8384 49.6542 69.6478
v -25.6544 52.3135 69.5622
v -23.9078 51.61 71.5171
v -23.0162 51.8134 72.1705
v -23.2136 52.1108 71.9154
v -23.9702 49.6341 68.2768
v -25.7352 52.3686 68.7203
v -24.5921 55.9511 68.7707
v -24.9973 55.9514 69.0655
v -24.1346 55.9763 68.9736
v -24.0823 56.0017 69.4713
v -24.945 55.9768 69.5632
v -26.8918 31.4712 64.3003
v -26.5109 32.4849 64.2728
v -27.9255 31.3521 66.9273
v -24.7634 33.0987 67.2138
v -26.4678 32.8242 67.0376
v -28.8326 32.3868 65.6883
v -28.4416 34.6493 64.8216
v -29.4066 35.145 64.4748
v -26.9586 33.2346 65.2999
v -27.784 33.1023 66.0072
v -27.8196 29.9836 66.8741
v -28.2512 35.1979 63.4652
v -27.7323 34.5944 64.3013
v -28.714 31.5843 65.2643
v -28.9722 34.3144 62.3951
v -30.3873 36.0472 62.1156
v -29.887 36.4074 61.5354
v -29.7937 34.3599 63.1169
v -25.6533 32.7841 66.3068
v -30.6211 39.7767 60.953
v -29.4998 37.0414 62.49
v -30.1701 36.4561 63.2763
v -31.9799 39.6112 60.6063
v -32.7973 44.6636 59.1961
v -33.4276 44.6443 58.8451
v -31.5244 40.0665 61.7063
v -31.3615 39.3441 60.0658
v -32.7101 44.4519 58.5497
v -33.3903 44.4665 58.3912
v -21.8217 33.412 69.8192
v -21.2936 34.0789 67.6503
v -22.2798 38.2125 68.3265
v -22.1672 38.15 69.3251
v -22.2514 35.8985 67.3365
v -18.6634 37.8106 69.5487
v -16.4386 38.0068 68.8316
v -16.4959 39.0425 69.4184
v -20.9606 38.0898 68.1391
v -20.5531 37.1028 67.1247
v -19.9448 36.1158 67.9539
v -26.0228 35.5695 68.3189
v -20.8313 38.0238 69.2089
v -18.0036 37.2236 68.8234
v -18.9747 37.8905 67.2714
v -18.1989 37.3394 67.9053
v -19.5895 38.4417 68.1164
v -19.465 38.3976 68.9724
v -17.2947 39.81 67.8792
v -15.4313 40.1809 67.0352
v -17.286 38.8052 67.1664
v -16.9991 39.8832 68.7294
v -16.7706 38.022 67.903
v -14.7486 40.1182 69.0895
v -11.7009 41.1914 67.7746
v -11.6423 41.6463 68.1332
v -14.8216 39.4631 67.557
v -15.616 40.9175 67.8481
v -14.5137 39.3406 68.3837
v -15.3576 40.8792 68.6206
v -11.8743 41.2916 67.3363
v -8.88894 42.2219 66.8454
v -8.81661 41.9313 67.0162
v -11.8331 42.1351 67.874
v -12.076 41.7573 67.0503
v -11.9943 42.1847 67.4663
v -8.84447 42.4082 67.3665
v -8.77553 42.1053 67.5195
v -8.88583 42.4567 67.1133
v -8.77296 41.8515 67.2864
v -23.2876 49.6172 70.4607
v -24.1371 51.7549 69.8931
v -24.4845 51.94 70.3334
v -23.6405 50.9984 69.9336
v -24.9316 50.9637 70.7146
v -24.7851 49.6777 70.1119
v -24.396 49.5771 71.204
v -23.4455 51.1281 70.6436
v -22.9485 49.9143 71.1479
v -24.5113 51.1743 71.2906
v -24.325 49.9205 71.8867
v -23.9408 51.8714 70.3324
v -24.1994 51.9883 70.7059
v -22.6432 51.9364 71.472
v -21.9877 53.4541 71.9254
v -21.8008 53.3344 72.1833
v -23.2201 52.4592 71.4088
v -23.9954 52.0749 71.0896
v -23.7296 51.958 70.6963
v -22.9556 52.2402 71.0893
v -24.1094 51.1039 71.8433
v -23.8885 50.318 72.3224
v -23.8736 50.9706 72.1309
v -23.273 51.6015 70.6944
v -22.859 51.1467 71.1844
v -22.5129 51.7395 71.9116
v -22.1384 53.4837 72.4152
v -21.4084 54.3366 72.6741
v -21.4872 54.425 72.5527
v -21.7223 53.2807 72.4601
v -22.0188 53.3494 72.5994
v -22.1464 53.6171 72.0802
v -21.2646 54.3267 72.3998
v -20.4982 55.8001 72.5689
v -20.4075 55.7732 72.702
v -21.4924 54.513 72.3319
v -21.3878 54.4056 72.2299
v -21.2129 54.2913 72.5822
v -20.5764 55.8908 72.6245
v -20.3696 55.7779 72.8371
v -20.5128 55.8213 72.8955
v -20.5715 55.8635 72.7954
v -23.7375 50.3332 72.2906
v -23.5389 50.8645 72.643
v -22.622 51.5252 72.0233
v -23.2565 50.3177 71.8341
v -22.705 51.0096 71.605
v -22.3578 50.9124 72.2673
v -22.2765 51.3329 72.756
v -22.017 50.7329 72.8455
v -22.5548 51.4837 72.154
v -22.9661 51.5266 72.3463
v -23.1456 50.6721 73.4343
v -22.6398 50.1876 74.0536
v -22.6254 50.7295 74.3639
v -22.6929 51.359 72.9403
v -23.0526 50.132 73.2209
v -22.8009 50.3383 72.1952
v -21.9342 50.2006 73.904
v -22.1138 50.3119 74.9991
v -22.2346 50.145 73.0967
v -21.8638 51.3885 73.5888
v -21.4648 50.7904 73.8593
v -22.2801 51.4146 73.773
v -21.184 50.8527 74.8541
v -20.8644 51.7158 75.7284
v -20.4213 51.1919 76.1495
v -21.5049 51.3884 74.4281
v -21.8838 51.402 74.5925
v -22.0609 50.7903 75.1605
v -21.3824 51.1296 76.488
v -20.6463 51.3526 77.3247
v -20.5966 51.8349 77.6277
v -21.2432 51.7294 75.8927
v -21.4732 50.6393 76.2994
v -21.5307 50.3275 74.8491
v -19.8491 51.8828 77.3531
v -19.7842 52.9485 78.2109
v -19.3431 52.8089 78.7225
v -20.8387 50.6549 76.161
v -20.3775 52.1397 76.7892
v -20.6149 52.1352 76.8915
v -19.948 52.9454 78.2814
v -19.1647 53.974 79.6618
v -19.9696 52.3895 78.5802
v -19.9408 52.7759 78.9471
v -20.4225 51.3825 77.1959
v -18.9647 53.9697 79.9382
v -19.3875 53.967 79.783
v -19.2353 53.9456 80.1906
v -19.1236 53.7599 80.2151
v -19.8153 52.4149 78.4914
v -18.9424 53.7669 80.1249
v -23.0169 51.5759 72.217
v -26.6857 35.8313 68.4003
v -27.337 36.5052 69.943
v -27.3495 36.8685 68.5959
v -25.9588 37.995 68.4907
v -26.2444 38.3996 68.7851
v -28.3312 38.9854 69.017
v -26.8788 39.4146 69.2969
v -26.1988 38.1029 70.1092
v -27.988 41.6667 70.122
v -27.0409 39.0563 70.3263
v -28.5479 38.5978 70.0588
v -29.1188 41.1133 70.6382
v -29.649 43.8442 70.9074
v -28.972 41.3759 69.9324
v -28.0978 41.4239 70.8195
v -30.7987 45.8785 71.5221
v -29.2281 44.1677 70.9856
v -29.678 43.7205 71.281
v -29.2427 44.0598 71.3538
v -31.0451 45.6892 71.4763
v -30.8073 45.8153 71.7375
v -31.062 45.6168 71.6949
vn -0.4085 0.0932 0.908
vn -0.9909 0.0957 0.0948
vn -0.5703 0.0647 -0.8189
vn 0.4134 0.0149 -0.9104
vn -0.9932 0.0335 0.1112
vn 0.9939 0.009 -0.1095
vn 0.5866 0.0511 0.8082
vn -0 -1 -0
vn 0.5072 0.5128 0.6927
vn 0.5752 0.1735 0.7994
vn 0.5733 0.2529 0.7794
vn 0.8945 0.4364 -0.0974
vn 0.9495 0.3035 -0.0792
vn 0.951 0.2794 -0.1326
vn 0.3731 0.38 -0.8464
vn 0.4004 0.2153 -0.8907
vn 0.3634 0.2299 -0.9028
vn -0.5249 0.4589 -0.7169
vn -0.5906 0.0625 -0.8046
vn -0.6151 0.242 -0.7503
vn -0.8287 0.5524 0.0902
vn -0.9835 0.1372 0.118
vn -0.9899 0.1037 0.097
vn -0.3425 0.528 0.7771
vn -0.4006 0.0335 0.9156
vn -0.4518 0.2322 0.8614
vn 0.9926 0.0633 -0.1033
vn 0.9931 0.0354 -0.1119
vn -0.4002 0.0349 0.9158
vn -0.5956 0.038 -0.8024
vn 0.5944 0.0359 0.8033
vn 0.402 0.0382 -0.9148
vn 0.5761 0.0198 0.8171
vn -0.5945 -0.0333 -0.8034
vn -0.4028 -0.0335 0.9147
vn 0.5981 0.026 0.801
vn 0.3934 0.0248 -0.919
vn -0.9919 -0.0559 0.114
vn 0.9946 -0.0673 -0.0788
vn 0.4136 0.0198 -0.9102
vn -0.9937 0.0206 0.1098
vn 0.9959 0.0158 -0.0888
vn -0.5958 0.0243 -0.8028
vn -0.4178 0.021 0.9083
vn 0.5927 -0.0213 0.8052
vn -0.5903 0.1004 -0.8009
vn -0.4252 0.1216 0.8969
vn 0.5762 0.0013 0.8173
vn 0.3978 0.0003 -0.9175
vn -0.9858 0.1535 0.0677
vn 0.9833 -0.1487 -0.1054
vn 0.3948 -0.0305 -0.9183
vn -0.9936 0.11 0.027
vn 0.9937 -0.05 -0.1006
vn -0.574 -0.1204 -0.8099
vn -0.3956 0.023 0.9181
vn -0.0709 0.0981 0.9926
vn 0.4782 -0.2164 -0.8512
vn -0.5307 0.1843 0.8273
vn 0.5899 0.1229 0.798
vn 0.6692 -0.3059 -0.6772
vn -0.9544 0.2603 0.1458
vn 0.9884 0.0968 -0.1167
vn 0.3922 0.1956 -0.8989
vn -0.1177 0.0136 0.993
vn 0.4905 -0.4223 0.7623
vn -0.592 0.0564 -0.8039
vn -0.6283 0.0817 0.7736
vn 0.3939 0.0321 -0.9186
vn -0.5915 0.0461 -0.805
vn -0.4057 -0.0413 0.9131
vn 0.5946 0.0253 0.8036
vn 0.3835 0.1066 -0.9174
vn -0.9938 -0.0314 0.1063
vn 0.9866 0.1391 -0.0856
vn -0.9939 -0.0147 0.1096
vn 0.9806 0.1541 -0.1212
vn -0.5934 -0.0523 -0.8032
vn -0.4071 0.1073 0.907
vn 0.5801 0.1917 0.7917
vn 0.5843 -0.0313 0.811
vn -0.5868 0.1163 -0.8013
vn -0.4043 0.0573 0.9128
vn -0.6088 0.2434 0.7551
vn 0.3958 0.1515 -0.9058
vn -0.9923 0.0722 0.1008
vn -0.0339 0.9983 -0.0474
vn 0.4003 0.0819 -0.9127
vn -0.9759 0.1908 0.1061
vn 0.9942 -0.0295 -0.103
vn -0.5773 0.192 -0.7936
vn -0.4014 0.0775 0.9126
vn 0.5246 -0.2193 -0.8226
vn -0.516 -0.4656 -0.719
vn -0.7823 0.2925 0.55
vn -0.1392 0.9751 -0.1725
vn -0.137 0.3749 0.9169
vn 0.033 0.9747 0.2209
vn -0.5184 0.4304 0.739
vn -0.5316 -0.6361 -0.5593
vn 0.354 0.8487 0.3929
vn -0.3719 -0.689 -0.6221
vn 0.697 0.2467 -0.6733
vn 0.4268 0.6574 0.621
vn 0.8654 0.5009 0.0116
vn -0.4744 -0.5038 -0.7218
vn -0.9048 -0.0862 0.417
vn -0.9558 -0.2348 0.1771
vn -0.8833 -0.3012 0.3592
vn 0.5291 0.7785 -0.3376
vn -0.9852 -0.1607 0.0591
vn 0.7259 0.0775 -0.6834
vn 0.5874 -0.0797 0.8054
vn -0.3958 -0.0213 0.9181
vn 0.6018 0.3571 -0.7143
vn 0.9941 0.0001 -0.1083
vn 0.8904 0.118 -0.4396
vn -0.9509 -0.1893 0.2447
vn 0.7482 0.1671 -0.6421
vn 0.4284 0.7327 0.5287
vn -0.4839 0.1618 0.8601
vn -0.8727 -0.2016 0.4448
vn -0.6654 -0.5733 -0.4781
vn 0.4465 0.4924 0.7471
vn 0.1028 0.9291 -0.3554
vn -0.689 -0.4568 -0.5626
vn 0.9579 0.2849 0.0359
vn 0.7651 0.0109 -0.6438
vn 0.9313 -0.3434 0.1212
vn 0.2243 0.9739 0.0357
vn 0.6239 0.3436 0.7019
vn 0.1414 -0.0955 -0.9853
vn 0.3092 -0.4558 0.8347
vn 0.7753 -0.6316 -0.0054
vn -0.4661 0.5332 -0.706
vn 0.0997 0.9937 0.051
vn 0.261 -0.029 -0.9649
vn 0.4498 -0.448 0.7726
vn 0.6645 0.3008 -0.684
vn 0.9595 0.2458 0.1374
vn -0.5935 0.0565 -0.8029
vn 0.1262 0.6315 0.765
vn -0.9873 0.105 0.1194
vn 0.0321 -0.0011 -0.9995
vn -0.0719 0.1264 0.9894
vn 0.5538 -0.8058 -0.2097
vn 0.3186 -0.4869 -0.8133
vn -0.2462 0.9651 0.0893
vn -0.2852 0.6946 -0.6605
vn -0.0182 0.5813 0.8135
vn -0.4363 0.5181 -0.7357
vn -0.2247 0.5089 0.831
vn -0.3802 0.6235 -0.6832
vn 0.4416 -0.8805 -0.1723
vn 0.267 -0.5612 -0.7835
vn -0.4997 0.8583 0.1168
vn 0.4863 -0.5787 0.6547
vn 0.2731 -0.5576 -0.7839
vn -0.5453 0.8299 0.1182
vn 0.4556 -0.5189 0.7233
vn -0.1855 0.4036 0.8959
vn 0.4936 -0.8146 -0.3045
vn 0.015 -0.5037 -0.8637
vn -0.0051 0.5216 0.8532
vn 0.4551 -0.8119 -0.3656
vn -0.3109 0.6681 -0.6761
vn 0.2101 -0.4439 -0.8711
vn -0.3122 0.9379 0.151
vn 0.9788 0.1553 -0.1336
vn -0.0696 0.9866 0.1475
vn 0.2571 -0.6522 0.7131
vn 0.101 0.4966 0.8621
vn 0.1612 -0.9392 -0.3031
vn -0.1473 0.7042 -0.6945
vn 0.5531 -0.405 0.7281
vn 0.5152 0.8558 0.0467
vn 0.8782 0.0426 -0.4763
vn -0.99 -0.051 -0.1319
vn -0.9424 -0.0332 0.3328
vn 0.7798 0.5298 0.3336
vn -0.9941 -0.0034 0.1086
vn 0.4014 0.0608 -0.9139
vn 0.8597 0.149 -0.4886
vn -0.3984 0.0075 0.9172
vn -0.5957 0.0209 -0.803
vn 0.9917 0.0746 -0.105
vn -0.7886 -0.0899 0.6082
vn 0.2214 -0.8802 0.4198
vn 0.8458 0.4332 -0.3115
vn -0.6808 0.5812 0.4458
vn 0.1187 0.9453 -0.3038
vn 0.7678 -0.1452 -0.624
vn -0.5322 0.5166 0.6707
vn -0.0095 0.8211 -0.5707
vn -0.7042 0.2147 0.6768
vn 0.7763 0.004 -0.6304
vn 0.9326 -0.1325 -0.3357
vn -0.6485 0.3499 0.6761
vn 0.8849 -0.3411 -0.3171
vn 0.3529 -0.4571 0.8164
vn -0.6874 0.297 0.6628
vn -0.7778 0.5773 0.2484
vn -0.2627 0.6806 -0.684
vn 0.7499 -0.3239 -0.5768
vn -0.8157 0.5306 0.2307
vn -0.3232 0.4671 -0.823
vn 0.7245 -0.2514 -0.6418
vn 0.8608 -0.3951 -0.3208
vn 0.3526 -0.2855 0.8912
vn 0.6323 0.7202 -0.2853
vn 0.8634 -0.4509 -0.2265
vn 0.3363 -0.3342 0.8805
vn -0.7278 0.3654 0.5803
vn -0.8383 0.5341 0.1095
vn -0.3623 0.4319 -0.826
vn 0.3519 0.9184 0.181
vn 0.4117 0.8994 -0.1468
vn -0.8405 -0.0442 0.5401
vn 0.4715 0.2069 0.8573
vn 0.333 -0.8385 0.4314
vn 0.9256 -0.089 -0.3679
vn 0.858 0.31 -0.4096
vn 0.135 -0.9752 0.1753
vn 0.8773 0.2176 -0.4278
vn 0.1957 0.9592 0.2042
vn -0.837 -0.2549 0.4841
vn 0.1402 0.9738 0.179
vn -0.8819 -0.2966 0.3663
vn -0.0151 -0.9795 -0.2007
vn 0.0411 -0.9933 0.1077
vn 0.0241 -0.9982 0.0547
vn 0.819 0.336 -0.4652
vn 0.027 0.9964 -0.0799
vn 0.8051 0.2477 -0.5389
vn 0.9053 0.3231 -0.2757
vn 0.0303 0.9995 -0.0128
vn -0.8074 -0.1064 0.5803
vn -0.6538 -0.3531 0.6692
vn -0.0589 0.9745 -0.2164
vn -0.8892 -0.0111 0.4574
vn 0.0792 -0.9752 0.2065
vn 0.7477 0.3881 -0.5388
vn 0.1289 -0.8597 0.4942
vn 0.7586 0.3401 -0.5558
vn -0.15 0.9399 -0.3067
vn -0.2291 0.8383 -0.4947
vn -0.1981 0.8852 -0.4209
vn -0.4765 -0.5864 0.6551
vn 0.3738 -0.804 0.4625
vn -0.0295 0.9975 0.0635
vn -0.6686 -0.3135 0.6743
vn 0.3957 -0.7943 0.461
vn 0.7682 0.3264 -0.5507
vn 0.4589 -0.7892 0.4081
vn -0.9276 0.3596 0.1015
vn 0.4054 0.3552 0.8423
vn -0.8923 0.4098 0.1893
vn 0.7858 -0.6083 0.1118
vn 0.5654 -0.7535 0.3354
vn -0.8214 0.4973 0.2794
vn -0.8117 0.4953 0.3095
vn -0.6869 0.6412 0.3421
vn 0.7511 -0.6158 -0.238
vn 0.7998 -0.5251 -0.2908
vn 0.852 -0.4379 -0.2869
vn -0.5631 0.6906 0.4539
vn -0.6861 0.6648 0.2956
vn 0.5098 -0.608 -0.6086
vn 0.6899 -0.485 -0.5374
vn 0.7285 -0.3954 0.5595
vn -0.5475 0.6875 0.4771
vn 0.6781 -0.0275 -0.7345
vn 0.4534 -0.0698 -0.8886
vn -0.3866 0.1783 0.9049
vn 0.0566 0.9634 -0.2622
vn -0.7955 0.5238 0.3047
vn -0.6189 0.5846 0.5246
vn -0.846 -0.5166 -0.1315
vn -0.7097 0.0684 -0.7012
vn -0.3785 -0.915 -0.1398
vn -0.5394 0.8269 0.1589
vn 0.0326 0.4662 -0.8841
vn -0.1165 0.0132 0.9931
vn -0.3623 0.3674 -0.8566
vn 0.6433 0.7515 0.1463
vn 0.0682 0.3727 -0.9255
vn 0.7449 0.5849 0.3209
vn -0.8838 -0.3476 -0.3132
vn -0.0376 -0.0769 0.9963
vn -0.953 -0.1596 -0.2576
vn 0.9003 0.3472 0.2626
vn -0.9536 -0.1573 -0.2569
vn -0.097 -0.2443 0.9648
vn -0.0312 0.2729 -0.9615
vn -0.0926 -0.257 0.962
vn -0.0549 0.3015 -0.9519
vn 0.9037 0.3397 0.2606
vn -0.6202 0.7591 0.1978
vn 0.7521 0.6238 0.2126
vn -0.8083 -0.5374 -0.2406
vn 0.0018 -0.212 0.9773
vn -0.3875 0.0682 0.9194
vn -0.9865 0.114 0.1177
vn -0.5918 0.0866 -0.8014
vn 0.4005 0.0256 -0.9159
vn -0.994 0.0293 0.1051
vn 0.9942 0.0108 -0.1073
vn 0.5987 0.0356 0.8002
vn 0.5067 0.4663 0.7251
vn 0.5854 0.1604 0.7947
vn 0.5959 0.2138 0.7741
vn 0.9276 0.3666 -0.0718
vn 0.9646 0.23 -0.1289
vn 0.9545 0.2635 -0.1399
vn 0.3819 0.4073 -0.8296
vn 0.3491 0.2973 -0.8886
vn 0.4007 0.3185 -0.8591
vn -0.5462 0.4293 -0.7193
vn -0.6232 0.174 -0.7624
vn -0.5587 0.1244 -0.82
vn -0.8706 0.4738 0.1325
vn -0.9906 0.0953 0.098
vn -0.9905 0.0997 0.0943
vn -0.3078 0.5758 0.7574
vn -0.4463 0.1023 0.889
vn -0.4026 0.1642 0.9005
vn 0.9918 0.0573 -0.1141
vn 0.9937 0.0394 -0.1047
vn -0.3932 0.0304 0.919
vn -0.5955 0.038 -0.8025
vn 0.5987 0.0331 0.8003
vn 0.3907 0.0459 -0.9194
vn 0.5974 0.0074 0.8019
vn -0.5983 -0.0314 -0.8007
vn -0.3916 -0.0391 0.9193
vn 0.5947 0.0281 0.8035
vn 0.4014 0.021 -0.9157
vn -0.9928 -0.0608 0.1035
vn 0.9926 -0.0442 -0.1128
vn 0.4003 0.012 -0.9163
vn -0.9963 0.0065 0.0862
vn 0.9942 0.0066 -0.1078
vn -0.5761 0.0091 -0.8173
vn -0.3976 0.0098 0.9175
vn 0.5864 -0.0262 0.8096
vn -0.5721 0.111 -0.8126
vn -0.3797 0.1495 0.9129
vn 0.5925 0.0142 0.8054
vn 0.4147 0.0101 -0.9099
vn -0.9739 0.1887 0.1263
vn 0.9697 -0.2439 -0.0152
vn 0.5827 -0.255 -0.7717
vn -0.9928 0.0411 0.1125
vn 0.9915 -0.0609 -0.1145
vn -0.5866 -0.1321 -0.799
vn -0.3991 0.0204 0.9167
vn 0.5116 0.3788 0.7712
vn 0.4701 0.0205 -0.8824
vn -0.393 0.0509 0.9181
vn 0.2175 -0.2459 0.9446
vn 0.0534 0.2402 -0.9693
vn -0.911 0.1271 0.3924
vn 0.9896 0.1016 -0.1014
vn 0.0242 0.0048 -0.9997
vn 0.1165 0.0129 0.9931
vn 0.5168 -0.1837 0.8362
vn -0.5935 0.0553 -0.803
vn -0.4075 0.1905 0.8931
vn -0.5957 0.0475 -0.8018
vn -0.3934 -0.0361 0.9187
vn 0.5855 0.0282 0.8102
vn 0.4005 0.1144 -0.9091
vn -0.9934 -0.03 0.111
vn 0.9856 0.132 -0.106
vn 0.5881 -0.0308 0.8082
vn -0.5768 0.1121 -0.8092
vn -0.4037 0.0571 0.9131
vn -0.559 0.5949 0.5777
vn 0.4238 0.1403 -0.8948
vn -0.9924 0.0719 0.0999
vn 0.4198 0.083 -0.9038
vn -0.9775 0.1893 0.0931
vn 0.9948 -0.0289 -0.0974
vn -0.5653 0.1937 -0.8018
vn -0.4077 0.0771 0.9098
vn 0.5222 -0.2295 -0.8213
vn -0.6118 -0.4072 -0.6781
vn -0.7086 0.7045 -0.0393
vn -0.1351 0.9697 -0.2037
vn -0.4984 0.3839 0.7773
vn 0.2009 0.9646 0.1711
vn -0.4963 0.4351 0.7513
vn -0.3429 -0.7545 -0.5597
vn 0.3042 0.8675 0.3935
vn -0.5276 -0.6386 -0.5602
vn 0.4912 -0.2074 -0.846
vn 0.467 0.6804 0.5647
vn 0.8517 0.4954 -0.171
vn -0.5645 -0.559 -0.6073
vn -0.8717 -0.3233 0.3682
vn -0.9497 -0.0626 0.3069
vn -0.926 -0.0859 0.3677
vn 0.8366 0.3669 -0.4067
vn -0.916 0.0781 0.3936
vn 0.5967 -0.0303 -0.8019
vn 0.5826 -0.0723 0.8095
vn -0.3948 -0.0201 0.9186
vn 0.7146 0.4474 -0.5377
vn 0.7543 0.0512 -0.6545
vn -0.9092 -0.1914 0.3698
vn 0.8625 0.1833 -0.4716
vn 0.325 0.6047 0.7271
vn -0.9176 -0.038 0.3957
vn -0.936 -0.2384 0.2592
vn -0.466 -0.5134 -0.7206
vn 0.629 0.5605 0.5386
vn 0.1336 0.947 -0.2922
vn -0.9631 -0.268 0.0258
vn 0.6295 0.5588 0.5398
vn 0.2165 -0.2248 -0.95
vn 0.9934 0.1134 0.0155
vn 0.2281 0.973 0.0363
vn 0.7691 0.3465 0.537
vn 0.3389 0.1364 -0.9309
vn 0.2937 -0.5947 0.7484
vn 0.8297 -0.5186 -0.2064
vn -0.0938 0.3907 -0.9157
vn 0.0982 0.9939 0.0494
vn 0.2664 -0.5185 -0.8125
vn 0.4502 -0.4482 0.7723
vn -0.0266 0.2515 -0.9675
vn 0.7866 -0.1364 0.6023
vn -0.5576 0.0254 0.8297
vn -0.5949 0.0554 -0.8019
vn -0.078 0.3773 0.9228
vn -0.9871 0.1015 0.1238
vn 0.2227 -0.0594 0.9731
vn 0.5558 -0.8018 -0.2194
vn 0.3186 -0.4869 -0.8132
vn -0.2491 0.9647 0.0858
vn -0.1831 0.6669 -0.7224
vn -0.1154 0.6112 0.783
vn -0.4224 0.6218 -0.6595
vn -0.2472 0.5214 0.8167
vn -0.3935 0.5296 -0.7514
vn 0.4221 -0.8839 -0.2013
vn 0.252 -0.5561 -0.792
vn -0.5059 0.8565 0.1022
vn 0.4856 -0.5026 0.7153
vn 0.2505 -0.421 -0.8718
vn -0.4972 0.8423 0.2081
vn 0.4692 -0.4155 0.7792
vn -0.1876 0.553 0.8118
vn 0.5564 -0.8034 -0.2121
vn 0.0203 -0.5167 -0.8559
vn 0.0346 0.4787 0.8773
vn 0.486 -0.8199 -0.3025
vn -0.311 0.6928 -0.6506
vn 0.2146 -0.4485 -0.8677
vn -0.2842 0.9318 0.2257
vn 0.9848 0.1228 -0.1228
vn 0.9766 0.156 -0.1481
vn 0.9795 0.1532 -0.1307
vn -0.0561 0.9789 0.1964
vn 0.2629 -0.618 0.741
vn 0.1127 0.4682 0.8764
vn 0.168 -0.9445 -0.2824
vn -0.1392 0.7455 -0.6518
vn 0.5224 -0.3909 0.7578
vn 0.4427 0.7186 0.5363
vn 0.8776 0.0662 -0.4748
vn -0.4526 0.4965 0.7407
vn -0.9196 -0.2476 0.3049
vn 0.7859 0.1077 -0.6089
vn -0.9946 -0.0058 0.1033
vn 0.3909 0.0549 -0.9188
vn 0.9491 0.1337 -0.2852
vn -0.4034 0.0047 0.915
vn -0.5914 0.0187 -0.8062
vn 0.991 0.07 -0.1144
vn -0.9867 -0.079 0.1423
vn 0.2278 -0.9297 0.2895
vn 0.753 0.4696 -0.461
vn -0.7751 0.5038 0.3813
vn 0.1217 0.9682 -0.2187
vn 0.7253 -0.1103 -0.6795
vn -0.6771 0.6023 0.4228
vn -0.2533 0.8672 -0.4288
vn -0.7673 0.1626 0.6203
vn 0.3003 0.3892 -0.8708
vn 0.7727 0.0199 -0.6344
vn 0.8613 -0.3169 -0.3972
vn 0.2921 -0.4502 0.8438
vn -0.6401 0.2091 0.7393
vn -0.795 0.495 0.3506
vn -0.1532 0.5982 -0.7866
vn 0.7047 -0.2924 -0.6465
vn -0.8157 0.5306 0.2306
vn 0.8423 -0.4317 -0.3227
vn 0.2762 -0.3125 0.9089
vn -0.6784 0.3098 0.6662
vn -0.8395 0.4976 0.2181
vn -0.238 0.3506 -0.9058
vn 0.5301 0.8396 0.119
vn 0.1718 0.2739 0.9463
vn 0.4515 0.1701 0.8759
vn 0.3085 -0.753 0.5812
vn 0.9101 -0.3394 0.2377
vn 0.9026 0.2404 -0.3571
vn 0.0099 -0.999 0.0443
vn 0.8967 0.1828 -0.4031
vn 0.2469 0.9338 0.2589
vn -0.8409 -0.3179 0.438
vn 0.1876 0.9645 0.1859
vn -0.8109 -0.0814 0.5794
vn -0.0149 -0.9795 -0.2007
vn 0.0548 -0.9924 0.1098
vn 0.0305 -0.9979 0.0574
vn 0.8464 0.3005 -0.4396
vn 0.8713 0.1505 -0.4671
vn 0.843 0.3994 -0.3604
vn 0.0571 0.9983 -0.0123
vn -0.8284 -0.2615 0.4953
vn -0.7284 -0.1241 0.6738
vn -0.8903 -0.0541 0.4522
vn 0.0691 -0.9759 0.2071
vn 0.7547 0.3828 -0.5328
vn 0.3608 -0.825 0.435
vn 0.8181 0.2953 -0.4934
vn -0.1039 0.9425 -0.3175
vn -0.28 0.8391 -0.4664
vn -0.6853 -0.3355 0.6464
vn 0.3924 -0.8001 0.4536
vn -0.0164 0.9995 0.0276
vn -0.3141 -0.6413 0.7001
vn 0.2877 -0.8076 0.5147
vn 0.7567 0.3362 -0.5607
vn 0.9723 -0.0916 -0.2152
vn -0.9185 0.1794 0.3524
vn 0.5091 0.6126 0.6045
vn -0.8867 0.4456 0.1229
vn 0.6288 -0.7648 0.1401
vn 0.489 -0.7957 0.3574
vn -0.8227 0.4851 0.2965
vn -0.8158 0.5281 0.2356
vn -0.6751 0.5974 0.4328
vn 0.819 -0.5387 -0.1974
vn 0.753 -0.5914 -0.2885
vn 0.7175 -0.5981 -0.357
vn -0.5632 0.6939 0.4487
vn -0.6853 0.642 0.3438
vn 0.7308 -0.5066 -0.4574
vn 0.6921 -0.4648 -0.5523
vn 0.9314 -0.057 -0.3595
vn -0.5349 0.687 0.4919
vn 0.6712 -0.1671 -0.7222
vn 0.5393 0.6933 -0.4781
vn -0.4767 0.5807 0.6599
vn 0.0572 0.9669 -0.2486
vn -0.5911 0.4829 0.6461
vn -0.7875 0.1653 0.5938
vn -0.7785 -0.6252 -0.0556
vn -0.0932 0.0728 -0.993
vn -0.2059 -0.9746 -0.0877
vn -0.225 0.9706 0.0855
vn -0.0626 0.1667 -0.984
vn -0.0472 -0.07 0.9964
vn -0.1481 0.0909 -0.9848
vn 0.8189 0.5739 0.0057
vn 0.8632 0.4982 0.0819
vn -0.8618 -0.4918 -0.1247
vn -0.0814 -0.2891 0.9538
vn -0.9752 -0.1761 -0.1339
vn -0.0067 -0.2015 0.9795
vn 0.0648 0.382 -0.9219
vn 0.9054 0.3964 0.1521
vn -0.6229 0.7558 0.202
vt 0.392296 0.18527
vt 0.346056 0.116668
vt 0.392296 0.116668
vt 0.299816 0.18527
vt 0.299816 0.116668
vt 0.235335 0.133994
vt 0.193649 0.197231
vt 0.193649 0.131625
vt 0.168665 0.189175
vt 0.168665 0.121719
vt 0.346056 0.18527
vt 0.299816 0.269609
vt 0.091293 0.134407
vt 0.091293 0.191989
vt 0.056305 0.131625
vt 0.676684 0.422996
vt 0.750451 0.295229
vt 0.824217 0.422996
vt 0.102086 0.027805
vt 0.056305 0.057204
vt 0.056305 0.027805
vt 0.091293 0.104033
vt 0.091293 0.057204
vt 0.056305 0.087314
vt 0.147868 0.027805
vt 0.168665 0.092097
vt 0.168665 0.057204
vt 0.193649 0.057204
vt 0.193649 0.027805
vt 0.196082 0.087314
vt 0.235335 0.063308
vt 0.235335 0.027805
vt 0.235335 0.088672
vt 0.346056 0.046102
vt 0.299816 0.016884
vt 0.346056 0.016884
vt 0.299816 0.094421
vt 0.299816 0.046102
vt 0.347724 0.094421
vt 0.392296 0.016884
vt 0.392296 0.094421
vt 0.392296 0.046102
vt 0.091293 0.279785
vt 0.168665 0.350175
vt 0.091293 0.356866
vt 0.168665 0.266582
vt 0.392296 0.269609
vt 0.346056 0.269609
vt 0.235335 0.199595
vt 0.193649 0.255404
vt 0.056305 0.197231
vt 0.056305 0.255404
vt 0.056305 0.363044
vt 0.091293 0.451308
vt 0.056305 0.422929
vt 0.235335 0.260597
vt 0.235335 0.36234
vt 0.392296 0.350064
vt 0.346056 0.350064
vt 0.299816 0.350064
vt 0.168665 0.434489
vt 0.091293 0.505586
vt 0.235335 0.434592
vt 0.299816 0.441938
vt 0.280325 0.363044
vt 0.392296 0.441938
vt 0.346056 0.441938
vt 0.056305 0.527929
vt 0.056305 0.486641
vt 0.280325 0.490222
vt 0.235335 0.504548
vt 0.346056 0.496216
vt 0.168665 0.496756
vt 0.299816 0.496216
vt 0.168665 0.581651
vt 0.091293 0.638951
vt 0.091293 0.59639
vt 0.168665 0.541737
vt 0.349994 0.541802
vt 0.299816 0.496779
vt 0.091293 0.561429
vt 0.280325 0.527929
vt 0.235335 0.545145
vt 0.392296 0.496216
vt 0.091698 0.674374
vt 0.056305 0.732676
vt 0.056305 0.674374
vt 0.640329 0.675376
vt 0.653824 0.709127
vt 0.635508 0.709127
vt 0.366385 0.588517
vt 0.392296 0.629632
vt 0.343 0.629632
vt 0.056305 0.623252
vt 0.056305 0.577733
vt 0.235335 0.590281
vt 0.168665 0.62917
vt 0.299816 0.541802
vt 0.299816 0.629632
vt 0.091293 0.735251
vt 0.136191 0.77977
vt 0.091293 0.811249
vt 0.17567 0.678762
vt 0.207374 0.714764
vt 0.158349 0.714929
vt 0.717027 0.677845
vt 0.792116 0.705929
vt 0.733705 0.705929
vt 0.520849 0.02795
vt 0.535066 0.090286
vt 0.516609 0.090286
vt 0.235335 0.678762
vt 0.23943 0.706815
vt 0.392296 0.672257
vt 0.368187 0.716894
vt 0.352516 0.672257
vt 0.207374 0.779974
vt 0.116916 0.838232
vt 0.392296 0.716894
vt 0.368187 0.795328
vt 0.032952 0.77977
vt 0.344078 0.795328
vt 0.344078 0.716894
vt 0.113288 0.920648
vt 0.166196 0.920648
vt 0.056305 0.959652
vt 0.368187 0.828823
vt 0.344078 0.828823
vt 0.091293 0.878412
vt 0.23943 0.77977
vt 0.207374 0.842355
vt 0.392296 0.828823
vt 0.036049 0.878412
vt 0.176405 0.972989
vt 0.056305 0.972989
vt 0.23943 0.878412
vt 0.207374 0.920649
vt 0.207374 0.880829
vt 0.367309 0.914673
vt 0.390439 0.958116
vt 0.367259 0.958116
vt 0.489016 0.486624
vt 0.444927 0.475818
vt 0.463215 0.460155
vt 0.138094 0.878412
vt 0.344078 0.958116
vt 0.344078 0.914673
vt 0.725561 0.93991
vt 0.743823 0.940052
vt 0.743576 0.971684
vt 0.223674 0.972989
vt 0.207917 0.972989
vt 0.344078 0.986359
vt 0.192161 0.972989
vt 0.23943 0.972989
vt 0.366385 0.986359
vt 0.650487 0.73422
vt 0.633174 0.73422
vt 0.685549 0.675376
vt 0.664917 0.675376
vt 0.5978 0.675376
vt 0.575276 0.709127
vt 0.571814 0.675376
vt 0.613382 0.675376
vt 0.600109 0.709127
vt 0.573211 0.73422
vt 0.613778 0.762983
vt 0.614099 0.782485
vt 0.61163 0.73422
vt 0.594128 0.73422
vt 0.682473 0.709127
vt 0.640057 0.782485
vt 0.628174 0.762983
vt 0.683484 0.73422
vt 0.666498 0.782485
vt 0.710095 0.810515
vt 0.674252 0.816333
vt 0.558581 0.73422
vt 0.558834 0.709127
vt 0.586782 0.782485
vt 0.545713 0.675376
vt 0.613217 0.709127
vt 0.392296 0.541802
vt 0.643135 0.844089
vt 0.642435 0.816333
vt 0.611199 0.816333
vt 0.578328 0.816333
vt 0.565312 0.90336
vt 0.614307 0.884645
vt 0.71173 0.90336
vt 0.594503 0.844089
vt 0.720555 0.844089
vt 0.692672 0.844089
vt 0.861351 0.970016
vt 0.826599 0.942309
vt 0.861351 0.942309
vt 0.683457 0.870463
vt 0.647788 0.870476
vt 0.128374 0.65279
vt 0.151723 0.655486
vt 0.132973 0.70685
vt 0.123682 0.692618
vt 0.115087 0.675677
vt 0.155948 0.678762
vt 0.516609 0.131575
vt 0.535066 0.164344
vt 0.516609 0.164344
vt 0.442466 0.02795
vt 0.431253 0.090286
vt 0.431253 0.02795
vt 0.461406 0.02795
vt 0.484073 0.090286
vt 0.464993 0.090286
vt 0.503686 0.02795
vt 0.480207 0.02795
vt 0.446527 0.090286
vt 0.235335 0.639749
vt 0.271935 0.678762
vt 0.49806 0.090286
vt 0.299816 0.672257
vt 0.431253 0.131575
vt 0.464993 0.131575
vt 0.446527 0.131575
vt 0.484073 0.131575
vt 0.49806 0.131575
vt 0.484073 0.164344
vt 0.464993 0.20899
vt 0.464993 0.164344
vt 0.49806 0.164344
vt 0.446527 0.164344
vt 0.431253 0.164344
vt 0.516609 0.20899
vt 0.535066 0.273062
vt 0.51661 0.273062
vt 0.446527 0.20899
vt 0.484073 0.20899
vt 0.535066 0.20899
vt 0.49806 0.20899
vt 0.431253 0.20899
vt 0.446527 0.273062
vt 0.461406 0.33
vt 0.442466 0.33
vt 0.49806 0.273062
vt 0.431253 0.273062
vt 0.464993 0.273062
vt 0.484073 0.273062
vt 0.668544 0.962385
vt 0.670972 0.948966
vt 0.690909 0.955703
vt 0.480207 0.33
vt 0.535066 0.33
vt 0.520849 0.33
vt 0.503686 0.33
vt 0.431253 0.33
vt 0.079583 0.920648
vt 0.559311 0.437832
vt 0.581501 0.464303
vt 0.553822 0.465096
vt 0.549188 0.352743
vt 0.576635 0.352173
vt 0.558668 0.406423
vt 0.416682 0.92726
vt 0.390439 0.914673
vt 0.041407 0.920648
vt 0.008132 0.920648
vt 0.589114 0.437213
vt 0.530073 0.407018
vt 0.53005 0.353141
vt 0.23943 0.838232
vt 0.512472 0.59603
vt 0.511077 0.528953
vt 0.537981 0.517563
vt 0.491156 0.589561
vt 0.490442 0.555225
vt 0.535818 0.438321
vt 0.532242 0.465545
vt 0.713838 0.568202
vt 0.787738 0.554817
vt 0.787738 0.569479
vt 0.488164 0.445655
vt 0.510158 0.484738
vt 0.509733 0.464292
vt 0.487801 0.428155
vt 0.489509 0.510316
vt 0.466719 0.55493
vt 0.459859 0.531169
vt 0.509229 0.440061
vt 0.487351 0.406515
vt 0.508545 0.407174
vt 0.486964 0.387899
vt 0.787738 0.60761
vt 0.85361 0.601833
vt 0.85361 0.613898
vt 0.713838 0.580801
vt 0.787738 0.582092
vt 0.787738 0.596519
vt 0.713838 0.595213
vt 0.713838 0.606292
vt 0.713838 0.621819
vt 0.787738 0.623154
vt 0.713838 0.541713
vt 0.713838 0.553556
vt 0.85361 0.572419
vt 0.888831 0.544616
vt 0.888831 0.565071
vt 0.939909 0.657003
vt 0.787738 0.542961
vt 0.85361 0.55647
vt 0.85361 0.586139
vt 0.63512 0.943022
vt 0.63512 0.972437
vt 0.601968 0.943022
vt 0.888831 0.582667
vt 0.888831 0.602795
vt 0.913948 0.621219
vt 0.926554 0.511648
vt 0.85361 0.543572
vt 0.573451 0.943022
vt 0.599131 0.972437
vt 0.573451 0.972437
vt 0.495294 0.615729
vt 0.505898 0.636175
vt 0.490664 0.636175
vt 0.688995 0.578516
vt 0.471904 0.581619
vt 0.508138 0.387584
vt 0.445143 0.636175
vt 0.461822 0.662142
vt 0.444542 0.674202
vt 0.527375 0.615729
vt 0.51005 0.615729
vt 0.448344 0.615729
vt 0.461822 0.636175
vt 0.462858 0.615729
vt 0.480054 0.636175
vt 0.493788 0.674202
vt 0.510764 0.704536
vt 0.496384 0.704536
vt 0.480054 0.661943
vt 0.507742 0.674202
vt 0.527376 0.636175
vt 0.527376 0.704536
vt 0.511547 0.740927
vt 0.527376 0.674202
vt 0.461822 0.697692
vt 0.445902 0.704536
vt 0.480054 0.697493
vt 0.445055 0.740927
vt 0.461822 0.789279
vt 0.445596 0.794311
vt 0.461822 0.732543
vt 0.480054 0.73225
vt 0.498205 0.740927
vt 0.497682 0.794311
vt 0.519985 0.841116
vt 0.503727 0.841116
vt 0.480054 0.788986
vt 0.511067 0.794311
vt 0.527376 0.740927
vt 0.450609 0.841116
vt 0.461822 0.903122
vt 0.450718 0.903122
vt 0.527376 0.794311
vt 0.461822 0.836692
vt 0.480054 0.836627
vt 0.480054 0.903122
vt 0.463863 0.983713
vt 0.521297 0.903122
vt 0.503267 0.903122
vt 0.527376 0.841116
vt 0.624459 0.635186
vt 0.579373 0.587712
vt 0.624459 0.587712
vt 0.515792 0.983713
vt 0.503311 0.983713
vt 0.527376 0.903122
vt 0.445143 0.983713
vt 0.428517 0.983713
vt 0.428517 0.903122
vt 0.481922 0.983713
vt 0.660991 0.635186
vt 0.660991 0.587712
vt 0.428517 0.841116
vt 0.428517 0.794311
vt 0.428517 0.740927
vt 0.428517 0.704536
vt 0.428517 0.674202
vt 0.428517 0.636175
vt 0.428517 0.615729
vt 0.507343 0.349356
vt 0.481922 0.615728
vt 0.422575 0.505044
vt 0.888707 0.705929
vt 0.932777 0.730594
vt 0.897277 0.730594
vt 0.894328 0.677845
vt 0.832401 0.705929
vt 0.829922 0.677845
vt 0.930107 0.705929
vt 0.783841 0.677845
vt 0.848996 0.730594
vt 0.911834 0.785976
vt 0.876344 0.785976
vt 0.764365 0.730594
vt 0.814452 0.730594
vt 0.902909 0.830199
vt 0.850951 0.785976
vt 0.93793 0.785976
vt 0.814133 0.785976
vt 0.95235 0.830199
vt 0.974099 0.896982
vt 0.926334 0.830199
vt 0.886149 0.830199
vt 0.861848 0.830199
vt 0.931766 0.891596
vt 0.926797 0.868845
vt 0.888788 0.914568
vt 0.901018 0.901379
vt 0.777183 0.94077
vt 0.796344 0.97121
vt 0.774803 0.970789
vt 0.917562 0.909597
vt 0.935128 0.94686
vt 0.951415 0.9045
vt 0.750451 0.465586
vt 0.676684 0.337818
vt 0.824217 0.337818
vt 0.280325 0.426641
vt 0.392296 0.588517
vt 0.535066 0.02795
vt 0.392296 0.795328
vt 0.23943 0.920648
vt 0.752831 0.95594
vt 0.725314 0.971541
vt 0.716306 0.955654
vt 0.390439 0.986359
vt 0.694701 0.771819
vt 0.826599 0.970016
vt 0.535066 0.131575
vt 0.271935 0.623252
vt 0.684332 0.94659
vt 0.689324 0.969196
vt 0.675325 0.970116
vt 0.543365 0.564614
vt 0.689535 0.597172
vt 0.48626 0.354051
vt 0.579373 0.635186
vt 0.527375 0.983713
vt 0.941684 0.677845
vt 0.986328 0.903137
vt 0.799314 0.940113
usemtl 
f 1/1/1 2/2/1 3/3/1
f 2/2/2 4/4/2 5/5/2
f 5/6/3 6/7/3 7/8/3
f 7/8/4 8/9/4 9/10/4
f 10/11/5 11/12/5 4/4/5
f 8/9/6 12/13/6 9/10/6
f 13/14/7 3/15/7 12/13/7
f 14/16/8 15/17/8 16/18/8
f 16/19/9 17/20/9 18/21/9
f 19/22/10 17/20/10 20/23/10
f 12/13/11 21/24/11 19/22/11
f 22/25/12 20/23/12 16/19/12
f 23/26/13 20/23/13 24/27/13
f 9/10/14 19/22/14 23/26/14
f 25/28/15 22/25/15 15/29/15
f 25/28/16 23/26/16 24/27/16
f 7/8/17 23/26/17 26/30/17
f 27/31/18 15/29/18 28/32/18
f 27/31/19 26/30/19 25/28/19
f 29/33/20 7/8/20 26/30/20
f 30/34/21 28/35/21 14/36/21
f 30/34/22 29/37/22 27/38/22
f 31/39/23 5/5/23 29/37/23
f 18/40/24 30/34/24 14/36/24
f 21/41/25 30/34/25 17/42/25
f 3/3/26 31/39/26 21/41/26
f 32/43/27 33/44/27 34/45/27
f 13/14/28 35/46/28 32/43/28
f 10/11/29 36/47/29 37/48/29
f 4/49/30 38/50/30 6/7/30
f 1/51/31 32/43/31 36/52/31
f 6/7/32 35/46/32 8/9/32
f 39/53/33 40/54/33 41/55/33
f 11/56/34 42/57/34 38/50/34
f 37/48/35 39/58/35 43/59/35
f 36/52/36 34/45/36 39/53/36
f 38/50/37 33/44/37 35/46/37
f 37/48/38 44/60/38 11/12/38
f 45/61/39 46/62/39 40/54/39
f 33/44/40 47/63/40 45/61/40
f 43/59/41 48/64/41 44/60/41
f 34/45/42 45/61/42 40/54/42
f 44/65/43 47/63/43 42/57/43
f 43/59/44 41/66/44 49/67/44
f 46/62/45 50/68/45 51/69/45
f 47/63/46 52/70/46 53/71/46
f 41/66/47 54/72/47 49/67/47
f 40/54/48 51/69/48 41/55/48
f 45/61/49 53/71/49 55/73/49
f 49/67/50 52/74/50 48/64/50
f 56/75/51 57/76/51 58/77/51
f 53/71/52 59/78/52 55/73/52
f 52/74/53 60/79/53 61/80/53
f 46/62/54 59/78/54 62/81/54
f 53/71/55 61/82/55 63/83/55
f 51/84/56 60/79/56 54/72/56
f 64/85/57 65/86/57 66/87/57
f 67/88/58 68/89/58 69/90/58
f 70/91/59 71/92/59 72/93/59
f 58/77/60 71/94/60 73/95/60
f 67/96/61 74/97/61 56/75/61
f 75/98/62 72/93/62 76/99/62
f 77/100/63 78/101/63 79/102/63
f 80/103/64 81/104/64 82/105/64
f 83/106/65 84/107/65 85/108/65
f 86/109/66 87/110/66 88/111/66
f 89/112/67 90/113/67 81/104/67
f 66/114/68 91/115/68 83/116/68
f 92/117/69 93/118/69 78/101/69
f 90/113/70 92/117/70 81/104/70
f 65/119/71 94/120/71 91/115/71
f 65/86/72 79/102/72 95/121/72
f 82/105/73 92/117/73 78/101/73
f 91/115/74 96/122/74 90/123/74
f 97/124/75 98/125/75 99/126/75
f 96/122/76 100/127/76 101/128/76
f 79/102/77 93/118/77 102/129/77
f 96/130/78 103/131/78 92/117/78
f 94/120/79 104/132/79 100/127/79
f 95/121/80 102/129/80 104/133/80
f 99/126/81 105/134/81 106/135/81
f 107/136/82 108/137/82 109/138/82
f 110/139/83 106/140/83 111/141/83
f 112/142/84 113/143/84 114/144/84
f 109/138/85 98/125/85 115/145/85
f 110/139/86 116/146/86 107/147/86
f 117/148/87 118/149/87 105/150/87
f 98/125/88 117/151/88 119/152/88
f 111/141/89 118/153/89 116/146/89
f 99/126/90 119/152/90 120/154/90
f 108/137/91 118/155/91 117/151/91
f 106/140/92 121/156/92 111/141/92
f 69/90/93 122/157/93 123/158/93
f 61/159/94 68/89/94 63/160/94
f 76/161/95 124/162/95 75/163/95
f 125/164/96 126/165/96 76/161/96
f 127/166/97 128/167/97 129/168/97
f 126/165/98 130/169/98 131/170/98
f 124/162/99 131/170/99 127/166/99
f 132/171/100 122/157/100 68/89/100
f 133/172/101 128/167/101 134/173/101
f 135/174/102 136/175/102 122/157/102
f 123/158/103 136/175/103 133/172/103
f 130/169/104 128/167/104 131/170/104
f 123/158/105 134/173/105 130/169/105
f 136/175/106 137/176/106 138/177/106
f 124/162/107 135/178/107 132/179/107
f 127/166/108 139/180/108 135/178/108
f 75/163/109 132/179/109 61/181/109
f 140/182/110 123/158/110 130/169/110
f 60/79/111 75/98/111 61/80/111
f 59/78/112 67/96/112 56/75/112
f 50/68/113 58/77/113 73/95/113
f 50/183/114 70/91/114 60/79/114
f 67/88/115 140/182/115 125/164/115
f 62/81/116 56/75/116 58/77/116
f 138/177/117 141/184/117 142/185/117
f 139/180/118 143/186/118 137/187/118
f 136/175/119 142/185/119 133/172/119
f 133/172/120 143/186/120 129/168/120
f 144/188/121 145/189/121 146/190/121
f 137/187/122 147/191/122 144/188/122
f 138/177/123 144/192/123 148/193/123
f 142/185/124 147/191/124 143/186/124
f 146/194/125 149/195/125 150/196/125
f 144/192/126 150/197/126 148/193/126
f 147/191/127 149/198/127 145/189/127
f 148/193/128 149/198/128 141/184/128
f 151/199/129 74/97/129 152/200/129
f 153/201/130 77/100/130 154/202/130
f 86/203/131 77/100/131 64/85/131
f 152/200/132 80/103/132 155/204/132
f 156/205/133 157/206/133 158/207/133
f 152/208/134 87/209/134 151/210/134
f 155/211/135 159/212/135 160/213/135
f 154/214/136 159/212/136 153/215/136
f 155/211/137 161/216/137 152/208/137
f 87/110/138 156/205/138 88/111/138
f 155/204/139 82/105/139 153/201/139
f 151/199/140 64/85/140 57/76/140
f 72/93/68 66/114/68 83/116/68
f 125/217/141 162/218/141 89/112/141
f 154/214/142 88/111/142 163/219/142
f 76/99/143 83/116/143 162/220/143
f 125/217/144 80/103/144 74/97/144
f 71/94/145 64/85/145 66/87/145
f 161/216/146 164/221/146 87/209/146
f 161/216/147 165/222/147 166/223/147
f 163/219/148 167/224/148 159/212/148
f 160/213/149 167/224/149 165/222/149
f 88/111/150 168/225/150 163/219/150
f 169/226/151 170/227/151 171/228/151
f 156/205/152 172/229/152 168/225/152
f 167/224/153 171/228/153 165/222/153
f 164/221/154 173/230/154 157/231/154
f 166/223/155 171/228/155 173/230/155
f 168/225/156 169/226/156 167/224/156
f 174/232/157 175/233/157 176/234/157
f 171/228/158 177/235/158 173/230/158
f 172/229/159 178/236/159 169/226/159
f 158/207/160 179/237/160 174/232/160
f 172/229/161 174/232/161 180/238/161
f 157/231/162 177/235/162 179/239/162
f 181/240/163 182/241/163 183/242/163
f 174/232/164 184/243/164 180/238/164
f 179/239/165 181/240/165 175/244/165
f 178/236/166 185/245/166 170/227/166
f 177/235/167 185/245/167 181/240/167
f 180/238/168 186/246/168 178/236/168
f 187/247/169 188/248/169 183/249/169
f 184/243/170 189/250/170 186/246/170
f 176/234/171 190/251/171 188/252/171
f 176/234/172 187/253/172 184/243/172
f 175/244/173 183/242/173 190/254/173
f 186/246/174 182/241/174 185/245/174
f 191/255/175 104/133/175 102/129/175
f 192/256/176 106/257/176 193/258/176
f 191/259/177 97/260/177 194/261/177
f 195/262/178 106/140/178 196/263/178
f 197/264/179 196/265/179 104/133/179
f 194/261/180 99/266/180 192/256/180
f 100/127/181 107/147/181 101/128/181
f 93/118/182 109/138/182 115/145/182
f 191/259/183 198/267/183 199/268/183
f 104/132/184 110/139/184 100/127/184
f 101/269/185 109/138/185 103/131/185
f 102/129/186 115/145/186 97/124/186
f 197/270/187 200/271/187 195/272/187
f 197/270/188 199/273/188 201/274/188
f 194/261/189 202/275/189 198/267/189
f 193/258/190 200/271/190 203/276/190
f 193/258/191 202/275/191 192/256/191
f 204/277/192 205/278/192 206/279/192
f 112/142/193 207/280/193 208/281/193
f 209/282/194 207/280/194 210/283/194
f 211/284/195 212/285/195 213/286/195
f 214/287/196 210/283/196 204/288/196
f 215/289/197 204/288/197 216/290/197
f 217/291/198 218/292/198 219/293/198
f 216/294/199 206/279/199 220/295/199
f 216/294/200 221/296/200 113/297/200
f 114/298/201 221/296/201 217/291/201
f 207/299/202 217/291/202 222/300/202
f 207/301/203 205/278/203 210/302/203
f 223/303/204 224/304/204 225/305/204
f 222/300/205 219/293/205 226/306/205
f 222/307/206 227/308/206 205/278/206
f 206/279/207 227/308/207 223/303/207
f 220/295/208 223/303/208 228/309/208
f 220/295/209 218/292/209 221/296/209
f 224/310/210 229/311/210 225/312/210
f 228/309/211 225/305/211 230/313/211
f 228/309/212 231/314/212 218/292/212
f 219/293/213 231/314/213 232/315/213
f 226/306/214 232/315/214 229/316/214
f 226/317/215 224/304/215 227/308/215
f 230/318/216 232/319/216 231/320/216
f 225/312/217 232/319/217 230/318/217
f 213/321/218 233/322/218 234/323/218
f 113/297/219 235/324/219 216/294/219
f 201/274/220 236/325/220 212/285/220
f 216/290/221 237/326/221 215/289/221
f 238/327/222 239/328/222 240/329/222
f 236/330/223 233/322/223 212/331/223
f 237/332/224 241/333/224 238/327/224
f 235/334/225 242/335/225 241/333/225
f 243/336/226 244/337/226 245/338/226
f 241/333/227 246/339/227 239/328/227
f 234/323/228 247/340/228 243/336/228
f 248/341/229 247/340/229 233/322/229
f 249/342/230 250/343/230 244/337/230
f 251/344/231 244/337/231 247/340/231
f 240/329/232 252/345/232 253/346/232
f 239/328/233 254/347/233 252/345/233
f 255/348/234 256/349/234 257/350/234
f 253/346/235 258/351/235 255/348/235
f 252/345/236 259/352/236 258/351/236
f 245/338/237 250/343/237 260/353/237
f 261/354/238 262/355/238 263/356/238
f 258/351/239 264/357/239 256/349/239
f 260/353/240 265/358/240 261/354/240
f 266/359/241 265/358/241 250/343/241
f 267/360/242 268/361/242 269/362/242
f 270/363/243 262/355/243 265/358/243
f 257/350/244 271/364/244 267/360/244
f 256/349/245 272/365/245 271/364/245
f 273/366/246 274/367/246 268/361/246
f 271/364/247 273/366/247 268/361/247
f 263/356/248 275/368/248 276/369/248
f 277/370/249 275/368/249 262/355/249
f 278/371/250 279/372/250 280/373/250
f 276/369/251 281/374/251 280/375/251
f 282/376/252 281/374/252 275/368/252
f 269/362/253 274/367/253 278/377/253
f 269/362/254 283/378/254 282/379/254
f 276/369/255 279/380/255 273/366/255
f 283/381/256 280/373/256 281/382/256
f 263/356/257 273/366/257 272/365/257
f 257/350/258 277/383/258 270/384/258
f 267/360/259 282/379/259 277/383/259
f 260/353/260 264/357/260 259/352/260
f 261/354/261 272/365/261 264/357/261
f 245/338/262 259/352/262 254/347/262
f 253/346/263 266/385/263 249/386/263
f 255/348/264 270/384/264 266/385/264
f 240/329/265 249/386/265 251/387/265
f 234/323/266 246/339/266 242/335/266
f 243/336/267 254/347/267 246/339/267
f 237/332/268 248/388/268 236/389/268
f 248/388/269 240/329/269 251/387/269
f 199/268/270 237/326/270 236/390/270
f 284/391/271 234/323/271 242/335/271
f 198/267/272 215/289/272 199/268/272
f 202/275/273 214/287/273 198/267/273
f 211/284/274 284/392/274 113/143/274
f 203/276/275 209/282/275 202/275/275
f 200/271/276 208/281/276 203/276/276
f 200/271/277 211/284/277 112/142/277
f 285/393/278 286/394/278 287/395/278
f 162/396/279 288/397/279 90/398/279
f 162/396/280 85/399/280 285/393/280
f 91/400/281 288/397/281 84/107/281
f 289/401/282 290/402/282 291/403/282
f 84/107/283 286/404/283 85/108/283
f 288/397/284 287/395/284 289/401/284
f 84/107/285 289/401/285 292/405/285
f 290/402/286 293/406/286 291/403/286
f 292/405/287 291/403/287 294/407/287
f 287/395/288 295/408/288 290/402/288
f 292/405/289 295/409/289 286/404/289
f 296/410/290 297/411/290 298/412/290
f 294/407/291 293/406/291 299/413/291
f 290/402/292 296/410/292 298/412/292
f 294/407/293 296/414/293 295/409/293
f 297/411/294 300/415/294 301/416/294
f 299/413/295 302/417/295 296/414/295
f 293/406/296 297/411/296 301/416/296
f 293/406/297 303/418/297 299/413/297
f 304/419/298 305/420/298 300/421/298
f 303/418/299 300/415/299 305/422/299
f 297/411/300 306/423/300 304/424/300
f 303/418/301 306/423/301 302/417/301
f 1/1/302 10/11/302 2/2/302
f 2/2/303 10/11/303 4/4/303
f 5/6/304 4/49/304 6/7/304
f 7/8/305 6/7/305 8/9/305
f 10/11/306 37/48/306 11/12/306
f 8/9/307 13/14/307 12/13/307
f 13/14/308 1/51/308 3/15/308
f 16/18/8 18/425/8 14/16/8
f 14/16/8 28/426/8 15/17/8
f 15/17/8 22/427/8 16/18/8
f 16/19/309 20/23/309 17/20/309
f 19/22/310 21/24/310 17/20/310
f 12/13/311 3/15/311 21/24/311
f 22/25/312 24/27/312 20/23/312
f 23/26/313 19/22/313 20/23/313
f 9/10/314 12/13/314 19/22/314
f 25/28/315 24/27/315 22/25/315
f 25/28/316 26/30/316 23/26/316
f 7/8/317 9/10/317 23/26/317
f 27/31/318 25/28/318 15/29/318
f 27/31/319 29/33/319 26/30/319
f 29/33/320 5/6/320 7/8/320
f 30/34/321 27/38/321 28/35/321
f 30/34/322 31/39/322 29/37/322
f 31/39/323 2/2/323 5/5/323
f 18/40/324 17/42/324 30/34/324
f 21/41/325 31/39/325 30/34/325
f 3/3/326 2/2/326 31/39/326
f 32/43/327 35/46/327 33/44/327
f 13/14/328 8/9/328 35/46/328
f 10/11/329 1/1/329 36/47/329
f 4/49/330 11/56/330 38/50/330
f 1/51/331 13/14/331 32/43/331
f 6/7/332 38/50/332 35/46/332
f 39/53/333 34/45/333 40/54/333
f 11/56/334 44/65/334 42/57/334
f 37/48/335 36/47/335 39/58/335
f 36/52/336 32/43/336 34/45/336
f 38/50/337 42/57/337 33/44/337
f 37/48/338 43/59/338 44/60/338
f 45/61/339 55/73/339 46/62/339
f 33/44/340 42/57/340 47/63/340
f 43/59/341 49/67/341 48/64/341
f 34/45/342 33/44/342 45/61/342
f 44/65/343 48/428/343 47/63/343
f 43/59/344 39/58/344 41/66/344
f 46/62/345 62/81/345 50/68/345
f 47/63/346 48/428/346 52/70/346
f 41/66/347 51/84/347 54/72/347
f 40/54/348 46/62/348 51/69/348
f 45/61/349 47/63/349 53/71/349
f 49/67/350 54/72/350 52/74/350
f 56/75/351 74/97/351 57/76/351
f 53/71/352 63/83/352 59/78/352
f 52/74/353 54/72/353 60/79/353
f 46/62/354 55/73/354 59/78/354
f 53/71/355 52/70/355 61/82/355
f 51/84/356 50/183/356 60/79/356
f 64/85/357 77/100/357 65/86/357
f 67/88/358 63/160/358 68/89/358
f 70/91/359 73/429/359 71/92/359
f 58/77/360 57/76/360 71/94/360
f 67/96/361 125/217/361 74/97/361
f 75/98/362 70/91/362 72/93/362
f 77/100/363 82/105/363 78/101/363
f 80/103/364 89/112/364 81/104/364
f 83/106/365 91/400/365 84/107/365
f 86/109/366 151/430/366 87/110/366
f 89/112/367 162/218/367 90/113/367
f 66/114/368 65/119/368 91/115/368
f 92/117/69 103/131/69 93/118/69
f 90/113/369 96/130/369 92/117/369
f 65/119/370 95/431/370 94/120/370
f 65/86/371 77/100/371 79/102/371
f 82/105/372 81/104/372 92/117/372
f 91/115/373 94/120/373 96/122/373
f 97/124/374 115/145/374 98/125/374
f 96/122/76 94/120/76 100/127/76
f 79/102/77 78/101/77 93/118/77
f 96/130/78 101/269/78 103/131/78
f 94/120/79 95/431/79 104/132/79
f 95/121/80 79/102/80 102/129/80
f 99/126/375 120/154/375 105/134/375
f 107/136/376 116/432/376 108/137/376
f 110/139/377 196/263/377 106/140/377
f 112/142/378 211/284/378 113/143/378
f 109/138/379 108/137/379 98/125/379
f 110/139/380 111/141/380 116/146/380
f 118/149/87 121/433/87 105/150/87
f 105/150/87 120/434/87 119/435/87
f 119/435/87 117/148/87 105/150/87
f 98/125/381 108/137/381 117/151/381
f 111/141/382 121/156/382 118/153/382
f 99/126/383 98/125/383 119/152/383
f 108/137/384 116/432/384 118/155/384
f 106/140/385 105/436/385 121/156/385
f 69/90/386 68/89/386 122/157/386
f 61/159/387 132/171/387 68/89/387
f 76/161/388 126/165/388 124/162/388
f 125/164/389 140/182/389 126/165/389
f 127/166/390 131/170/390 128/167/390
f 126/165/391 140/182/391 130/169/391
f 124/162/392 126/165/392 131/170/392
f 132/171/393 135/174/393 122/157/393
f 133/172/394 129/168/394 128/167/394
f 135/174/395 139/437/395 136/175/395
f 123/158/396 122/157/396 136/175/396
f 130/169/397 134/173/397 128/167/397
f 123/158/398 133/172/398 134/173/398
f 136/175/399 139/437/399 137/176/399
f 124/162/400 127/166/400 135/178/400
f 127/166/401 129/168/401 139/180/401
f 75/163/402 124/162/402 132/179/402
f 140/182/403 69/90/403 123/158/403
f 60/79/404 70/91/404 75/98/404
f 59/78/405 63/83/405 67/96/405
f 50/68/406 62/81/406 58/77/406
f 50/183/407 73/429/407 70/91/407
f 67/88/408 69/90/408 140/182/408
f 62/81/116 59/78/116 56/75/116
f 138/177/409 148/193/409 141/184/409
f 139/180/410 129/168/410 143/186/410
f 136/175/411 138/177/411 142/185/411
f 133/172/412 142/185/412 143/186/412
f 144/188/413 147/191/413 145/189/413
f 137/187/414 143/186/414 147/191/414
f 138/177/415 137/176/415 144/192/415
f 142/185/416 141/184/416 147/191/416
f 146/194/417 145/438/417 149/195/417
f 144/192/418 146/190/418 150/197/418
f 147/191/419 141/184/419 149/198/419
f 148/193/420 150/197/420 149/198/420
f 151/199/421 57/76/421 74/97/421
f 153/201/422 82/105/422 77/100/422
f 86/203/423 154/202/423 77/100/423
f 152/200/424 74/97/424 80/103/424
f 156/205/425 164/439/425 157/206/425
f 152/208/426 161/216/426 87/209/426
f 155/211/427 153/215/427 159/212/427
f 154/214/428 163/219/428 159/212/428
f 155/211/429 160/213/429 161/216/429
f 87/110/430 164/439/430 156/205/430
f 155/204/431 80/103/431 82/105/431
f 151/199/432 86/203/432 64/85/432
f 72/93/433 71/92/433 66/114/433
f 125/217/434 76/440/434 162/218/434
f 154/214/435 86/109/435 88/111/435
f 76/99/436 72/93/436 83/116/436
f 125/217/364 89/112/364 80/103/364
f 71/94/437 57/76/437 64/85/437
f 161/216/438 166/223/438 164/221/438
f 161/216/439 160/213/439 165/222/439
f 163/219/440 168/225/440 167/224/440
f 160/213/441 159/212/441 167/224/441
f 88/111/442 156/205/442 168/225/442
f 169/226/443 178/236/443 170/227/443
f 156/205/444 158/207/444 172/229/444
f 167/224/445 169/226/445 171/228/445
f 164/221/446 166/223/446 173/230/446
f 166/223/447 165/222/447 171/228/447
f 168/225/448 172/229/448 169/226/448
f 174/232/449 179/237/449 175/233/449
f 171/228/450 170/227/450 177/235/450
f 172/229/451 180/238/451 178/236/451
f 158/207/452 157/206/452 179/237/452
f 172/229/453 158/207/453 174/232/453
f 157/231/454 173/230/454 177/235/454
f 181/240/455 185/245/455 182/241/455
f 174/232/456 176/234/456 184/243/456
f 179/239/457 177/235/457 181/240/457
f 178/236/458 186/246/458 185/245/458
f 177/235/459 170/227/459 185/245/459
f 180/238/460 184/243/460 186/246/460
f 188/248/461 190/441/461 183/249/461
f 183/249/462 182/442/462 189/443/462
f 189/443/463 187/247/463 183/249/463
f 184/243/464 187/253/464 189/250/464
f 176/234/465 175/233/465 190/251/465
f 176/234/466 188/252/466 187/253/466
f 175/244/467 181/240/467 183/242/467
f 186/246/468 189/250/468 182/241/468
f 191/255/469 197/264/469 104/133/469
f 192/256/470 99/266/470 106/257/470
f 191/255/471 102/129/471 97/124/471
f 195/272/472 193/258/472 106/257/472
f 197/270/473 195/272/473 196/444/473
f 194/261/474 97/260/474 99/266/474
f 100/127/475 110/139/475 107/147/475
f 93/118/476 103/131/476 109/138/476
f 191/259/477 194/261/477 198/267/477
f 104/132/478 196/263/478 110/139/478
f 101/269/479 107/136/479 109/138/479
f 102/129/480 93/118/480 115/145/480
f 197/270/481 201/274/481 200/271/481
f 197/270/482 191/273/482 199/273/482
f 194/261/483 192/256/483 202/275/483
f 193/258/484 195/272/484 200/271/484
f 193/258/485 203/276/485 202/275/485
f 204/277/486 210/302/486 205/278/486
f 112/142/487 114/144/487 207/280/487
f 209/282/488 208/281/488 207/280/488
f 211/284/489 201/274/489 212/285/489
f 214/287/490 209/282/490 210/283/490
f 215/289/491 214/287/491 204/288/491
f 217/291/198 221/296/198 218/292/198
f 216/294/492 204/277/492 206/279/492
f 216/294/493 220/295/493 221/296/493
f 114/298/494 113/297/494 221/296/494
f 207/299/495 114/298/495 217/291/495
f 207/301/496 222/307/496 205/278/496
f 223/303/497 227/308/497 224/304/497
f 222/300/498 217/291/498 219/293/498
f 222/307/206 226/317/206 227/308/206
f 206/279/207 205/278/207 227/308/207
f 220/295/208 206/279/208 223/303/208
f 220/295/209 228/309/209 218/292/209
f 228/309/499 223/303/499 225/305/499
f 228/309/500 230/313/500 231/314/500
f 219/293/501 218/292/501 231/314/501
f 226/306/502 219/293/502 232/315/502
f 226/317/503 229/316/503 224/304/503
f 225/312/504 229/311/504 232/319/504
f 213/321/505 212/331/505 233/322/505
f 113/297/506 284/445/506 235/324/506
f 201/274/507 199/273/507 236/325/507
f 216/290/508 235/446/508 237/326/508
f 238/327/509 241/333/509 239/328/509
f 236/330/510 248/341/510 233/322/510
f 237/332/511 235/334/511 241/333/511
f 235/334/512 284/391/512 242/335/512
f 243/336/513 247/340/513 244/337/513
f 241/333/514 242/335/514 246/339/514
f 234/323/515 233/322/515 247/340/515
f 248/341/516 251/344/516 247/340/516
f 249/342/517 266/359/517 250/343/517
f 251/344/518 249/342/518 244/337/518
f 240/329/519 239/328/519 252/345/519
f 239/328/233 246/339/233 254/347/233
f 255/348/520 258/351/520 256/349/520
f 253/346/521 252/345/521 258/351/521
f 252/345/522 254/347/522 259/352/522
f 245/338/523 244/337/523 250/343/523
f 261/354/524 265/358/524 262/355/524
f 258/351/239 259/352/239 264/357/239
f 260/353/525 250/343/525 265/358/525
f 266/359/526 270/363/526 265/358/526
f 267/360/527 271/364/527 268/361/527
f 270/363/528 277/370/528 262/355/528
f 257/350/529 256/349/529 271/364/529
f 256/349/530 264/357/530 272/365/530
f 273/366/531 279/380/531 274/367/531
f 271/364/247 272/365/247 273/366/247
f 263/356/532 262/355/532 275/368/532
f 277/370/533 282/376/533 275/368/533
f 278/371/534 274/447/534 279/372/534
f 276/369/535 275/368/535 281/374/535
f 282/376/536 283/448/536 281/374/536
f 269/362/537 268/361/537 274/367/537
f 269/362/538 278/377/538 283/378/538
f 276/369/539 280/375/539 279/380/539
f 283/381/540 278/371/540 280/373/540
f 263/356/541 276/369/541 273/366/541
f 257/350/542 267/360/542 277/383/542
f 267/360/543 269/362/543 282/379/543
f 260/353/544 261/354/544 264/357/544
f 261/354/545 263/356/545 272/365/545
f 245/338/546 260/353/546 259/352/546
f 253/346/547 255/348/547 266/385/547
f 255/348/548 257/350/548 270/384/548
f 240/329/549 253/346/549 249/386/549
f 234/323/550 243/336/550 246/339/550
f 243/336/551 245/338/551 254/347/551
f 237/332/552 238/327/552 248/388/552
f 248/388/553 238/327/553 240/329/553
f 199/268/554 215/289/554 237/326/554
f 284/391/555 213/321/555 234/323/555
f 198/267/556 214/287/556 215/289/556
f 202/275/557 209/282/557 214/287/557
f 211/284/558 213/286/558 284/392/558
f 203/276/559 208/281/559 209/282/559
f 200/271/560 112/142/560 208/281/560
f 200/271/561 201/274/561 211/284/561
f 285/393/562 85/399/562 286/394/562
f 162/396/563 285/393/563 288/397/563
f 162/396/564 83/449/564 85/399/564
f 91/400/565 90/398/565 288/397/565
f 289/401/566 287/395/566 290/402/566
f 84/107/567 292/405/567 286/404/567
f 288/397/568 285/393/568 287/395/568
f 84/107/569 288/397/569 289/401/569
f 290/402/286 298/412/286 293/406/286
f 292/405/570 289/401/570 291/403/570
f 287/395/571 286/394/571 295/408/571
f 292/405/572 294/407/572 295/409/572
f 296/410/573 302/450/573 297/411/573
f 294/407/291 291/403/291 293/406/291
f 290/402/292 295/408/292 296/410/292
f 294/407/293 299/413/293 296/414/293
f 297/411/294 304/424/294 300/415/294
f 299/413/574 303/418/574 302/417/574
f 293/406/575 298/412/575 297/411/575
f 293/406/576 301/416/576 303/418/576
f 304/419/577 306/451/577 305/420/577
f 303/418/299 301/416/299 300/415/299
f 297/411/300 302/450/300 306/423/300
f 303/418/301 305/422/301 306/423/301
s off
