# Apple ModelIO OBJ File: Rock_2
mtllib Rock_2.mtl
g Rock_2.001
v -3.59182 6.09806 20.142
v -2.01186 3.65576 18.5466
v -3.76197 3.38444 18.172
v 1.61603 3.52794 22.2515
v 2.50138 4.57403 25.008
v 3.3701 2.69772 24.9515
v -0.579951 5.88704 27.3862
v -2.3493 3.53696 28.248
v 0.059155 3.34295 28.3011
v -6.14004 5.44557 25.658
v -5.78996 6.13069 23.3228
v -6.45662 4.4845 22.3685
v -2.10151 0.813088 25.2081
v -2.58186 0.813088 27.9151
v -5.1821 1.07028 27.3602
v -4.3281 6.64507 22.0209
v -4.80845 6.64507 24.7278
v -2.97019 7.46175 23.9647
v -1.30995 7.04664 26.3412
v -2.27953 5.39974 28.3478
v -3.69515 6.64507 26.3214
v -3.21481 0.813088 23.6145
v -5.92174 0.813088 23.1342
v -5.1188 0.880769 20.889
v -6.22882 0.853697 25.72
v -4.93798 4.61986 27.1897
v -1.35012 5.41328 19.4947
v 0.62044 4.19572 20.7555
v 0.832536 5.69754 22.6191
v 1.08577 0.813088 22.9816
v -1.62117 0.813088 22.5012
v -0.027528 0.813088 21.3879
v -0.507874 0.813088 24.0948
v -2.73446 0.813088 20.9076
v -1.4354 0.840161 19.3726
v -0.101951 6.01413 20.738
v -0.62243 6.77141 23.9309
v 0.352189 5.69754 25.326
v -2.13193 7.43919 21.7701
v 2.19906 0.813088 24.5752
v 0.60542 0.813088 25.6885
v 1.68466 4.32657 27.2334
v -5.06454 5.14777 20.9667
v -3.64919 1.37639 19.5982
v -5.39787 2.85184 20.4895
v -6.64267 2.01259 22.1022
v -0.166456 0.839457 27.789
v -0.98822 0.813088 26.8018
v 2.0202 0.830432 26.8155
v 3.19041 0.834944 25.3797
v 1.98896 1.06055 22.1708
v 1.1398 1.1914 20.4825
v -2.0323 1.28164 18.5182
v -5.37075 2.06674 27.492
v -7.16093 2.33746 26.3712
v -2.90047 0.834944 28.2863
vn 0.0829 0.5821 -0.8089
vn 0.8216 0.3928 -0.413
vn 0.0066 0.3399 0.9405
vn -0.9216 0.3874 -0.0245
vn -0.0949 -0.9953 -0.0168
vn -0.4312 0.899 -0.0765
vn 0.1755 0.7177 0.6739
vn -0.1617 0.9468 0.2783
vn 0.005 -0.9996 -0.0283
vn -0.0091 -0.9999 0.0063
vn -0.3906 -0.0347 0.9199
vn -0.4646 0.5741 0.6742
vn 0.6087 0.1867 -0.7711
vn 0.841 0.3705 -0.3943
vn -0 -1 -0
vn 0.0027 -0.9999 -0.0153
vn -0.0283 -0.9996 -0.005
vn 0.5201 0.8462 -0.1159
vn 0.2816 0.9591 -0.0292
vn 0.4713 0.878 0.0836
vn 0.6984 0.669 0.2545
vn 0.2311 0.7647 -0.6015
vn -0.351 0.9253 -0.1436
vn 0.8522 0.3839 0.3555
vn 0.3278 0.3915 0.8598
vn -0.7093 0.5458 -0.4461
vn -0.6431 0.4759 -0.6
vn -0.0233 -0.9242 -0.3813
vn -0.677 -0.4511 -0.5816
vn -0.7037 -0.6565 -0.2715
vn -0.8154 0.1223 -0.5658
vn 0.0118 -0.9998 0.0169
vn 0.3962 -0.2181 0.8919
vn 0.0057 -0.9999 0.0082
vn 0.7731 0.0703 0.6303
vn 0.1649 -0.9795 -0.1152
vn 0.888 0.1485 -0.4352
vn 0.1971 -0.9687 -0.1507
vn 0.5266 0.0057 -0.8501
vn -0.8076 -0.225 0.5451
vn -0.5012 0.1851 0.8453
vn -0.0938 -0.9954 -0.0219
vn -0.2738 0.0694 0.9593
vn -0.8611 -0.4995 -0.0944
vn -0.988 0.088 -0.1266
vn 0.1789 -0.0226 0.9836
vn 0.9188 -0.1705 -0.356
vn -0.2511 -0.9404 -0.2291
vn -0.4949 -0.5215 -0.6951
vn -0.0957 0.5002 -0.8606
vn 0.8342 0.3705 -0.4085
vn 0.5055 -0.0651 0.8604
vn -0.6078 0.782 0.1383
vn -0.3847 0.9205 -0.0683
vn -0.1391 0.7974 0.5872
vn -0.3175 0.9219 0.2218
vn -0.0027 -0.9999 0.0154
vn 0.006 -0.9919 0.1271
vn -0.4627 0.5737 0.6758
vn -0.487 0.8044 0.3402
vn 0.6243 0.2409 -0.7431
vn 0.8639 0.3396 -0.372
vn 0.532 0.8392 -0.1123
vn 0.282 0.9544 0.0979
vn 0.6556 0.7461 0.1163
vn 0.6646 0.7397 0.1051
vn 0.0404 0.7531 -0.6566
vn -0.3523 0.8524 -0.3863
vn 0.4772 0.8369 0.2682
vn 0.5662 0.8039 0.1822
vn -0.6282 0.6302 -0.4563
vn -0.6474 0.6252 -0.4358
vn -0.5938 -0.2397 -0.7681
vn -0.8193 0.2283 -0.5259
vn -0.7063 -0.2353 -0.6677
vn -0.7431 0.2379 -0.6254
vn 0.0017 -0.9999 0.0132
vn 0.5669 -0.0439 0.8226
vn 0.0148 -0.9999 0.0089
vn 0.8067 0.0068 0.591
vn 0.1839 -0.9686 -0.1676
vn 0.8544 0.1916 -0.4831
vn 0.3605 -0.7017 -0.6145
vn 0.6114 0.1758 -0.7716
vn -0.4907 -0.5898 0.6414
vn -0.6272 0.364 0.6885
vn -0.386 -0.1924 0.9022
vn -0.3138 0.1639 0.9352
vn -0.8323 -0.5511 -0.0591
vn -0.95 0.3121 0.0002
vn 0.0146 -0.9974 0.0713
vn -0.0375 -0.197 0.9797
vn 0.1122 -0.9874 -0.1114
vn 0.8495 0.145 -0.5073
vn -0.2533 -0.9202 -0.2985
vn 0.2078 0.0099 -0.9781
vt 0.635232 0.215726
vt 0.765522 0.196578
vt 0.755357 0.248563
vt 0.30151 0.554687
vt 0.277162 0.442425
vt 0.369476 0.451241
vt 0.215585 0.266578
vt 0.331598 0.200742
vt 0.341388 0.285064
vt 0.307486 0.801715
vt 0.33544 0.675993
vt 0.421444 0.687528
vt 0.585895 0.753279
vt 0.502353 0.672591
vt 0.56581 0.570468
vt 0.315661 0.567044
vt 0.264931 0.69904
vt 0.209691 0.598948
vt 0.13177 0.239978
vt 0.24865 0.201359
vt 0.014137 0.160517
vt 0.150252 0.141122
vt 0.658918 0.740144
vt 0.722151 0.63277
vt 0.784353 0.718327
vt 0.639865 0.561623
vt 0.268203 0.100735
vt 0.202731 0.03608
vt 0.698479 0.159089
vt 0.750726 0.082838
vt 0.650699 0.031661
vt 0.772214 0.010654
vt 0.606825 0.941301
vt 0.668953 0.834117
vt 0.679225 0.927123
vt 0.59625 0.847426
vt 0.741397 0.821514
vt 0.766688 0.909861
vt 0.671108 0.106212
vt 0.533601 0.0472
vt 0.000185 0.261004
vt 0.061645 0.824554
vt 0.081301 0.687306
vt 0.18191 0.766006
vt 0.000185 0.586619
vt 0.071751 0.567044
vt 0.575299 0.146295
vt 0.533247 0.22825
vt 0.460976 0.13715
vt 0.533924 0.95516
vt 0.523328 0.860992
vt 0.290223 0.352701
vt 0.405261 0.567044
vt 0.612184 0.28824
vt 0.805828 0.814035
vt 0.71838 0.334267
vt 0.835233 0.301368
vt 0.701599 0.414135
vt 0.803288 0.379943
vt 0.752115 0.467639
vt 0.589065 0.372207
vt 0.465304 0.780954
vt 0.512833 0.766796
vt 0.460605 0.372898
vt 0.460605 0.281219
vt 0.460976 0.898086
vt 0.455211 0.443168
vt 0.619304 0.999815
vt 0.903701 0.078085
vt 0.903971 0.000185
vt 0.691473 0.999815
vt 0.869181 0.224694
vt 0.392245 0.080307
vt 0.459674 0.007591
vt 0.442841 0.082772
vt 0.365816 0.000185
vt 0.495197 0.650454
vt 0.460245 0.177014
vt 0.593516 0.558138
vt 0.690751 0.561253
vt 0.423 0.566673
vt 0.192323 0.537374
vt 0.189529 0.741369
vt 0.000185 0.717853
vt 0.189159 0.644075
vt 0.489744 0.980896
vt 0.807966 0.909295
vt 0.460976 0.469656
usemtl 
f 1/1/1 2/2/1 3/3/1
f 4/4/2 5/5/2 6/6/2
f 7/7/3 8/8/3 9/9/3
f 10/10/4 11/11/4 12/12/4
f 13/13/5 14/14/5 15/15/5
f 16/16/6 17/17/6 18/18/6
f 19/19/7 20/20/7 7/7/7
f 18/21/8 21/22/8 19/19/8
f 22/23/9 23/24/9 24/25/9
f 13/13/10 25/26/10 22/23/10
f 20/20/11 26/27/11 8/8/11
f 21/22/12 10/28/12 26/27/12
f 27/29/13 28/30/13 2/2/13
f 28/30/14 29/31/14 4/32/14
f 30/33/15 31/34/15 32/35/15
f 33/36/15 22/23/15 31/34/15
f 32/35/16 34/37/16 35/38/16
f 34/37/17 22/23/17 24/25/17
f 36/39/18 37/40/18 29/31/18
f 37/41/19 18/21/19 19/19/19
f 29/42/20 38/43/20 5/44/20
f 38/43/21 19/45/21 7/46/21
f 27/29/22 39/47/22 36/39/22
f 39/47/23 16/48/23 18/49/23
f 40/50/15 33/36/15 30/33/15
f 41/51/15 13/13/15 33/36/15
f 5/5/24 42/52/24 6/6/24
f 42/52/25 7/7/25 9/9/25
f 11/11/26 43/53/26 12/12/26
f 43/54/27 1/1/27 3/3/27
f 24/25/28 44/55/28 34/37/28
f 45/56/29 3/3/29 44/57/29
f 46/58/30 24/59/30 23/60/30
f 12/61/31 45/56/31 46/58/31
f 41/51/32 47/62/32 48/63/32
f 49/64/33 9/9/33 47/65/33
f 40/50/34 49/66/34 41/51/34
f 6/6/35 49/64/35 50/67/35
f 32/35/36 51/68/36 30/33/36
f 52/69/37 4/32/37 51/70/37
f 35/38/38 52/71/38 32/35/38
f 2/2/39 52/69/39 53/72/39
f 54/73/40 25/74/40 15/75/40
f 26/27/41 55/76/41 54/73/41
f 56/77/42 15/15/42 14/14/42
f 8/8/43 54/73/43 56/78/43
f 55/79/44 23/60/44 25/80/44
f 55/79/45 12/61/45 46/58/45
f 47/62/32 14/14/32 48/63/32
f 47/65/46 8/8/46 56/78/46
f 51/68/36 40/50/36 30/33/36
f 51/81/47 6/6/47 50/67/47
f 44/55/48 35/38/48 34/37/48
f 3/3/49 53/72/49 44/57/49
f 1/1/50 27/29/50 2/2/50
f 4/4/51 29/82/51 5/5/51
f 7/7/52 20/20/52 8/8/52
f 10/10/53 17/17/53 11/11/53
f 13/13/15 48/63/15 14/14/15
f 16/16/54 11/11/54 17/17/54
f 19/19/55 21/22/55 20/20/55
f 18/18/56 17/17/56 21/83/56
f 22/23/57 25/26/57 23/24/57
f 13/13/58 15/15/58 25/26/58
f 20/20/59 21/22/59 26/27/59
f 21/83/60 17/17/60 10/10/60
f 27/29/61 36/39/61 28/30/61
f 28/30/62 36/39/62 29/31/62
f 30/33/15 33/36/15 31/34/15
f 33/36/15 13/13/15 22/23/15
f 32/35/15 31/34/15 34/37/15
f 34/37/15 31/34/15 22/23/15
f 36/39/63 39/47/63 37/40/63
f 37/40/64 39/47/64 18/49/64
f 29/42/65 37/84/65 38/43/65
f 38/43/66 37/84/66 19/45/66
f 27/29/67 1/1/67 39/47/67
f 39/47/68 1/1/68 16/48/68
f 40/50/15 41/51/15 33/36/15
f 41/51/15 48/63/15 13/13/15
f 5/44/69 38/43/69 42/85/69
f 42/85/70 38/43/70 7/46/70
f 11/11/71 16/16/71 43/53/71
f 43/54/72 16/48/72 1/1/72
f 24/59/73 45/56/73 44/57/73
f 45/56/74 43/54/74 3/3/74
f 46/58/75 45/56/75 24/59/75
f 12/61/76 43/54/76 45/56/76
f 41/51/77 49/66/77 47/62/77
f 49/64/78 42/52/78 9/9/78
f 40/50/79 50/86/79 49/66/79
f 6/6/80 42/52/80 49/64/80
f 32/35/81 52/71/81 51/68/81
f 52/69/82 28/30/82 4/32/82
f 35/38/83 53/87/83 52/71/83
f 2/2/84 28/30/84 52/69/84
f 54/73/85 55/76/85 25/74/85
f 26/27/86 10/28/86 55/76/86
f 56/78/87 54/73/87 15/75/87
f 8/8/88 26/27/88 54/73/88
f 55/79/89 46/58/89 23/60/89
f 55/79/90 10/88/90 12/61/90
f 47/62/91 56/77/91 14/14/91
f 47/65/92 9/9/92 8/8/92
f 51/68/93 50/86/93 40/50/93
f 51/81/94 4/4/94 6/6/94
f 44/55/95 53/87/95 35/38/95
f 3/3/96 2/2/96 53/72/96
s off
