# Apple ModelIO OBJ File: Rock_1
mtllib Rock_1.mtl
g Rock_1
v -0.441275 -1.73392 32.4554
v -1.2026 0.876513 30.6654
v -1.2026 -1.73392 30.6654
v 2.09608 -1.73392 26.457
v 3.11098 0.876513 26.297
v 3.00516 -1.73392 25.9245
v 6.94788 -1.73392 28.0739
v 7.46149 0.876513 29.8797
v 7.46149 -1.73392 29.8797
v 5.03673 0.606205 34.5279
v 3.44359 -1.73392 34.6033
v 5.97788 -2.45251 34.2577
v 4.57346 -6.9548 30.1416
v 8.44612 -6.9548 29.2349
v 7.70912 -6.83007 32.9246
v 4.47178 3.61092 34.1259
v 3.25374 0.876513 34.6206
v 5.62623 4.28401 28.6082
v 5.88421 0.876513 27.1636
v 7.52217 1.68582 31.382
v 3.17088 -6.9548 31.7219
v 3.27553 -6.86899 35.3828
v 1.07675 -7.12641 34.0813
v 4.83167 -7.08257 34.4711
v 8.14938 -2.30812 31.4299
v -1.27277 -1.73392 29.1708
v -0.58123 1.09102 28.3917
v -1.23729 -6.51824 27.8094
v 3.08802 -6.9548 28.8232
v 1.68543 -6.9548 30.4035
v -1.2026 -6.9548 30.6654
v -0.94714 -6.9548 32.2386
v 1.73012 2.68875 27.6057
v 1.456 0.876513 26.5389
v 1.68543 4.39932 30.4035
v 0.632808 2.88939 30.9985
v 4.4906 0.876513 27.2429
v 1.76829 0.876513 33.3022
v 3.00516 -6.9548 25.9245
v 0.129804 -6.9548 26.1976
v 5.27806 -6.70534 26.3556
v 4.92523 -1.73392 26.7174
v 1.10117 -1.73392 34.103
v 0.282847 0.876513 31.9838
v 2.77065 5.64348 28.5415
v 3.36001 5.75268 30.9825
v -1.0515 -4.34436 32.7496
v 2.19839 -4.34436 35.0304
v 3.80989 -4.34436 35.7642
v 6.48539 -4.34436 26.4148
v 6.99807 -6.86125 27.4098
v 4.46018 -4.09402 25.8224
v 3.00516 -4.34436 25.9245
v 0.697619 -4.31318 26.7016
v -0.669478 -3.47125 28.3134
v -2.35546 -4.34436 29.4564
v 5.45286 -5.01041 35.0629
v 9.05674 -6.19412 31.7909
v 8.15931 -4.34436 29.4866
vn -0.9202 -0 0.3914
vn -0.5003 0.1422 -0.8541
vn 0.9618 -0 -0.2736
vn 0.1209 -0.0504 0.9914
vn 0.0083 -0.9993 0.0354
vn 0.0734 0.1458 0.9866
vn 0.8331 0.2682 -0.4838
vn 0.6568 0.7197 0.2252
vn 0.1044 -0.9943 0.0203
vn -0.0311 -0.9991 -0.0276
vn 0.914 -0 -0.4056
vn 0.7831 0.1303 0.608
vn -0.9989 -0 0.0469
vn -0.6262 -0.0611 -0.7773
vn -0.083 -0.9938 -0.0737
vn -0 -1 -0
vn -0.0367 -0.9979 -0.0526
vn -0.5615 0.4812 -0.6732
vn -0.5654 0.6121 0.5529
vn 0.3946 0.7163 -0.5755
vn -0.0524 0.3864 -0.9208
vn -0.7213 0.6797 -0.133
vn -0.6206 0.4128 0.6666
vn 0.05 -0.9972 -0.0564
vn 0.3792 0.1156 -0.9181
vn 0.5559 -0.0625 -0.8289
vn -0.197 0.3332 0.9221
vn -0.6941 0.3099 0.6498
vn 0.4281 0.8923 -0.1433
vn -0.8844 0.3918 -0.2537
vn -0.6714 -0.1681 0.7218
vn -0.5738 0.0493 0.8175
vn -0.4991 -0.0927 0.8616
vn -0.3916 0.3275 0.8599
vn 0.4931 -0.2311 -0.8387
vn 0.3014 0.2856 -0.9097
vn 0.199 -0.1358 -0.9705
vn -0.07 -0 -0.9975
vn -0.6948 0.276 -0.6641
vn -0.6515 0.2867 -0.7024
vn -0.904 -0.4242 -0.0539
vn -0.6116 0.1691 -0.7729
vn 0.4649 -0.3692 0.8047
vn 0.6852 0.087 0.7232
vn 0.511 -0.8496 0.1308
vn 0.9565 0.2039 -0.2088
vn 0.4328 -0.3652 0.8242
vn 0.4479 0.1835 0.875
vn 0.7788 0.1444 -0.6105
vn 0.8686 0.1469 -0.4733
vn -0.0925 0.2058 -0.9742
vn -0.3171 0.0823 -0.9448
vn -0.9846 -0.0707 0.1599
vn -0.9041 0.2335 0.358
vn -0.6324 0.3041 0.7125
vn -0.1446 -0.0044 -0.9895
vn 0.8515 0.1745 -0.4945
vn 0.0515 -0.0028 0.9987
vn -0.0101 -0.999 -0.0432
vn -0.6096 0.3958 0.6868
vn 0.8888 0.3874 -0.2446
vn 0.726 0.2235 0.6503
vn -0.1206 -0.9923 0.0267
vn 0.0695 -0.997 -0.0336
vn 0.9808 0.1526 -0.1218
vn 0.7435 0.1717 0.6463
vn -0.9551 0.1661 -0.2453
vn -0.6741 -0.1426 -0.7247
vn -0.1343 -0.9793 0.1513
vn -0.0137 -0.9885 -0.1509
vn 0.0361 -0.9985 -0.0406
vn -0.606 0.7582 -0.2408
vn -0.6243 0.525 0.5785
vn -0.1238 0.5172 -0.8469
vn 0.1009 0.3409 -0.9347
vn -0.5981 0.4338 0.6739
vn 0.1097 -0.994 -0.0031
vn -0.0449 -0.9962 -0.074
vn 0.5473 0.2518 -0.7982
vn -0.0558 0.1881 -0.9806
vn -0.6629 -0.0531 0.7469
vn -0.6165 0.3707 0.6946
vn 0.6863 0.6907 0.2279
vn 0.1427 0.2528 -0.9569
vn -0.6492 0.7506 0.1232
vn -0.8342 0.4644 -0.2973
vn -0.5738 -0.0476 0.8176
vn -0.7086 0.2404 0.6634
vn -0.4139 -0.0497 0.909
vn -0.2022 0.2513 0.9466
vn 0.2662 -0.1121 -0.9574
vn 0.5118 0.3944 -0.7632
vn 0.368 0.2654 -0.8911
vn -0.6744 0.2411 -0.6979
vn -0.6188 0.1643 -0.7682
vn -0.6267 0.2394 -0.7415
vn -0.9212 0.3868 0.0432
vn 0.6596 -0.0624 0.749
vn 0.7652 0.2344 0.5996
vn 0.9548 0.1306 -0.267
vn 0.9103 0.2881 -0.2972
vn 0.3122 -0.2062 0.9274
vn 0.239 0.4224 0.8743
vn 0.878 -0.0103 -0.4785
vn 0.9217 0.2859 -0.2622
vn -0.3192 -0 -0.9477
vn -0.5054 -0 -0.8629
vn -0.9041 -0.2335 0.358
vn -0.8908 0.2509 0.3789
vt 0.654273 0.274232
vt 0.558344 0.290973
vt 0.592591 0.232212
vt 0.251509 0.775841
vt 0.187717 0.908904
vt 0.215221 0.775841
vt 0.203189 0.437848
vt 0.122344 0.359408
vt 0.204593 0.360881
vt 0.762741 0.520314
vt 0.78569 0.414312
vt 0.873392 0.490113
vt 0.513855 0.757242
vt 0.37449 0.684298
vt 0.485336 0.58614
vt 0.657504 0.55114
vt 0.713869 0.462548
vt 0.876255 0.782739
vt 0.73203 0.760445
vt 0.825396 0.674412
vt 0.891215 0.782739
vt 0.891215 0.953471
vt 0.73203 0.938895
vt 0.594494 0.743661
vt 0.679249 0.624254
vt 0.714872 0.723519
vt 0.609929 0.612354
vt 0.225574 0.289911
vt 0.095413 0.299966
vt 0.201471 0.149797
vt 0.54221 0.204306
vt 0.486263 0.274176
vt 0.37449 0.167817
vt 0.634609 0.984816
vt 0.527265 0.838424
vt 0.607957 0.824822
vt 0.702146 0.892129
vt 0.73203 0.83532
vt 0.405038 0.339204
vt 0.384775 0.261711
vt 0.498963 0.426286
vt 0.541008 0.375296
vt 0.251509 0.940313
vt 0.140053 0.940396
vt 0.87526 0.65109
vt 0.659513 0.399498
vt 0.459886 0.932906
vt 0.553333 1
vt 0.401136 0.859342
vt 0.140054 0.775841
vt 0.817724 0.582906
vt 0.73203 0.643118
vt 0.723003 0.333072
vt 0.604559 0.341316
vt 0.37449 0.582906
vt 0.408604 0.456344
vt 0.500696 0.51328
vt 0.83662 0.196438
vt 0.699704 0.205866
vt 0.734926 0.128019
vt 0.827895 0.313595
vt 0.921496 0.275841
vt 0.014261 0.936327
vt 0.014261 0.817666
vt 0.053603 0.878798
vt 0.345283 0.55647
vt 0.279954 0.50416
vt 0.360469 0.473763
vt 0.18881 0.537881
vt 0.259821 0.581096
vt 0.337865 0.651158
vt 0.177665 0.623128
vt 0.257604 0.638379
vt 0.55947 0.047071
vt 0.446898 0.089276
vt 0.482857 0
vt 0.517657 0.141969
vt 0.591149 0.139649
vt 0.677992 0.087041
vt 0.357837 0.198235
vt 0.271619 0.093899
vt 0.342293 0.069128
vt 0.355294 0.270624
vt 0.414509 0.582906
vt 0.292162 0.368537
vt 0.322702 0
vt 0.104059 0.936327
vt 0.103987 0.817666
vt 0.37449 0.378479
vt 0.240901 0.732687
vt 0.322851 0.765843
vt 0.170093 0.663629
vt 0.251509 0.865146
vt 0.37449 0.780424
vt 0 0.428665
vt 0 0.156407
vt 0.09774 0.138608
vt 1 0.712809
vt 0.876255 0.70136
vt 1 0.582906
vt 0.741766 0.803536
vt 0.878154 0.591864
usemtl 
f 1/1/1 2/2/1 3/3/1
f 4/4/2 5/5/2 6/6/2
f 7/7/3 8/8/3 9/9/3
f 10/10/4 11/11/4 12/12/4
f 13/13/5 14/14/5 15/15/5
f 16/16/6 17/17/6 10/10/6
f 18/18/7 8/19/7 19/20/7
f 16/21/8 20/22/8 18/23/8
f 21/24/9 22/25/9 23/26/9
f 13/13/10 24/27/10 21/24/10
f 8/8/11 25/28/11 9/9/11
f 20/29/12 12/30/12 25/28/12
f 2/2/13 26/31/13 3/3/13
f 27/32/14 4/33/14 26/31/14
f 28/34/15 29/35/15 30/36/15
f 29/35/16 21/24/16 30/36/16
f 31/37/16 30/36/16 32/38/16
f 30/36/17 23/26/17 32/38/17
f 27/32/18 33/39/18 34/40/18
f 16/16/19 35/41/19 36/42/19
f 5/5/20 33/43/20 37/44/20
f 37/45/21 18/18/21 19/20/21
f 2/2/22 36/42/22 27/32/22
f 36/42/23 38/46/23 16/16/23
f 39/47/16 29/35/16 40/48/16
f 41/49/24 13/13/24 29/35/24
f 5/5/25 42/50/25 6/6/25
f 42/51/26 19/20/26 7/52/26
f 11/11/27 38/46/27 43/53/27
f 43/53/28 44/54/28 1/1/28
f 18/55/29 45/56/29 46/57/29
f 33/39/30 35/41/30 45/56/30
f 23/58/31 47/59/31 32/60/31
f 43/53/32 47/59/32 48/61/32
f 22/62/33 48/61/33 23/58/33
f 11/63/34 48/64/34 49/65/34
f 41/66/35 50/67/35 51/68/35
f 42/69/36 50/67/36 52/70/36
f 39/71/37 52/70/37 41/66/37
f 6/72/38 52/70/38 53/73/38
f 28/74/39 54/75/39 40/76/39
f 55/77/40 4/33/40 54/75/40
f 56/78/41 28/74/41 31/79/41
f 56/78/42 26/31/42 55/77/42
f 15/80/43 57/81/43 24/82/43
f 58/83/44 12/30/44 57/81/44
f 14/14/45 58/84/45 15/15/45
f 59/85/46 25/28/46 58/83/46
f 57/81/47 22/86/47 24/82/47
f 12/87/48 49/65/48 57/88/48
f 51/68/49 59/85/49 14/89/49
f 7/7/50 59/85/50 50/67/50
f 54/90/51 39/71/51 40/91/51
f 4/92/52 53/73/52 54/90/52
f 47/59/53 31/79/53 32/60/53
f 47/59/54 3/3/54 56/78/54
f 1/1/55 44/54/55 2/2/55
f 4/4/56 34/93/56 5/5/56
f 7/52/57 19/20/57 8/19/57
f 10/10/58 17/17/58 11/11/58
f 13/13/59 51/94/59 14/14/59
f 16/16/60 38/46/60 17/17/60
f 18/95/61 20/29/61 8/8/61
f 16/96/62 10/97/62 20/29/62
f 21/24/63 24/27/63 22/25/63
f 13/13/64 15/15/64 24/27/64
f 8/8/65 20/29/65 25/28/65
f 20/29/66 10/97/66 12/30/66
f 2/2/67 27/32/67 26/31/67
f 27/32/68 34/40/68 4/33/68
f 28/34/69 40/48/69 29/35/69
f 29/35/16 13/13/16 21/24/16
f 31/37/70 28/34/70 30/36/70
f 30/36/71 21/24/71 23/26/71
f 27/32/72 36/42/72 33/39/72
f 16/16/73 46/57/73 35/41/73
f 5/5/74 34/93/74 33/43/74
f 37/98/75 33/99/75 18/100/75
f 2/2/76 44/54/76 36/42/76
f 36/42/76 44/54/76 38/46/76
f 39/47/77 41/49/77 29/35/77
f 41/49/78 51/94/78 13/13/78
f 5/5/79 37/44/79 42/50/79
f 42/51/80 37/45/80 19/20/80
f 11/11/81 17/17/81 38/46/81
f 43/53/82 38/46/82 44/54/82
f 16/21/83 18/23/83 46/101/83
f 18/100/84 33/99/84 45/102/84
f 45/56/85 35/41/85 46/57/85
f 33/39/86 36/42/86 35/41/86
f 23/58/87 48/61/87 47/59/87
f 43/53/88 1/1/88 47/59/88
f 22/64/89 49/65/89 48/64/89
f 11/11/90 43/53/90 48/61/90
f 41/66/91 52/70/91 50/67/91
f 42/69/92 7/7/92 50/67/92
f 39/71/38 53/73/38 52/70/38
f 6/72/93 42/69/93 52/70/93
f 28/74/94 55/77/94 54/75/94
f 55/77/95 26/31/95 4/33/95
f 56/78/96 55/77/96 28/74/96
f 56/78/97 3/3/97 26/31/97
f 15/80/98 58/83/98 57/81/98
f 58/83/99 25/28/99 12/30/99
f 14/89/100 59/85/100 58/83/100
f 59/85/101 9/9/101 25/28/101
f 57/88/102 49/65/102 22/64/102
f 12/87/103 11/63/103 49/65/103
f 51/68/104 50/67/104 59/85/104
f 7/7/105 9/9/105 59/85/105
f 54/90/106 53/73/106 39/71/106
f 4/92/107 6/72/107 53/73/107
f 47/59/108 56/78/108 31/79/108
f 47/59/109 1/1/109 3/3/109
s off
